<svg xmlns="http://www.w3.org/2000/svg" viewBox="0 0 94.35 81.91"><defs><style>.cls-1{fill:#0c0b0b;}.cls-2{fill:#ee959d;}.cls-3{fill:#fff;}.cls-4{fill:#cc5b28;}.cls-5{fill:#3bb0d9;}.cls-6{fill:#010101;}.cls-7{fill:#9d9e36;}</style></defs><title>Asset 1</title><g id="Layer_2" data-name="Layer 2"><g id="Layer_1-2" data-name="Layer 1"><path class="cls-1" d="M9.63,40.81c1.68-1.9,6.18-2.56,6.89-2.23a2.39,2.39,0,0,1,.94.74c-.5,0-1.53.12-2,.16,2.33,5.28,7.11,9.06,12.1,11.73,10.74,5.71,23.87,6.27,35.35,2.54C69.93,51.5,76.7,46.92,79.79,40c-.32-.18-.94-.52-1.26-.68,2.3-.79,5.48-1.35,7.29.67-.83-.1-1.64-.23-2.46-.4A79,79,0,0,1,78.25,54.8c-4,7.81-9.64,15.3-17.57,19.54A28.38,28.38,0,0,1,40,76.8c-6.4-1.72-11.81-6-16.24-10.75C17.8,58.66,13.36,49.83,12,40.36,11.23,40.52,10.42,40.69,9.63,40.81ZM79.47,42.9c-1.06,1.56-2.44,2.87-3.55,4.39a11,11,0,0,0,3.18,3.24c.83-2.16,1.52-4.4,2.29-6.6C80.76,43.55,80.12,43.21,79.47,42.9ZM68.62,52.71C69.47,56.1,71,59.29,72,62.66a40.77,40.77,0,0,0,6.64-11.15,37.15,37.15,0,0,0-3.5-3.6A29.11,29.11,0,0,1,68.62,52.71Zm-50.8,1.92a46.7,46.7,0,0,0,6.31,9.54A96.32,96.32,0,0,0,29,53.54c-2.11-1.09-4-2.46-6.08-3.64C21,51,19.59,53.14,17.82,54.63ZM59.66,56c.69,5.27,1.84,10.46,2.54,15.74,3.55-2.28,7.19-4.92,9.33-8.61-1.08-3.4-2.54-6.66-3.81-10A43.85,43.85,0,0,1,59.66,56ZM29.84,53.86c-1.79,3.62-3.21,7.42-5.1,11a30.23,30.23,0,0,0,9.82,7.83C35.51,67.2,37,61.82,37.79,56.3A66.92,66.92,0,0,1,29.84,53.86Zm19.8,3.5c-.51,6.24-.16,12.52-.82,18.73a27,27,0,0,0,12.72-3.82c-.74-5.35-1.74-10.65-2.75-15.94C55.76,56.9,52.69,57.06,49.64,57.36ZM35.22,73.14a25.22,25.22,0,0,0,12.86,3c.21-6.22.78-12.44.47-18.66a47.55,47.55,0,0,1-9.81-1C37.44,62,36.33,67.56,35.22,73.14Z"/><path class="cls-2" d="M27.2,73.8c2,1.13,3.46,3,5.45,4.11,2.16,1.23,4.44,2.43,7,2.55,3.17.29,6.2-1.38,9.36-.81,3.53.53,7.18,1.87,10.73.61,2.56-.7,4.46-2.64,6.77-3.81-.95,2.29-2,3.16-5.56,4.4S41.34,82.38,35.85,81a12.52,12.52,0,0,1-4.33-2.54C29.9,77.1,28.15,75.75,27.2,73.8Z"/><path class="cls-3" d="M12.89,39.47a23.12,23.12,0,0,0,1.21,5.62,9,9,0,0,0,2.75-1.41,49,49,0,0,1-2.51-4.23Zm67.25,2.44c-.09.82,1,.74,1.54,1.12a19.81,19.81,0,0,0,.53-3.59C80.63,39,80.53,40.92,80.14,41.91ZM14.43,45.67A30.65,30.65,0,0,0,17.56,54c1.63-1.5,3.15-3.05,4.67-4.66-1.62-1.53-3.1-3.19-4.7-4.7C16.42,44.57,15.45,45.29,14.43,45.67Zm65-2.77c.65.31,1.29.65,1.92,1-.77,2.2-1.46,4.44-2.29,6.6a11,11,0,0,1-3.18-3.24C77,45.77,78.41,44.46,79.47,42.9ZM68.62,52.71a29.11,29.11,0,0,0,6.53-4.8,37.15,37.15,0,0,1,3.5,3.6A40.77,40.77,0,0,1,72,62.66C71,59.29,69.47,56.1,68.62,52.71Zm-50.8,1.92C19.59,53.14,21,51,22.94,49.9c2,1.18,4,2.55,6.08,3.64a96.32,96.32,0,0,1-4.89,10.63A46.7,46.7,0,0,1,17.82,54.63ZM59.66,56a43.85,43.85,0,0,0,8.06-2.85c1.27,3.32,2.73,6.58,3.81,10-2.14,3.69-5.78,6.33-9.33,8.61C61.5,66.49,60.35,61.3,59.66,56ZM29.84,53.86a66.92,66.92,0,0,0,8,2.44c-.8,5.52-2.28,10.9-3.23,16.38a30.23,30.23,0,0,1-9.82-7.83C26.63,61.28,28.05,57.48,29.84,53.86Zm19.8,3.5c3-.3,6.12-.46,9.15-1,1,5.29,2,10.59,2.75,15.94a27,27,0,0,1-12.72,3.82C49.48,69.88,49.13,63.6,49.64,57.36ZM35.22,73.14c1.11-5.58,2.22-11.17,3.52-16.69a47.55,47.55,0,0,0,9.81,1c.31,6.22-.26,12.44-.47,18.66A25.22,25.22,0,0,1,35.22,73.14Zm25.45-55c7.71-2,16.55,4.35,16.54,12.41-2.78.56-4.08,3.18-4.54,5.7-1.61-.5-3.26-.92-4.88-1.32-.68-2.87-2.72-5.73-5.77-6.21a6.54,6.54,0,0,0-7.15,6.72c-1,.42-2.14.83-3.2,1.23a12.08,12.08,0,0,0-3-2.16C47.81,27.08,53.16,19.39,60.67,18.17ZM41.79,36.28a5.42,5.42,0,0,1-.56-3c.19-3.28-3-6.46-6.3-6-3.39.09-6,3.3-6.33,6.54-1.86.3-3.74.63-5.58,1.09.1-1.18.45-2.45,0-3.6-.81-1.45-2.41-2.13-3.86-2.71a15.47,15.47,0,0,1,4.55-8.36c4.75-4.48,12.81-5.35,18-1.25,4.63,3.46,6.48,9.6,5.7,15.19A6.74,6.74,0,0,0,41.79,36.28Z"/><path class="cls-4" d="M14.56,30.32c.93,0,1.24,1.85-.08,1.75a.66.66,0,0,1-.8,0,.91.91,0,0,1,.45-1.56A.78.78,0,0,1,14.56,30.32ZM8.84,34c1.64.07.92-3-.45-1.59C7.61,32.73,7.75,34.36,8.84,34Zm75.31,2.67c.84-1-1-1.91-1.61-1S83.52,37.45,84.15,36.66Zm2.95-.84c.83-1-1-1.92-1.61-1S86.47,36.61,87.1,35.82ZM21.64,33.37c0,2.24-2.56,3.16-3,5.2l.63-.41.83-.55a31.81,31.81,0,0,1,2.8-1.81c0-.23.11-.7.16-.93.1-1.18.45-2.45,0-3.6-.81-1.45-2.41-2.13-3.86-2.71l-.85-.26A17.66,17.66,0,0,0,3.54,31.36,8.67,8.67,0,0,0,0,37.19a6.94,6.94,0,0,0,5.19,5.29c1.61.41,3.7.64,4.87-.81-1.86-.09-3.88.24-5.54-.78-1.93-.9-3.09-3.47-2-5.4,1.52-2.82,4.61-4.39,7.57-5.28a16.78,16.78,0,0,1,4.44-.65,11.1,11.1,0,0,1,6.83,2.08C21.44,32.07,21.58,32.93,21.64,33.37Zm59.92.7c1.14-.89-.42-1.85-1.31-1.18C79.2,33.67,81,35.41,81.56,34.07Zm-4.35-3.49c-2.78.56-4.08,3.18-4.54,5.7-.07.15-.18.44-.26.59a11.11,11.11,0,0,0,3.41,3.38L77,40l1-.21-1-.56c-1.11-.59-2.22-1.26-2.34-2.58a3.94,3.94,0,0,1,2.62-4.25c3.26-1.19,6.84-.7,10.06.35,2.55.91,5.09,2.9,5.36,5.78,0,1.95-2.07,2.8-3.3,3.92a4.25,4.25,0,0,0,5-4.62c-.24-3.35-3.14-5.72-6.1-6.79a18.75,18.75,0,0,0-10.35-.79C77.7,30.31,77.37,30.49,77.21,30.58Zm-65.31,3c-.66.79.33,1.44,1.07,1.27a.82.82,0,0,0,.56-.42c.53-.69-.17-1.2-.83-1.2A1,1,0,0,0,11.9,33.54Z"/><path class="cls-5" d="M60.47,31.66c-2.58.19-2.27,4.23-5.12,3.86a5.05,5.05,0,0,1,.32-2.77c1.11-1.66,2.62-3.42,4.79-3.59,3.43-.53,6.32,2.61,7,5.74l-2.56-.11C64.3,32.94,62.62,31.08,60.47,31.66ZM38.23,32c.84,1.45.32,4.17,2.78,3.64.22-2.2-.21-6.12-3.54-7.74a7,7,0,0,0-4.42.08,8.45,8.45,0,0,0-4.17,5.82c1.57,0,2.64.27,3-1.47C32.82,29.69,37.11,29.4,38.23,32Z"/><path class="cls-6" d="M37.47,27.88a7,7,0,0,0-4.42.08,8.45,8.45,0,0,0-4.17,5.82c1.57,0,2.64.27,3-1.47.91-2.62,5.2-2.91,6.32-.33.84,1.45.32,4.17,2.78,3.64C41.23,33.42,40.8,29.5,37.47,27.88ZM41.7,36.5a37.37,37.37,0,0,0-18.84-.7c0-.23.11-.7.16-.93,1.84-.46,3.72-.79,5.58-1.09.32-3.24,2.94-6.45,6.33-6.54,3.3-.45,6.49,2.73,6.3,6a5.42,5.42,0,0,0,.56,3Zm-20.16-34c6-4,14.44-2.94,20,1.37C43.64,5.46,46,7.09,46.91,9.67c-4-4.1-9-7.66-14.93-8.21C26.85.93,22,3.4,18.05,6.39c-2.07,1.43-3.55,3.54-5.58,5A27.42,27.42,0,0,1,21.54,2.48ZM53.1,10.26c3-2.4,5.9-5.15,9.59-6.52A17.7,17.7,0,0,1,81.44,7C83,8.29,84,10.1,85.66,11.29,82.28,5.54,76.17.54,69.15,1c-4.69-.08-9.06,2.18-12.5,5.22C55.35,7.46,53.78,8.54,53.1,10.26ZM67.84,38.62a24,24,0,0,0-8.6-.91c-1.67.51-3.61.71-4.75,2.21M25,38.18c4-2.51,9.18-2.08,13.31,0a37.91,37.91,0,0,0-13.31,0m35.44-6.52c-2.58.19-2.27,4.23-5.12,3.86a5.05,5.05,0,0,1,.32-2.77c1.11-1.66,2.62-3.42,4.79-3.59,3.43-.53,6.32,2.61,7,5.74l-2.56-.11C64.3,32.94,62.62,31.08,60.47,31.66Zm-13,2.48a6.74,6.74,0,0,0-5.64,2.14l-.09.22a8.81,8.81,0,0,0-1.43,8,14.44,14.44,0,0,1-20.21-6.9l-.83.55a16.23,16.23,0,0,0,9.89,8.45c3.78,1.18,7.84.46,11.4-1.09,1.07,3.62,5.47,5,8.8,3.78-2.65-.25-5.84-.78-7.21-3.38-1.8-3.57-.61-9.06,3.57-10.31a5.54,5.54,0,0,1,6,4.71c.31,2.4-1.14,4.5-2.3,6.47a15.06,15.06,0,0,0,2.81-2.49A15.84,15.84,0,0,0,65.5,48.51c5-.68,9.11-4.24,11.51-8.55l-1.19.29C73.26,44.75,68.26,48,63,47.76c-3.95.2-7.63-1.71-10.47-4.34A9,9,0,0,0,52,37.14a35.16,35.16,0,0,1,20.42-.27c.08-.15.19-.44.26-.59-1.61-.5-3.26-.92-4.88-1.32-.68-2.87-2.72-5.73-5.77-6.21a6.54,6.54,0,0,0-7.15,6.72c-1,.42-2.14.83-3.2,1.23a12.08,12.08,0,0,0-3-2.16c-.89-7.46,4.46-15.15,12-16.37,7.71-2,16.55,4.35,16.54,12.41.16-.09.49-.27.64-.37l.55-.38a15.92,15.92,0,0,0-8-11.19c1-1.67,1.87-3.4,2.85-5.1-.41-.48-1.35-1.41-1.91-.66-.68,1.69-1.28,3.43-2,5.11A17.41,17.41,0,0,1,67,17.3L64.52,17c.24-2.11.6-4.21.82-6.33l-2.18-.08c.06,2.11.15,4.24.15,6.36a43.05,43.05,0,0,0-5.52.85c-.39-1.72-1-3.4-1.25-5.12a5.65,5.65,0,0,0-2.19.88,34.25,34.25,0,0,1,2.26,5,16.34,16.34,0,0,0-8.36,10c-.45-4.29-3-8-6.18-10.71.64-1.7,1.72-3.17,2.41-4.83l-1.37-1.33c-.86,1.79-1.57,3.63-2.34,5.46a17,17,0,0,0-5.15-1.73c.11-2,.26-4,.5-5.94L34,9.4c.09,2,.1,4,.22,6a22.82,22.82,0,0,0-6,1.06c-.55-1.61-1-3.27-1.48-4.9L25,12.29c.7,1.51,1.35,3.05,2,4.57A16.15,16.15,0,0,0,18.28,28.3l.85.26a15.47,15.47,0,0,1,4.55-8.36c4.75-4.48,12.81-5.35,18-1.25C46.36,22.41,48.21,28.55,47.43,34.14Z"/><path class="cls-7" d="M6.72,5.52c2-.59,3.83,1.5,3.67,3.44,0,2.48-2,5.51-4.77,5.13C2.28,12.27,3.63,6.89,6.72,5.52ZM78.89,66.78c0,2.74,3.85,4.2,5.74,2.29a7.61,7.61,0,0,0,1.92-7.86,2.94,2.94,0,0,0-2.88-2.08C79.91,59.17,78.31,63.58,78.89,66.78ZM17.71,80.18c3.3.76,5-3.18,4.75-5.88.18-2.36-2.25-5-4.61-3.58C14.51,72.58,13.94,78.52,17.71,80.18ZM88.49,15.36a2.73,2.73,0,0,0,3.14-2.28c.65-1.35-.36-3.8-2.1-3.13C87.25,10.48,86.52,14,88.49,15.36Zm-85,9.54A1.4,1.4,0,0,0,6,24.64C7.15,23.18,6.27,19.86,4,21A2.94,2.94,0,0,0,3.52,24.9ZM14,67.52c1.86.5,2.95-1.77,2.75-3.32.21-1.59-1.8-3-3.12-1.94C12.12,63.62,12,66.57,14,67.52ZM77.79,76c.53-.88.93-1.88-.2-2.77s-3.81,1.46-3.48,3.49C75.06,78.32,77.16,77.37,77.79,76Zm9.92-52.46a1.41,1.41,0,0,0,2.46-.27c1.18-1.45.31-4.76-1.94-3.66A2.94,2.94,0,0,0,87.71,23.56Z"/></g></g></svg>