<svg xmlns="http://www.w3.org/2000/svg" viewBox="0 0 103.86 95.2"><defs><style>.cls-1{fill:#fff;}.cls-2{fill:#41bbec;}.cls-3{fill:#cd4428;}.cls-4{fill:#171616;}.cls-5{fill:#642025;}.cls-6{fill:#f1949d;}.cls-7{fill:#acb036;}</style></defs><title>Asset 7</title><g id="Layer_2" data-name="Layer 2"><g id="Layer_1-2" data-name="Layer 1"><path class="cls-1" d="M30.75,18.12c5.62-.73,12,.55,15.86,5,3.93,4.11,4.9,10.13,4.51,15.61-1.76.62-3.65,1.19-4.95,2.61-2.5,2.47-3.15,6.17-3,9.54a22.58,22.58,0,0,1-15.81,3.6,13.69,13.69,0,0,1-8.84-5.21c-1.82-2.34-2.54-5.29-3.29-8.11,3,3.22,8.16,3.05,11.63.71,4.5-3,7.09-8.25,7.62-13.54.48-3.65-1.43-7.69-5.23-8.6Zm41.19,4.54c2.06,4,.93,8.67-.84,12.53-2.3,4.77-6.63,9.27-12.29,9.29,1,2.27.59,4.68.2,7,8.92,7.53,25.13,4.14,29.49-7a20.63,20.63,0,0,0-1-16.92c-5.52-1-10-4.74-13.23-9.19a33.51,33.51,0,0,0-7.42.17C68.84,19.46,70.94,20.58,71.94,22.66Z"/><path class="cls-2" d="M61.22,21.09c2.19-1.59,5.35-2.07,7.67-.48s3.27,4.36,3.27,7a19.22,19.22,0,0,1-7.62,14.18c-1.72,1.31-3.94,1.47-6,1.55a14.38,14.38,0,0,0-5.21-4.43C51.41,32.11,55.52,24.78,61.22,21.09Zm-1,4.26c-2.68,1.45-4.27,4.45-4.77,7.37-.33,1.68.7,3.87,2.65,3.73,3.62.23,5.48-3.89,6-6.9C64.63,27.3,62.81,24,60.18,25.35Zm-42,1.45a41.27,41.27,0,0,0,10-6.23c1.68.44,3.73.84,4.48,2.66,1.7,3.46.72,7.57-.64,11-1.93,4.59-6.34,8.88-11.66,8.34-2.32,0-4.74-1.64-5-4.07C15.11,34.41,16.51,30.45,18.2,26.8Zm0,7.23c0,1.88,2.23,3.64,3.94,2.43,3.11-2,4.19-6,3.65-9.52l-2.37-.89A8.78,8.78,0,0,0,18.17,34Z"/><path class="cls-3" d="M10,49c-2-1.63,2-3.47,2.71-2.8S12,49.73,10,49Zm83.57.21c1.82.3,3.87-1.93,3.61-2.67s-2.12-.67-3,0S92.34,48.25,93.53,49.16Zm-89.25,3a2.43,2.43,0,0,0,3-1.44c-.11-1.19-1.1-1.45-2.11-1.16A1.55,1.55,0,0,0,4.28,52.13Zm95.38,0c.78.7,2.08-.1,2.82-.32,1-.54,1.67-2.27.76-3s-2.85-.12-3.65.93S98.89,51.47,99.66,52.18Zm-6.1,2.41c.76,1,3.88-2,3.31-2.58a1.49,1.49,0,0,0-2.16.18C93.86,52.7,92.81,53.59,93.56,54.59Zm-85.1.3c1,1.51,3.87.27,3.21-1.48-.06-.81-1.32-.71-1.9-.59C8.92,53.11,8.06,53.93,8.46,54.89Z"/><path class="cls-4" d="M60.18,25.35C62.81,24,64.63,27.3,64,29.55c-.5,3-2.36,7.13-6,6.9-2,.14-3-2.05-2.65-3.73C55.91,29.8,57.5,26.8,60.18,25.35ZM22.11,36.46c3.11-2,4.19-6,3.65-9.52l-2.37-.89a8.78,8.78,0,0,0-5.22,8C18.17,35.91,20.4,37.67,22.11,36.46ZM36.33,5c2.68.39,3.87,3.15,5.45,5-.75-2.84-2-6.56-5.44-6.87C33,3.2,31.22,6.61,30,9.34,31.88,7.6,33.5,4.9,36.33,5ZM15.94,25.83c8.19-3.95,15.9-9.59,20.71-17.46a20.9,20.9,0,0,1-4.4,8.45c5.32-.2,11.12,1,14.93,5,2.85,2.7,4.2,6.53,4.87,10.31a19.89,19.89,0,0,1,6.69-10.77A21.37,21.37,0,0,1,73.35,17a34.33,34.33,0,0,1-1.49-5.45c.16-.32.5-1,.66-1.29C73.73,16,77.76,20.92,82.68,24c3.1,2,6.76,2.82,10.36,3.45l.27-.81c.06.2.2.6.27.8a19.61,19.61,0,0,1-4.77.47,22.59,22.59,0,0,1,2.24,10.5,18,18,0,0,1-8.8,15.24c-7.22,4.18-17,4.34-23.77-.94-.69.73-1.4,1.46-2.12,2.18.84-2.18,1.74-4.47,1.34-6.85-.41-3.09-2.29-6.45-5.54-7.17a6.24,6.24,0,0,0-6.24,4.5,11.55,11.55,0,0,0,3.41,12.08c1.43,1.23,3.36,1.52,5.13,2-2.26-.06-4.7.1-6.64-1.26-2.34-1.3-3.62-3.75-4.52-6.16a22.38,22.38,0,0,1-16,3.57,15,15,0,0,1-11.36-8.38c-2.92-6.19-2.11-13.53.69-19.61-2.64.73-5.44,1.17-8,0A18.78,18.78,0,0,0,15.94,25.83Zm14.81-7.71-1.46,1.57c3.8.91,5.71,4.95,5.23,8.6C34,33.58,31.4,38.84,26.9,41.83c-3.47,2.34-8.62,2.51-11.63-.71.75,2.82,1.47,5.77,3.29,8.11a13.69,13.69,0,0,0,8.84,5.21,22.58,22.58,0,0,0,15.81-3.6c-.19-3.37.46-7.07,3-9.54,1.3-1.42,3.19-2,4.95-2.61.39-5.48-.58-11.5-4.51-15.61C42.72,18.67,36.37,17.39,30.75,18.12Zm36.06.49c2,.85,4.13,2,5.13,4.05,2.06,4,.93,8.67-.84,12.53-2.3,4.77-6.63,9.27-12.29,9.29,1,2.27.59,4.68.2,7,8.92,7.53,25.13,4.14,29.49-7a20.63,20.63,0,0,0-1-16.92c-5.52-1-10-4.74-13.23-9.19A33.51,33.51,0,0,0,66.81,18.61Zm-5.59,2.48c-5.7,3.69-9.81,11-7.9,17.84a14.38,14.38,0,0,1,5.21,4.43c2.07-.08,4.29-.24,6-1.55a19.22,19.22,0,0,0,7.62-14.18c0-2.66-.93-5.54-3.27-7S63.41,19.5,61.22,21.09Zm-43,5.71c-1.69,3.65-3.09,7.61-2.8,11.7.22,2.43,2.64,4,5,4.07,5.32.54,9.73-3.75,11.66-8.34,1.36-3.43,2.34-7.54.64-11-.75-1.82-2.8-2.22-4.48-2.66A41.27,41.27,0,0,1,18.2,26.8ZM67.63,6.65a4.41,4.41,0,0,1,6-2.32c2.07.77,3,2.92,3.84,4.76C75.73,7.4,73.62,4.7,70.84,6c-2.39,1-2.41,3.9-2.57,6.09C67.73,10.32,66.76,8.43,67.63,6.65Zm3.44,60.52c.6-.48,1.21-.93,1.84-1.36A24.52,24.52,0,0,1,74,73.61c-.4,2-3,2.48-4.29,1.93a3.09,3.09,0,0,1-1.86-3.19C68.13,70.25,69.63,68.6,71.07,67.17Zm-1.85,5.2c.5,1.43,2.22.77,3.34,1-.29-1.76-.64-3.52-1-5.28C70.59,69.38,69.18,70.59,69.22,72.37Z"/><path class="cls-5" d="M69.22,72.37c0-1.78,1.37-3,2.36-4.28.34,1.76.69,3.52,1,5.28C71.44,73.14,69.72,73.8,69.22,72.37Z"/><path class="cls-6" d="M63.5,80.44c0-.7-.11-1.39-.16-2.09a8.78,8.78,0,0,0,6.83,3.43c2.77.26,5.07-1.5,7.15-3.08-1.14,1.77-2.25,3.93-4.57,4.28A9.27,9.27,0,0,1,63.5,80.44Z"/><path class="cls-7" d="M10.27.36a4.84,4.84,0,0,1,5.4,1.27C19,6.07,17.69,12.94,14,16.79A6.87,6.87,0,0,1,5,17.37C3,15.49,3,12.38,3.41,9.83,4.19,5.93,6.47,2,10.27.36ZM89,82.27c2.06,3,6.69,2.41,9.07.14,3.13-3.35,2.83-9,0-12.45A4.07,4.07,0,0,0,92.8,68.9C88.08,71.14,86.1,77.92,89,82.27Zm8.35-70.33c1.62,2.33,6.37,1.63,6.43-1.54C104.18,8,102.71,4,99.73,4.83A5.09,5.09,0,0,0,97.37,11.94ZM16.25,91.76c1.88,3.2,7.12,3.63,9.15.34,2.66-4.44,1.72-10.94-2.37-14.24a3.49,3.49,0,0,0-3.79-.08C14.49,80.34,13.52,87.39,16.25,91.76ZM1.87,31.3c2.41.55,3.37-2.5,3.27-4.36.07-1.65-1.53-3.79-3.22-2.43C-.12,25.93-1.09,30.41,1.87,31.3ZM12.1,74a4,4,0,0,0,1.8-4.84,2.69,2.69,0,0,0-4.13-1.06C7.38,69.83,9,74.54,12.1,74Zm74,19.39c1.07-1.7-.12-4.94-2.45-4.16s-3.36,4.07-1.86,5.36A2.75,2.75,0,0,0,86.12,93.36Z"/></g></g></svg>