<svg xmlns="http://www.w3.org/2000/svg" viewBox="0 0 127.27 116.49"><defs><style>.cls-1{fill:#9d9e36;}.cls-2{fill:#181515;}.cls-3{fill:#fff;}.cls-4{fill:#44baeb;}.cls-5{fill:#ca5928;}.cls-6{fill:#602328;}.cls-7{fill:#eb9e9e;}</style></defs><title>Asset 16</title><g id="Layer_2" data-name="Layer 2"><g id="Layer_1-2" data-name="Layer 1"><path class="cls-1" d="M7.92.83c6.35-3.51,8.36,5,4.23,8.87C5,16.48-.72,5,7.92.83m109.7,6.8c3.11,6.63,9.68-2.54,8.39-6s-10,1.47-8.39,6M1.73,17.26c-3,3.93,3.64,6.17,5.18.73,1.06-3.77-3.75-3.67-5.18-.73M115.5,88.07c-6.35,2.88-10,19.32.23,16.32,8.08-2.38,10.31-19.51-.23-16.32M14.29,89.58c-4.67,2.59-.49,11.06,2.94,7.3,2.12-2.31,1.26-8.56-2.94-7.3m5.32,12.26c-2.76,3.17-.76,14.42,4.9,11.14,6.44-4,1.5-17.73-4.9-11.14m86.76,10.87c2.86-1.17,6.53-8.69,1.78-7.19-3.08.86-4.46,6.16-1.78,7.19"/><path class="cls-2" d="M38,12.69c2.32-1.86,3.91-4.54,6.52-6a39.6,39.6,0,0,1-2.91,5.11A24.74,24.74,0,0,1,59,24.3a18.35,18.35,0,0,1,6,2.82C66.82,25.91,69,25,70.24,23A25.73,25.73,0,0,1,88.39,12.76c-1.27-1.4-2.66-2.78-3.2-4.66,2.62,1.39,4.2,4,6.58,5.74,5.56,4.08,11.79,7.69,18.73,8.62,2.14.33,4.36.3,6.42,1.06a39.46,39.46,0,0,1-5.42.52c1.06,1.52,1.77,3.54,3.7,4.16,1.78.82,3.77,1.88,4.45,3.85.29,1.86-1.39,2.82-2.52,3.92l-.27.43c-.06.18-.18.55-.25.73a13.6,13.6,0,0,1-2.49-1.06c-.08-.47-.23-1.41-.31-1.88-4.33-.88-8.66-1.75-13.06-2.26-.25,3.33-1.88,6.22-3.54,9l1.67.9-.69.85a54.81,54.81,0,0,0-23.3-.26Q74,47.8,73,53.12c6.55,8,18.47,10,27.78,6l1.83,0h.33C98.17,62.72,91.84,63,86.22,62.11a27.43,27.43,0,0,1-14-7.45c-1.19,3.46-1.57,7.48-4.4,10.08,1.66-7.21,4.82-14.26,4.34-21.81-.26-2.53-1.09-5.49-3.53-6.76A4.59,4.59,0,0,0,63.62,36c-2.85,1.77-3.88,5.33-3.94,8.51-.41,5.64,2.13,10.9,2.71,16.43a6.93,6.93,0,0,1-.71,3.36C60.34,60.63,60.2,56.63,59,52.88c-4.33,4.18-9.89,7.27-16,7.79a27.54,27.54,0,0,1-16.46-3.75l1-.82A26.81,26.81,0,0,0,47,58.43,24.79,24.79,0,0,0,58.46,51a49.37,49.37,0,0,1-.92-8.13,65.64,65.64,0,0,0-26.85-.1c-.19-.44-.4-.88-.62-1.32l1.73.18A11,11,0,0,1,29,31.32C24,32,19.15,33,14.2,33.47L13,34.81l-.74.28c-.12-.39-.38-1.17-.51-1.56,8.2-2.11,16.51-4.12,25-4.43a154.09,154.09,0,0,1,22.84.66l-.69,1.1c-2-.11-4-.24-6-.31,1.29,3.35,0,6.76-1.42,9.81,2,.43,4.07.92,6.09,1.42.9-3.88,3.1-7.67,7.07-9l-.24-1-4.27-.69c.78-.33,1.56-.68,2.33-1l3.24.6c-1.13-1.49-2.09-3.39-4-4-2.64-.89-5.44-1.06-8.12-1.79l3.7-.58c-2.48-3.31-5.27-6.54-8.92-8.56A30.92,30.92,0,0,0,40.1,12.9c-5.62,4.84-12.34,8.86-19.92,9.3-3.27-.38-4.06,3.4-5.53,5.49,2-.15,4-.35,5.93-.47-4.06,1.56-9.22,1.81-11.51,6.1.75.71,1.51,1.41,2.27,2.11-.9.32-1.79.66-2.68,1l.76-.33c-.81-1.33-1.83-2.7-1.39-4.36,1-2,3.31-2.74,5.18-3.71.89-1.91,1.81-3.8,2.82-5.64-2.33-.27-4.78-.36-6.81-1.68C19.3,21.48,30.13,19.47,38,12.69ZM70.67,24.81a45,45,0,0,1,8,.28c-4.36.47-8.8,1.09-12.79,3,.07.55.18,1.64.25,2.19,7.48-.35,15-1.08,22.45-1,9.13.29,18.35,1.51,26.94,4.75,1.4.93,3.46-1,2.51-2.39-3.25-3.34-8.16-3.43-12.36-4.69a13.24,13.24,0,0,1,6.11.73c-.75-1.31-1.52-2.6-2.3-3.89a34.13,34.13,0,0,1-19.51-9.46A24.45,24.45,0,0,0,70.67,24.81ZM30.52,31.37c-.71,3-.53,6.59,1.92,8.79.92,1.12,2.36.56,3.58.45a70.59,70.59,0,0,1,14.09-.55A13.12,13.12,0,0,0,52,30.55c-1.58,0-3.16-.05-4.74-.08.61,3-.11,6.8-3.56,7.62-4.61,2.74-11.19-2.16-9-7.34C33.31,30.94,31.91,31.15,30.52,31.37Zm35.46.1c0,.36,0,1.08,0,1.44a9.44,9.44,0,0,1,8.48,8.46c1.28-.18,2.55-.38,3.82-.59-2.37-2.72-4-6.21-3.34-9.89C71.92,30.93,69,31.16,66,31.47ZM76.46,31a10.6,10.6,0,0,0,3.45,9.27,61.52,61.52,0,0,1,15.16.1,14.85,14.85,0,0,0,4.26-8.23c-1.56-.26-3.13-.46-4.7-.68a6.45,6.45,0,0,1-6.85,7.15c-4.16.24-7.34-3.83-6.92-7.8C79.4,30.89,77.92,30.94,76.46,31Zm-56-17.54c3.14-.05,6.48-1.76,7.49-4.93C25,10.06,22.43,12.3,19,12.49,19.37,12.94,19.69,13.6,20.42,13.48Zm92,1.89c-2-1.95-4.66-3-6.87-4.68A6.84,6.84,0,0,0,112.45,15.37ZM40,45.71c2.65-.34,5.28.18,7.92.32-2.34-3.11-7.2-1.8-10.38-.79A3,3,0,0,0,40,45.71Zm54.25,1.34L93.32,46c-3.41-1.35-7.82-2.18-11,.15A55.26,55.26,0,0,1,94.23,47.05ZM10.65,51.89c2.22-2.89,6.74-4.51,10-2.46-1.69.36-3.4.66-5.09,1,5.74,8.94,15.16,14.8,24.78,18.84,24.81,10.63,56,2.8,73-18.1l-3.29,0A5.08,5.08,0,0,1,118.3,53c-.94-.47-1.87-1-2.8-1.5-.45,3.38-.49,6.79-.91,10.17-1.58,8.34-3.58,16.81-8.2,24-5.62,8.42-12.83,16.25-22.27,20.35-11.57,5.57-25.55,5-37.08-.39-8.31-3.91-15.91-9.73-21-17.41-2.7-4.45-5.66-8.84-7.21-13.85a160.45,160.45,0,0,1-5-23.36C12.8,51.5,11.87,52.68,10.65,51.89Zm71,21.69c-.08,3.84-.07,7.67-.05,11.51,7.76-.28,15.51,0,23.27-.08a58.8,58.8,0,0,0,8.71-31.94C104.77,62.33,94.05,70.16,81.62,73.58ZM16,54.92c.31,6.87,2.39,13.48,4.61,19.93a38.45,38.45,0,0,0,4.61,9.36c7.82.06,15.64.09,23.45.63.21-3.5.52-7,.9-10.47A65.93,65.93,0,0,1,25.08,62.55C21.83,60.27,19.19,57.27,16,54.92Zm35.06,19.8c-.29,3.21-.65,6.4-.89,9.61,4,1,8.15-.21,12.24.08.18-2.76.54-5.49.74-8.24C59.13,75.66,55,75.72,51.06,74.72Zm17,1c-.11,3-.26,6-.23,9a46.32,46.32,0,0,1,12.28,0c.06-3.56-.08-7.12-.08-10.68A71.91,71.91,0,0,1,68.09,75.76ZM64.41,76a36.31,36.31,0,0,0-.36,8.77l1.1.35.83-.5A47.65,47.65,0,0,0,66.69,76Zm-36,11.25c1.28,5.1,6.21,7.61,9.82,10.87.21-3.93.39-7.87.41-11.8-3.65.18-7.37-1.08-10.9.26l-1.65-1.44C26.17,86.42,27.36,86.86,28.38,87.27Zm11.41-.79c-.16,4.3-.33,8.6-.23,12.89a64.93,64.93,0,0,0,10.94,5.54c.13-6.16.48-12.31.9-18.45C47.54,86.39,43.66,86.37,39.79,86.48Zm12.66.1c-.38,6.11-.76,12.24-.65,18.37l.46.59a47.12,47.12,0,0,0,12.19,2c0-7,0-13.94,0-20.91A98.55,98.55,0,0,0,52.45,86.58Zm13.49-.14c-.62,7-.08,14-.3,21A44.61,44.61,0,0,0,77.37,106c.23-6.54.91-13,.71-19.6Q72,86.41,65.94,86.44Zm27.4,0c-.25,3.91-.13,7.84-.4,11.76A47.73,47.73,0,0,0,104,86.33C100.45,86.46,96.9,86.4,93.34,86.44Zm-14,0c0,6.4-.58,12.78-.59,19.18A39,39,0,0,0,91.45,99.2c.81-4.12.57-8.4.73-12.6C87.89,86.56,83.59,86.67,79.3,86.47Z"/><path class="cls-3" d="M59.58,29.76a25.13,25.13,0,0,1,2.87.29c-.77.36-1.55.71-2.33,1l4.27.69.24,1c-4,1.34-6.17,5.13-7.07,9-2-.5-4.06-1-6.09-1.42,1.42-3,2.71-6.46,1.42-9.81,2,.07,4,.2,6,.31ZM66,32.91a9.44,9.44,0,0,1,8.48,8.46c1.28-.18,2.55-.38,3.82-.59-2.37-2.72-4-6.21-3.34-9.89-3,0-6,.27-8.93.58C66,31.83,66,32.55,66,32.91Zm-53,1.9c3.65-.28,7.49-.15,10.82,1.54,2.48,1.16,4.38,3.2,6.26,5.14l1.73.18A11,11,0,0,1,29,31.32C24,32,19.15,33,14.2,33.47ZM97.21,41l1.67.9c3.9-4.07,9.55-6.6,15.24-5.78-.08-.47-.23-1.41-.31-1.88-4.33-.88-8.66-1.75-13.06-2.26C100.5,35.26,98.87,38.15,97.21,41Zm-47,43.38c4,1,8.15-.21,12.24.08.18-2.76.54-5.49.74-8.24-4-.51-8.13-.45-12.09-1.45C50.77,77.93,50.41,81.12,50.17,84.33Zm17.69.4a46.32,46.32,0,0,1,12.28,0c.06-3.56-.08-7.12-.08-10.68a71.91,71.91,0,0,1-12,1.7C68,78.75,67.83,81.74,67.86,84.73ZM38.2,98.14c.21-3.93.39-7.87.41-11.8-3.65.18-7.37-1.08-10.9.26l-1.65-1.44c.11,1.26,1.3,1.7,2.32,2.11C29.66,92.37,34.59,94.88,38.2,98.14Zm1.36,1.23a64.93,64.93,0,0,0,10.94,5.54c.13-6.16.48-12.31.9-18.45-3.86-.07-7.74-.09-11.61,0C39.63,90.78,39.46,95.08,39.56,99.37ZM51.8,105l.46.59a47.12,47.12,0,0,0,12.19,2c0-7,0-13.94,0-20.91a98.55,98.55,0,0,0-12,0C52.07,92.69,51.69,98.82,51.8,105Zm13.84,2.5A44.61,44.61,0,0,0,77.37,106c.23-6.54.91-13,.71-19.6q-6.08,0-12.14,0C65.32,93.42,65.86,100.45,65.64,107.45Zm27.3-9.25A47.73,47.73,0,0,0,104,86.33c-3.56.13-7.11.07-10.67.11C93.09,90.35,93.21,94.28,92.94,98.2Zm-14.23,7.45A39,39,0,0,0,91.45,99.2c.81-4.12.57-8.4.73-12.6-4.29,0-8.59.07-12.88-.13C79.3,92.87,78.72,99.25,78.71,105.65Z"/><path class="cls-4" d="M30.52,31.37c1.39-.22,2.79-.43,4.17-.62-2.2,5.18,4.38,10.08,9,7.34,3.45-.82,4.17-4.6,3.56-7.62,1.58,0,3.16,0,4.74.08a13.12,13.12,0,0,1-1.87,9.51A70.59,70.59,0,0,0,36,40.61c-1.22.11-2.66.67-3.58-.45C30,38,29.81,34.37,30.52,31.37Zm49.39,8.92a61.52,61.52,0,0,1,15.16.1,14.85,14.85,0,0,0,4.26-8.23c-1.56-.26-3.13-.46-4.7-.68a6.45,6.45,0,0,1-6.85,7.15c-4.16.24-7.34-3.83-6.92-7.8-1.46.06-2.94.11-4.4.19A10.6,10.6,0,0,0,79.91,40.29Z"/><path class="cls-5" d="M12.25,35.09l.74-.28c3.65-.28,7.49-.15,10.82,1.54,2.48,1.16,4.38,3.2,6.26,5.14.22.44.43.88.62,1.32A11.86,11.86,0,0,1,27.58,56.1l-1,.82A9.6,9.6,0,0,1,23.74,58c2.15-2.7,5.16-5.11,5.5-8.8.86-5.57-3.75-10.64-9-11.81-5.52-1.25-12,.29-15.5,5C2,45.82,1.51,51.32,4.49,54.77c1.61,1.78,3.58,3.23,5,5.17C4.46,58-.33,53.42,0,47.65a15.08,15.08,0,0,1,8.64-11.2c.89-.36,1.78-.7,2.68-1ZM98.19,42.7A12.14,12.14,0,0,0,96.06,50c.15,3.57,2.4,6.56,4.68,9.12l1.83,0c-1.77-2.53-4.35-4.93-4.31-8.26-.58-5.2,3.63-9.72,8.35-11.17,7-2.53,16.48,1,18.3,8.72,1.19,4.58-2.09,8.36-4.7,11.67a11.54,11.54,0,0,0,6.41-14.36c-1.35-4.51-5.61-7.5-10-8.63a13.6,13.6,0,0,1-2.49-1.06c-5.69-.82-11.34,1.71-15.24,5.78ZM22.29,41c.43-1.2-.58-2.54-1.83-1.67C18.36,39.93,21.16,41.68,22.29,41ZM7.45,44c1-1.24-1.31-2.15-2-1.12C4.46,44.15,6.73,45.05,7.45,44ZM108,44.37c1-1.17-1.12-2.38-1.89-1.26C105.16,44.27,107.22,45.48,108,44.37Zm-93.74,1.2c1.53-.26.47-2.26-.73-1.71C12,44.14,13.06,46.1,14.25,45.57Zm107.42,1.21c.4.1.45-.62.31-.92s-.83-1-1.16-1a1.06,1.06,0,0,0-.87.58C119.79,45.78,121.28,46.69,121.67,46.78Zm-5.16,1.73c.88-1.2-1.21-2.29-2-1.2C113.64,48.5,115.78,49.63,116.51,48.51Z"/><path class="cls-6" d="M81.62,73.58c12.43-3.42,23.15-11.25,31.93-20.51A58.8,58.8,0,0,1,104.84,85c-7.76.13-15.51-.2-23.27.08C81.55,81.25,81.54,77.42,81.62,73.58Zm-61,1.27a38.45,38.45,0,0,0,4.61,9.36c7.82.06,15.64.09,23.45.63.21-3.5.52-7,.9-10.47A65.93,65.93,0,0,1,25.08,62.55c-3.25-2.28-5.89-5.28-9.08-7.63C16.31,61.79,18.39,68.4,20.61,74.85Zm43.44,9.94,1.1.35.83-.5A47.65,47.65,0,0,0,66.69,76H64.41A36.31,36.31,0,0,0,64.05,84.79Z"/><path class="cls-7" d="M84.68,111.22c3.81-1,6.59-4,10.16-5.54a22.58,22.58,0,0,1-13.33,9.4c-5.76.15-11.64-3-17.35-.79-3.41,1.47-7.15,2.93-10.89,1.81-4.92-1.7-9-5.22-12.58-8.86,4.42,1.7,7.86,5.39,12.59,6.4,4.61,1.22,8.73-2.11,13.25-2.33C72.59,110.6,78.72,112.94,84.68,111.22Z"/></g></g></svg>