<svg xmlns="http://www.w3.org/2000/svg" viewBox="0 0 101.77 90.5"><defs><style>.cls-1{fill:#fff;}.cls-2{fill:#3ebdee;}.cls-3{fill:#ca5928;}.cls-4{fill:#161515;}.cls-5{fill:#602328;}.cls-6{fill:#f59d9f;}.cls-7{fill:#9b9d37;}</style></defs><title>Asset 9</title><g id="Layer_2" data-name="Layer 2"><g id="Layer_1-2" data-name="Layer 1"><path class="cls-1" d="M56.18,14.92c4.77-5.33,12.5-7.33,19.41-6A20.8,20.8,0,0,1,88.9,18,20.84,20.84,0,0,1,83,46c-7.26,5.12-18.24,4.54-24.7-1.58,2.09.88,4.39,1.77,6.67,1,5.61-.93,9.52-7.72,7-12.95A9.51,9.51,0,0,0,62,26.65a12,12,0,0,0-5.93,3,11.58,11.58,0,0,0-5.34-2.08C51.55,23,52.9,18.33,56.18,14.92ZM9.6,37l1.3-.24a55,55,0,0,1,33,.82c.4-3.8,1.56-8.23,5.54-9.73-.13-3.41-1.5-6.59-3-9.61.25,2.49.65,5.19-.58,7.5A9.83,9.83,0,0,1,41,30.5c-4.2,1.73-9.74.14-12-3.91C26.19,22.23,28,16,32.4,13.5c2.54-1.66,5.68-1.18,8.5-.74C32.34,6.1,18.73,8.41,12.35,17A21.56,21.56,0,0,0,9.6,37Z"/><path class="cls-2" d="M34.37,13.66c4.89-1.79,11,1.73,11.18,7.09a8.39,8.39,0,0,1-7.8,9.51c-5,.69-9.83-4-9.24-9A8.71,8.71,0,0,1,34.37,13.66ZM35,17.27c-3.32,1.36-3.58,6.2-.87,8.32C37.45,28.83,43.5,24.4,42,20.2,41.29,17.24,37.58,16,35,17.27ZM58.14,33.36a25.65,25.65,0,0,1,3.48-2.12,5,5,0,0,1,6.14,4.6c.2,2.8-2.59,4.88-5.16,5a20.26,20.26,0,0,1-3.67-1.44c.1,1.39-1.24,3.68.56,4.37A8.63,8.63,0,0,0,69.33,42c3.36-3.22,2.9-8.81-.25-12-3.31-3.43-9-2.63-12.32.32Q57.53,31.79,58.14,33.36Z"/><path class="cls-3" d="M7.65,48.57c1-.31,1.32,0,1,1C7.66,49.9,7.34,49.56,7.65,48.57ZM89.8,50.32c.31-1,0-1.32-1-1C88.47,50.29,88.81,50.62,89.8,50.32Zm-7.29,2.42c.32-1,0-1.32-1-1C81.19,52.72,81.53,53.06,82.51,52.74ZM17,55c.88-.59,0-2.17-.94-1.45S16.13,55.75,17,55Zm70.29,2.49c.32-1,0-1.33-1-1C86,57.48,86.33,57.82,87.32,57.51ZM11,59.93c.85-.58,0-2.24-.92-1.5C9.25,59,10.08,60.66,11,59.93Z"/><path class="cls-4" d="M35,17.27c2.59-1.26,6.3,0,7,2.93,1.52,4.2-4.53,8.63-7.86,5.39C31.41,23.47,31.67,18.63,35,17.27ZM38.5,41.59a4.29,4.29,0,0,0-1.56-1,33.39,33.39,0,0,0-11.23-.82,4.35,4.35,0,0,0-1.91.65C28.7,40.78,33.67,40.62,38.5,41.59ZM27,2.1c.93,0,1.86,0,2.79,0,.1,1.86,0,3.73.21,5.58a38.29,38.29,0,0,1,7.1,1.48,13.43,13.43,0,0,1,2.61-3.78c.81.21,1.59.51,2.38.79-.79,1.38-1.6,2.75-2.41,4.13A24.06,24.06,0,0,1,50.06,24c1-2.06,1.55-4.35,2.83-6.29a24.43,24.43,0,0,1,7.6-7.51c.13-1.47-1.19-2.76-1.81-4.06a3.77,3.77,0,0,1,2.51-1,13.61,13.61,0,0,1,2.16,3.56c2.05-.45,4.09-1,6.17-1.25,0-1.72-.21-3.43-.39-5.14,1,0,1.93.08,2.9.2a47.83,47.83,0,0,0,.52,4.78c1.76.28,3.5.58,5.23,1a39.39,39.39,0,0,1,2.08-3.62c.91-.65,2,.21,2.88.4-.52,1.44-1.25,2.8-1.88,4.2,3.35,2.12,6.71,4.48,8.85,7.92a22.24,22.24,0,0,1,2,19.38A21.33,21.33,0,0,1,78.54,49.28a23.22,23.22,0,0,1-20.83-3.57C56.2,49.11,55.61,53,53,55.83c2.14-6.26,5-12.62,4.37-19.41-.32-3.47-3.5-7-7.19-6.35-3.83,1.57-5.13,6.28-4.44,10.06.85,4.48,1.91,8.95,2,13.53-1.61-2.13-1.08-5.22-2.08-7.69a24.63,24.63,0,0,1-9.77,5.34,22.94,22.94,0,0,1-23.36-7.7c-1.18-1.26-3.41-.1-4.56-1.51-1.51-1.33-.47-3.46.73-4.59A21.14,21.14,0,0,1,8.87,20.8,25.75,25.75,0,0,1,17,11a39.59,39.59,0,0,1-1.38-4.9c.78-.4,1.55-.82,2.32-1.22a37.34,37.34,0,0,1,1.72,4.82,28.69,28.69,0,0,1,7.14-1.92A32.14,32.14,0,0,1,27,2.1ZM56.18,14.92c-3.28,3.41-4.63,8.07-5.49,12.6A11.58,11.58,0,0,1,56,29.6a12,12,0,0,1,5.93-3A9.51,9.51,0,0,1,72,32.45c2.48,5.23-1.43,12-7,12.95-2.28.76-4.58-.13-6.67-1C64.78,50.51,75.76,51.09,83,46A20.84,20.84,0,0,0,88.9,18,20.8,20.8,0,0,0,75.59,8.88C68.68,7.59,61,9.59,56.18,14.92ZM12.35,17A21.56,21.56,0,0,0,9.6,37l1.3-.24a55,55,0,0,1,33,.82c.4-3.8,1.56-8.23,5.54-9.73-.13-3.41-1.5-6.59-3-9.61.25,2.49.65,5.19-.58,7.5A9.83,9.83,0,0,1,41,30.5c-4.2,1.73-9.74.14-12-3.91C26.19,22.23,28,16,32.4,13.5c2.54-1.66,5.68-1.18,8.5-.74C32.34,6.1,18.73,8.41,12.35,17Zm22-3.37a8.71,8.71,0,0,0-5.86,7.65c-.59,5,4.29,9.64,9.24,9a8.39,8.39,0,0,0,7.8-9.51C45.36,15.39,39.26,11.87,34.37,13.66ZM56.76,30.27q.77,1.52,1.38,3.09a25.65,25.65,0,0,1,3.48-2.12,5,5,0,0,1,6.14,4.6c.2,2.8-2.59,4.88-5.16,5a20.26,20.26,0,0,1-3.67-1.44c.1,1.39-1.24,3.68.56,4.37A8.63,8.63,0,0,0,69.33,42c3.36-3.22,2.9-8.81-.25-12C65.77,26.52,60.12,27.32,56.76,30.27ZM9.88,38.12c-1.26.58-1.31,2.08-1.22,3.28,2.68.56,5.39,0,8.09.06-1,.51-2,.92-2.95,1.4A26.48,26.48,0,0,0,20,48.21c7.91,4.63,19.17,3.07,25.13-4-.26-1.72-.68-3.41-1.08-5.1-.08-.89-1.09-1-1.76-1.23a61.6,61.6,0,0,0-16.61-2C20.4,36.15,14.79,35.72,9.88,38.12Zm48,21.72a5.61,5.61,0,0,1,2.36,2.48c3.95-1.08,8.81-1,11.81,2.17,2.29,2.12,3.16,5.23,3.77,8.19,3.81,1.51,7.23,4.83,7.46,9.13.41,4.62-4.34,8-8.59,8C72,90,69.9,88.21,68,86.57c-2.66,1.73-5.92,1.35-8.87.79a9.22,9.22,0,0,1-2,2.51,17.93,17.93,0,0,1,1-3.11,17,17,0,0,1-5.6-6.9c1.85,1.58,3.11,3.84,5.39,4.9,2.49,1.43,6.21,2,8.47,0l-.07-.62c-2.24.2-4.71.74-6.71-.65-3.56-1.92-4.7-6.34-4-10.09.92-5.3,7.12-9.54,12.26-7.14,2.48,1,3.45,3.62,4.61,5.81l1.33.38a10.6,10.6,0,0,0-5.26-8.08c-3.78-2-8.6-.79-11.58,2.08-1.66,1.42-2.57,3.44-3.65,5.29l-.31.47c-.32-2.66,1.55-4.75,3.05-6.7A22.18,22.18,0,0,1,53,63c1.47.21,2.67,1.15,4,1.6.8-.48,1.52-1,2.27-1.59A24.55,24.55,0,0,1,57.88,59.84Zm3.71,7.54c-5.13,2-7.12,9.75-3.13,13.71,1.19-.38,1.84-1.7,2.8-2.47,1.64-1.82,4.67-1.49,6-3.67.84-1.28,2.33-1.82,3.35-2.89-.23-2-1.8-3.54-3.39-4.6A9.68,9.68,0,0,0,61.59,67.38Zm5.79,9.27a15.61,15.61,0,0,1,5,1.4c-2.33-.22-4.73-1-7-.17s-5.21,2.24-5.07,5.1c1.58-.24,3.21-1.65,4.76-.6,3.17,1.83,5.21,5.61,9.1,6.16a8.35,8.35,0,0,0,7.37-4.72c1.5-4.6-2.26-9.74-6.93-10.24A7,7,0,0,0,67.38,76.65Zm-15.65.93c0-.25-.13-.74-.17-1-1.59,0-3.18,0-4.78,0C48.2,77.71,50.07,77.35,51.73,77.58Zm-.37,2.36c-1.35.68-2.79,1.52-3.28,3C49.42,82.31,51.06,81.61,51.36,79.94Z"/><path class="cls-5" d="M61.59,67.38a9.68,9.68,0,0,1,5.64.08c1.59,1.06,3.16,2.6,3.39,4.6-1,1.07-2.51,1.61-3.35,2.89-1.34,2.18-4.37,1.85-6,3.67-1,.77-1.61,2.09-2.8,2.47C54.47,77.13,56.46,69.41,61.59,67.38Z"/><path class="cls-6" d="M67.38,76.65a7,7,0,0,1,7.18-3.07c4.67.5,8.43,5.64,6.93,10.24a8.35,8.35,0,0,1-7.37,4.72c-3.89-.55-5.93-4.33-9.1-6.16-1.55-1-3.18.36-4.76.6-.14-2.86,2.77-4.3,5.07-5.1s4.7,0,7,.17A15.61,15.61,0,0,0,67.38,76.65Z"/><path class="cls-7" d="M5.34.38c2-.68,5-.63,5.86,1.7,1.09,3.4-2,6.59-5,7.49C4.32,10,1.8,10.11.71,8.23-.56,4.87,2.35,1.53,5.34.38Zm88.55,7.8c2.82,3.66,8.76-.9,7.77-4.77-.35-2.23-3.22-2.61-4.91-1.72C94.51,2.84,92.35,5.66,93.89,8.18ZM3.73,14.4c.16-.74,1.16-1.94-.37-2.18s-4.31,3-3,3.61S2.85,15.22,3.73,14.4ZM84.18,72.74c0,1.91,1.19,4.05,3.24,4.33,5.57,1.17,10.44-4.55,10.31-9.79,0-3.17-3.67-5.15-6.48-3.94A10.25,10.25,0,0,0,84.18,72.74ZM10.61,75.17c2.14,1.42,4.85-1.7,3.85-3.85-.16-1.16-1.58-1.39-2.48-.92C10.32,71.22,9.39,73.61,10.61,75.17Zm2,12a4,4,0,0,0,4.07,3.34c4.7-.11,8.35-5.21,7.68-9.7a4.22,4.22,0,0,0-5-3.57C15.13,78.34,11.79,82.77,12.56,87.15Zm73.8.45c1.67,2.51,5.47-.14,4.71-2.69,0-1.47-1.78-1.79-2.81-1.07A4,4,0,0,0,86.36,87.6Z"/></g></g></svg>