<svg xmlns="http://www.w3.org/2000/svg" viewBox="0 0 103.79 95.98"><defs><style>.cls-1{fill:#0a1215;}.cls-2{fill:#40beee;}.cls-3{fill:#ca5928;}.cls-4{fill:#151210;}.cls-5{fill:#fff;}.cls-6{fill:#f6989b;}.cls-7{fill:#9b9d37;}</style></defs><title>Asset 8</title><g id="Layer_2" data-name="Layer 2"><g id="Layer_1-2" data-name="Layer 1"><path class="cls-1" d="M68.24,22.9C73.62,21,80.07,25,80.56,30.73A10.75,10.75,0,0,1,73.93,41.4,10.14,10.14,0,0,1,63,37.47C59.38,32.54,62.2,24.32,68.24,22.9Zm-.56,1.28a8.17,8.17,0,0,0-5.19,6.49c-.91,4.9,3.44,10.4,8.59,9.82,4.73,0,8.68-4.6,8.3-9.25a8.17,8.17,0,0,0-5.89-7.39A10.63,10.63,0,0,0,67.68,24.18Z"/><path class="cls-1" d="M30.55,23.66a9.65,9.65,0,0,1,11,4.93c2.65,4.88-.28,11.48-5.3,13.45C31.38,43.85,25.28,41,23.88,36A9.55,9.55,0,0,1,30.55,23.66Zm0,1.17a8.37,8.37,0,0,0-5.83,10c.86,5.15,7.35,8.31,11.9,5.69,5.77-2.41,6.22-11.59,1-14.86A8.43,8.43,0,0,0,30.53,24.83Z"/><path class="cls-2" d="M67.68,24.18a10.63,10.63,0,0,1,5.81-.33,8.17,8.17,0,0,1,5.89,7.39c.38,4.65-3.57,9.23-8.3,9.25-5.15.58-9.5-4.92-8.59-9.82A8.17,8.17,0,0,1,67.68,24.18Zm1.19,2.95c-4,1.42-4.06,7.88-.38,9.72,3.09,1.74,7.9,0,8.22-3.78C77.9,28.7,72.74,25.05,68.87,27.13Zm-38.34-2.3a8.43,8.43,0,0,1,7.11.87c5.18,3.27,4.73,12.45-1,14.86-4.55,2.62-11-.54-11.9-5.69A8.37,8.37,0,0,1,30.53,24.83ZM31.21,28c-3.75,1.09-5.08,6.66-1.85,9.09,3,3,9,1,9.1-3.39C39.15,29.72,34.87,26.51,31.21,28Z"/><path class="cls-3" d="M11.52,53.24c.6-.91,2.16.08,1.44,1S10.8,54.14,11.52,53.24ZM21,54.31c.32-1,0-1.32-1-1C19.61,54.29,20,54.63,21,54.31Zm63.93.47c2.15.92,2.56-1.61,1.75-1.92A1.39,1.39,0,0,0,85,53.3c-.29.32-.47,1.14-.14,1.48m9.34.18c1.12-.23.6-2-.45-1.64S93.18,55.29,94.22,55ZM17.31,60.28c.91-.61-.12-2.14-1-1.42S16.42,61,17.31,60.28Zm72,.25c1.17-.25.69-2.16-.47-1.78S88.12,60.93,89.28,60.53Z"/><path class="cls-4" d="M28.6,4.13C29.39,4.09,30.19,4,31,4c.23,1.53.41,3.07.5,4.63A39.84,39.84,0,0,1,40,11.11c1.6-.82,2.41-2.83,3.72-4.09.6.56,1.21,1.1,1.85,1.61-1,1.35-1.9,2.76-2.83,4.15a26.73,26.73,0,0,1,6.91,8.76,47.75,47.75,0,0,1,2,6.07A23.26,23.26,0,0,1,62.25,12.33a25,25,0,0,1-1.56-3.56,21.41,21.41,0,0,1,1.93-1.88c.77,1.36,1.53,2.71,2.25,4.1a26.94,26.94,0,0,1,8.6-1.79c.1-1.54.19-3.09.38-4.63l2.63.32c.13,1.5-.44,3.24.47,4.58a34.78,34.78,0,0,1,7.67,2.76,22.19,22.19,0,0,1,2.5-3.91c1.17-.39,1.74,1,2.57,1.6a48.08,48.08,0,0,0-2.47,4.14,24.57,24.57,0,0,1,7.15,11,21.78,21.78,0,0,1-5.35,21,22.16,22.16,0,0,1-15.49,6.55,23,23,0,0,1-15.25-5.89,58.48,58.48,0,0,0-3.56,10.86c-1.14-6.2,3.4-11.65,3-17.8-.37-2.91-1.12-6.23-3.74-8a4.56,4.56,0,0,0-6,1.79c-2.52,3.9-1.43,8.76-.75,13,.41,3.43,1.84,6.7,1.75,10.19-1.46-3.6-2.61-7.31-3.8-11-3.52,3-7.68,5.66-12.42,5.92-4,.21-8.1.12-11.79-1.52A22,22,0,0,1,8.07,31.85a22.43,22.43,0,0,1,9.3-19.25c-.67-1.21-1.32-2.42-1.91-3.67.72-.41,1.43-.83,2.14-1.25.63,1.21,1.23,2.42,1.84,3.64a32.93,32.93,0,0,1,9.2-2.67C28.64,7.14,28.61,5.63,28.6,4.13ZM13.93,17.31A21.18,21.18,0,0,0,10.6,38.2c1.92,4.21,4.93,8.19,9.16,10.27a22.07,22.07,0,0,0,16.65,1.65c3.38-.94,6.08-3.26,8.68-5.5a30,30,0,0,1-.49-7.92,8,8,0,0,1,6-7.57c-.71-6.94-4.73-13.61-11.06-16.79A21,21,0,0,0,13.93,17.31ZM60.74,14.8a21,21,0,0,0-8.09,14.09,8.42,8.42,0,0,1,5.09,4.16c2.33,3.8,1.7,8.43,1.18,12.63a20.7,20.7,0,0,0,31.55-3c5.69-8.15,4.39-20.49-3.23-27C80.18,9,68.28,8.76,60.74,14.8Zm7.75,22.05c3.09,1.74,7.9,0,8.22-3.78,1.19-4.37-4-8-7.84-5.94C64.87,28.55,64.81,35,68.49,36.85Zm-39.13.23c3,3,9,1,9.1-3.39.69-4-3.59-7.18-7.25-5.7C27.46,29.08,26.13,34.65,29.36,37.08ZM38,74.78c6.38.06,12.76-1,19.14-.27,2.61.29,5.25.19,7.86.44,8.18.89,16.5.82,24.52,2.82-7-.25-14-1-21-1,0,3.26-.13,6.52-.12,9.77-4.17,1-8.48,0-12.73.33a68.79,68.79,0,0,1,.12-10.15l-2.23-.13c.06,3.45,0,6.89.12,10.33-4,1.19-8.23.28-12.32.14a92.83,92.83,0,0,1,.72-10.54c-7.85-.13-15.66.76-23.48,1.3C24.87,75.86,31.45,75.21,38,74.78Zm5.22,1.67a82.61,82.61,0,0,0-.59,9.29c3.3.05,6.6.08,9.89.16,0-3.14,0-6.3,0-9.45C49.36,76.28,46.27,76.46,43.18,76.45Zm13.71.16c-.06,2.84-.18,5.69-.13,8.54,3.5.28,7-.11,10.53.12.1-2.86.1-5.73,0-8.6C63.84,76.46,60.37,76.89,56.89,76.61Z"/><path class="cls-5" d="M13.93,17.31a21,21,0,0,1,25.57-5c6.33,3.18,10.35,9.85,11.06,16.79a8,8,0,0,0-6,7.57,30,30,0,0,0,.49,7.92c-2.6,2.24-5.3,4.56-8.68,5.5a22.07,22.07,0,0,1-16.65-1.65c-4.23-2.08-7.24-6.06-9.16-10.27A21.18,21.18,0,0,1,13.93,17.31Zm16.62,6.35A9.55,9.55,0,0,0,23.88,36c1.4,5.08,7.5,7.89,12.35,6.08,5-2,8-8.57,5.3-13.45A9.65,9.65,0,0,0,30.55,23.66ZM60.74,14.8c7.54-6,19.44-5.77,26.5.92,7.62,6.51,8.92,18.85,3.23,27a20.7,20.7,0,0,1-31.55,3c.52-4.2,1.15-8.83-1.18-12.63a8.42,8.42,0,0,0-5.09-4.16A21,21,0,0,1,60.74,14.8Zm7.5,8.1c-6,1.42-8.86,9.64-5.21,14.57a10.14,10.14,0,0,0,10.9,3.93,10.75,10.75,0,0,0,6.63-10.67C80.07,25,73.62,21,68.24,22.9ZM42.59,85.74c3.3.05,6.6.08,9.89.16,0-3.14,0-6.3,0-9.45-3.09-.17-6.18,0-9.27,0A82.61,82.61,0,0,0,42.59,85.74Zm14.17-.59c3.5.28,7-.11,10.53.12.1-2.86.1-5.73,0-8.6-3.48-.21-6.95.22-10.43-.06C56.83,79.45,56.71,82.3,56.76,85.15Z"/><path class="cls-6" d="M35.12,88.64c3.44,1.09,6.83,2.59,10.49,2.76,3.06.19,6-.86,9.06-.87,3.27-.06,6.45.9,9.72.9a39.68,39.68,0,0,0,7.43-1c-1.49,1.2-3,2.61-5,2.79-4.48.54-8.89-1.15-13.38-.7-3.66.32-7.43,1.36-11.06.27A18.14,18.14,0,0,1,35.12,88.64Z"/><path class="cls-7" d="M4.45.48A3.16,3.16,0,0,1,9,2c1.27,3.07,0,7.16-3,8.67A3.25,3.25,0,0,1,1.67,9.37,7.21,7.21,0,0,1,4.45.48Zm93,9.34c3.45,2.46,8-3.13,5.79-6.35a3,3,0,0,0-3.78-.56C97.15,4.22,95.86,7.55,97.41,9.82Zm-97,8.79c.89.76,2-.56,2.69-1.26.72-.94,1.78-2.63,1.08-3.27s-2.22,0-2.85.94C.39,16-.53,17.85.36,18.61ZM88.28,87.14a4,4,0,0,0,4.11,3.53c5.15,0,10.13-5.43,8.55-10.61-.75-2.73-4.19-3-6.46-2.23C90.76,79.18,87.66,83,88.28,87.14Zm-73.7,7.29c.92,1.79,3.4,1.91,5,.95,3.08-1.76,4.14-5.87,3.25-9.14a3.52,3.52,0,0,0-4.4-2.3C14.35,85.36,12.66,90.74,14.58,94.43ZM10.83,82.76a1.94,1.94,0,0,0,1.52-2.48c-.71-.58-1.75-1.5-2.51-.81S9.09,83,10.83,82.76ZM83.4,93.84c.87-.22,3.54-3.68,3-4.28S82.24,91.48,82,92.64,82.54,94.06,83.4,93.84Z"/></g></g></svg>