<svg xmlns="http://www.w3.org/2000/svg" viewBox="0 0 112.95 105.2"><defs><style>.cls-1{fill:#9d9e36;}.cls-2{fill:#191614;}.cls-3{fill:#fff;}.cls-4{fill:#41bbec;}.cls-5{fill:#cb5928;}</style></defs><title>Asset 13</title><g id="Layer_2" data-name="Layer 2"><g id="Layer_1-2" data-name="Layer 1"><path class="cls-1" d="M4.91.3C9-1.26,11.79,3.62,11.57,7.12c.13,3.3-2.29,7.83-6.18,6.65C.38,11.53,0,2.78,4.91.3ZM111.83,9.47c2.9-2.63-.31-8.55-4.1-7.12C104.15,4.65,108,11.43,111.83,9.47ZM2.83,21.86c1.49-1.36,1.2-5.78-1.5-5.07C-1.1,17.6,0,23.21,2.83,21.86ZM96.17,85.5c-.21,2.19.25,4.9,2.4,6,6.64,2.32,14.14-4.17,13.09-11,.16-4.12-5.1-5.74-8.25-4.09C99.71,78,96.59,81.38,96.17,85.5ZM15.1,91.11c2.3-1.63-.68-6.1-3-3.87C10.41,88.82,13.09,92.74,15.1,91.11Zm1.64,7.42c.52,3.24,3.09,6.57,6.59,6.67,2.91,0,3.87-3.55,3.14-5.88-.6-3.45-4.18-6.87-7.82-5.48A4.3,4.3,0,0,0,16.74,98.53Zm73.39-.13c1.74,3,6.34.08,5.75-2.81a2.12,2.12,0,0,0-3.33-2A4.6,4.6,0,0,0,90.13,98.4Z"/><path class="cls-2" d="M86.17,7.61a25,25,0,0,1,1.19-4.07C86.85,8.91,89.82,14,94,17.17c3.16,2.29,6.94,3.46,10.62,4.61l-1.75.92c-7-1.61-14.27-5.84-16.15-13.24a22.68,22.68,0,0,0-13.89,2A23,23,0,0,0,60.56,30a10.6,10.6,0,0,1,8.35,5.07c.81-.27,1.62-.55,2.44-.8-.32-3.54.37-7.42,3-10,3.6-4,10.39-4.09,14.29-.48A10.65,10.65,0,0,1,92.16,32c4.91.38,9.83.69,14.7,1.51a65.79,65.79,0,0,0-1.49-11.26,23.71,23.71,0,0,1,5.71-.12c-.7,1.81-2.84.83-4.27,1.07a24.56,24.56,0,0,1,1.37,10.31c1.68,1.18,3.22,3,2.68,5.25-.26,2.36-3.2,2.72-5,2-3,5.62-7.53,10.6-13.49,13.07-7.87,3.35-17.36,1.68-24-3.55C66.5,54,65,57.92,62.3,61.15c2.12-6.44,6.31-12.44,6.06-19.48.16-3.65-1.22-7.93-4.9-9.39-3.92-1.34-8.25,1.93-8.93,5.82-1.11,5.14,1.24,10.07,2.27,15,.17,1.52.61,3.44-.72,4.54a50.36,50.36,0,0,0-1.82-9.43c-5.21,5.06-12.33,8.65-19.75,8,.1-.31.29-.94.39-1.24,7.14.33,13.81-3.33,18.44-8.58A23.86,23.86,0,0,1,53.4,35.6C40.72,31,26.31,32,14.1,37.6l-.06,0-2.57-.18c.27-4.3-.34-8.74,1.36-12.84a31.68,31.68,0,0,1-4.57.1C15.87,23,23.39,19.09,27.63,12.29c1.61-2.2,2.14-4.89,3.1-7.37a14.41,14.41,0,0,1,.22,4,23.82,23.82,0,0,1,13.86,1.22A23.53,23.53,0,0,1,59.24,28c1.32-3.78,2.27-7.82,4.9-11A25.34,25.34,0,0,1,86.17,7.61ZM30.31,10.42c-2.48,7-8.89,12-16,13.7a23.11,23.11,0,0,0-1.2,12.32C17.81,34.08,23,33,28.1,32c.54-3.72,2.46-7.44,5.9-9.24,2.41-1.12,5.21-2,7.86-1.18a10.45,10.45,0,0,1,7.76,11.49c1.35.59,2.69,1.23,4,1.92a22.89,22.89,0,0,1,4.7-4.36,25.47,25.47,0,0,0-2.61-8.56C51.24,13,40.08,8.21,30.31,10.42Zm7.94,11.51c-4.47,1.14-8.92,4.84-8.21,9.91l3.64-.7c.46-2.44,2-4.83,4.7-5.12,3.31-.68,6.12,2.62,5.64,5.79,1.58.42,3.18.79,4.76,1.16,0-1.44,0-2.87,0-4.3A11.57,11.57,0,0,0,38.25,21.93Zm39.71.9c-3.31,1.33-5.06,4.63-6,7.89.22,1.1.48,2.19.71,3.3l3.52-.8c-.14-1.43-.53-3,.45-4.29,1.59-2.35,4.86-2.6,7.35-1.83a4.58,4.58,0,0,1,2.45,4.81c1.61,0,3.22,0,4.83.08-.07-1.1-.12-2.22-.17-3.33C89.14,23.69,83,20.32,78,22.83Zm-8.58,13.4a25.8,25.8,0,0,1-.7,12.43c10.83,9.53,30.43,5.4,35.58-8.4-1.24-.47-2.44-1-3.65-1.54,2.73.33,5.47,1,8.23.6,1.82-1.35.18-4.06-1.74-4.41A78.83,78.83,0,0,0,69.38,36.23ZM44.09,38.17c-3.16-2.74-7.54-2.11-11.37-1.78-2.29.36-5,.31-6.57,2.26C32.07,37.54,38.13,37,44.09,38.17Zm45.37-.07c-.87-1.6-2.92-1.28-4.46-1.5-3,.12-6.23.26-8.85,1.9C80.58,38.33,85,38,89.46,38.1ZM12.54,52c2-3.38,7.35-1.84,8.7,1.38a22.2,22.2,0,0,0-4.13-1.71,22.89,22.89,0,0,0,2.65,15c4.07,6.94,11.69,12.55,20.09,11.61-2.28,2-5.44,1.16-8.06.45a79.91,79.91,0,0,0-4.91,9c-3.48-2.55-6.3-5.84-9.46-8.77.93-2.87,5.22-3.8,4.83-7.06A73.69,73.69,0,0,0,15.48,77a88.06,88.06,0,0,1-8.27-8.46c-.94-.9.46-1.74,1-2.36,2.09-2.09,4.88-3.24,7.13-5.06-.12-3.14-.54-6.27-.09-9.4ZM8.48,67.13c2.45,2.65,5,5.23,7.34,7.94,1.6-1.39,3.25-2.73,4.92-4.06a35,35,0,0,1-4.57-8.65C13.56,63.88,11,65.43,8.48,67.13Zm11,11.07c2.4,2.24,4.63,4.64,6.83,7.06,1.5-2.26,2.64-4.73,4.12-7a22.88,22.88,0,0,1-6.57-4.14A54.62,54.62,0,0,0,19.5,78.2Z"/><path class="cls-3" d="M72.82,11.43a22.68,22.68,0,0,1,13.89-2c1.88,7.4,9.17,11.63,16.15,13.24l1.75-.92.76.46a65.79,65.79,0,0,1,1.49,11.26c-4.87-.82-9.79-1.13-14.7-1.51a10.65,10.65,0,0,0-3.54-8.16c-3.9-3.61-10.69-3.51-14.29.48-2.61,2.58-3.3,6.46-3,10-.82.25-1.63.53-2.44.8A10.6,10.6,0,0,0,60.56,30,23,23,0,0,1,72.82,11.43ZM14.31,24.12a23.11,23.11,0,0,0-1.2,12.32C17.81,34.08,23,33,28.1,32c.54-3.72,2.46-7.44,5.9-9.24,2.41-1.12,5.21-2,7.86-1.18a10.45,10.45,0,0,1,7.76,11.49c1.35.59,2.69,1.23,4,1.92a22.89,22.89,0,0,1,4.7-4.36,25.47,25.47,0,0,0-2.61-8.56C51.24,13,40.08,8.21,30.31,10.42,27.83,17.41,21.42,22.42,14.31,24.12Zm1.51,50.95c1.6-1.39,3.25-2.73,4.92-4.06a35,35,0,0,1-4.57-8.65c-2.61,1.52-5.2,3.07-7.69,4.77C10.93,69.78,13.45,72.36,15.82,75.07ZM26.33,85.26c1.5-2.26,2.64-4.73,4.12-7a22.88,22.88,0,0,1-6.57-4.14A54.62,54.62,0,0,0,19.5,78.2C21.9,80.44,24.13,82.84,26.33,85.26Z"/><path class="cls-4" d="M38.25,21.93a11.57,11.57,0,0,1,10.53,6.74c0,1.43,0,2.86,0,4.3-1.58-.37-3.18-.74-4.76-1.16.48-3.17-2.33-6.47-5.64-5.79-2.65.29-4.24,2.68-4.7,5.12l-3.64.7C29.33,26.77,33.78,23.07,38.25,21.93ZM72,30.72c.22,1.1.48,2.19.71,3.3l3.52-.8c-.14-1.43-.53-3,.45-4.29,1.59-2.35,4.86-2.6,7.35-1.83a4.58,4.58,0,0,1,2.45,4.81c1.61,0,3.22,0,4.83.08-.07-1.1-.12-2.22-.17-3.33-2-5-8.09-8.34-13.17-5.83C74.65,24.16,72.9,27.46,72,30.72Z"/><path class="cls-5" d="M14,37.62l.06,0c6.48.58,13.08,3,17.42,8,2,2.67,4,5.88,3.38,9.39-.1.3-.29.93-.39,1.24-1.21,2.64-3.86,4.88-6.91,4.67,2.58-1.56,5.72-3.61,5.64-7C32.46,48.36,28,44,23,42c-4.78-1.8-10.18-3-15.18-1.37-2,.83-4.6,2-4.79,4.51.14,1.53.52,3,.81,4.52-.92-1.08-2-2.19-2.16-3.68A7.57,7.57,0,0,1,6.7,38.71c2.2-.86,4.6-.57,6.89-.94Zm.61,5.22c1.09-.76-.31-2.43-1.3-1.66S13.66,43.59,14.65,42.84Zm6,6.46c1.23-.47.52-2.67-.73-2.21S19.32,49.81,20.67,49.3Zm6.87-.81c.41-1.16,0-1.56-1.17-1.21C26,48.44,26.35,48.84,27.54,48.49ZM103,56.57a1,1,0,1,0-1.57-1.08C100.49,56.54,102.28,57.78,103,56.57Zm-10,2.07c1.17-.21.71-2.2-.46-1.79A.92.92,0,0,0,92.92,58.64Zm5.85,5c.86-1.11-1.1-2.17-1.76-1.07S98.1,64.74,98.77,63.69Z"/></g></g></svg>