<svg xmlns="http://www.w3.org/2000/svg" viewBox="0 0 104.87 72.8"><defs><style>.cls-1{fill:#44baeb;}.cls-2{fill:#3ebdee;}.cls-3{fill:#ca5928;}.cls-4{fill:#171516;}.cls-5{fill:#fffcfc;}.cls-6{fill:#f58f99;}.cls-7{fill:#9e9d36;}</style></defs><title>Asset 3</title><g id="Layer_2" data-name="Layer 2"><g id="Layer_1-2" data-name="Layer 1"><path class="cls-1" d="M35.42,19.52c4.79-1.05,9.21,4.68,6.76,9-1.75,4.29-8.11,5-10.88,1.39C28.09,26.35,30.73,20,35.42,19.52Zm-.59,2.88a3.5,3.5,0,0,0-2.33,3.77c.19,3.38,5.66,4.77,7.18,1.58C41.55,24.8,38,20.61,34.83,22.4Z"/><path class="cls-2" d="M65.43,19.53c4.32-1,8.69,3.42,7.54,7.74C72.09,32,65.36,34,62.08,30.39,58.44,27.06,60.54,20.23,65.43,19.53Zm-.1,2.79a3.85,3.85,0,0,0-1.67,5.89c1.62,2.2,5.67,1.63,6.55-1C71.49,24.33,68.25,21.06,65.33,22.32Z"/><path class="cls-3" d="M70.32,35.29C72.84,30.56,78.45,29,83.47,29l1.16.28c1.05.25,2.1.53,3.12.87a7.56,7.56,0,0,1,5,6.81c-.62,2-1.38,4.18-3.46,5.17.78-2.24,2.36-4.64,1.57-7.12s-3.5-3.91-6-4.43c-3.76-.68-8,0-10.9,2.64-1.58,1.37-3,3.4-2.6,5.59a23,23,0,0,0,2.43,4.25,17.5,17.5,0,0,1-2.45-1.91c-1.23-1.55-1.29-3.54-1.38-5.43l-.66-.46Zm-52-5.6c-.6.35-1.21.7-1.8,1.07A6.47,6.47,0,0,0,12.81,37a6.47,6.47,0,0,0,4.9,4.86,37,37,0,0,1-3.13-3.26,4.3,4.3,0,0,1,.59-5.35A11.62,11.62,0,0,1,27,30.91a5.55,5.55,0,0,1,3.67,3.85C31.37,37,30,39,29.05,40.91c2.41-1.11,2.9-3.84,3-6.21-.57-1.94-1.54-4-3.45-4.92-3-1.56-6.43-.91-9.59-.48Zm59.42,3.69c.27-.8,0-1.08-.82-.82C76.67,33.36,77,33.63,77.76,33.38Zm-59.4.86c.32-.94,0-1.26-.94-1C17.1,34.2,17.41,34.52,18.36,34.24Zm7.58-.36c.21-.82-.09-1.08-.88-.77C24.86,33.93,25.15,34.19,25.94,33.88Zm61.5.59c.84-.51-.08-1.83-.84-1.21S86.67,35.09,87.44,34.47ZM23.5,35.81c.31-.93,0-1.26-.95-1C22.23,35.77,22.55,36.1,23.5,35.81Zm59.85.39c.26-.82,0-1.09-.83-.83C82.26,36.19,82.54,36.46,83.35,36.2Z"/><path class="cls-4" d="M67.17,5.7c.06-1,.11-1.94.17-2.91l2.38.07c-.08,1-.16,2-.25,2.93A48.29,48.29,0,0,0,78.3,6c2.58.44,5.22.3,7.84.49,1.7.1,3.4.16,5.11.17,3.59-.11,7.18.17,10.76,0a6.32,6.32,0,0,1,2.52.28c.79,2.74.24,6.1-2.13,7.9-1.67.49-3.4.73-5,1.35-1.58,6.89-2.26,14-4.62,20.71a7.56,7.56,0,0,0-5-6.81,81.84,81.84,0,0,0,4.16-16.09c-3.55-.86-7.21-.83-10.83-1a18.84,18.84,0,0,1,3.55,16.26L83.47,29c1.5-5.51.23-12-4-16-7.09-.75-14.32-1.6-21.42-.47a27.7,27.7,0,0,0,1.33,12.22c.69-5.32,7.8-8.29,11.88-4.66,3.44,2.54,3.88,8.1.58,10.94-2.85,3-7.66,2.55-10.64,0a25.66,25.66,0,0,0,1.44,3.31,25.87,25.87,0,0,0,6.73.91l.66.46c.09,1.89.15,3.88,1.38,5.43-5.4,1.3-11-.68-15.19-4.15a18.91,18.91,0,0,1-2.92,5.06c2.13-4.8,4.1-10,3.48-15.33-.07-3-4.08-5.31-6.6-3.43-2.08,1.54-2.59,4.39-2.22,6.81.25,3.46,1.67,6.78,1.38,10.28-.08-.24-.27-.74-.36-1-.4-1.32-.77-2.65-1.14-4-.61.69-1.21,1.4-1.82,2.09-1.31,1.76-3.63,2-5.52,2.77A28.1,28.1,0,0,1,28.35,41.4l.7-.49c2.41-1.11,2.9-3.84,3-6.21a38.68,38.68,0,0,0,9.48-.87,44.84,44.84,0,0,1,1.51-4.64c-1.25,1.73-2.84,3.39-5,3.82-4.88,1.44-10.21-3.61-8.83-8.57.64-4.66,6.41-7.43,10.48-5.14,2.71,1.24,3.92,4.16,4.21,7a97.91,97.91,0,0,0,2.78-13c-.9-.83-1.89-1.69-3.21-1.57a179.78,179.78,0,0,0-18.42-.27,16.14,16.14,0,0,0-6.6,11.86,25.62,25.62,0,0,0,.58,6l-.71.39c-2.5-6.59.4-13.9,5.33-18.53-3.94.27-7.88.49-11.79,1.05a34,34,0,0,0,.26,4.28,19,19,0,0,0,.5,2.21,108.64,108.64,0,0,0,3.9,12.06A6.47,6.47,0,0,0,12.81,37c-2.18-2.45-2.55-5.78-3.52-8.78-1.3-4.36-1.71-9.09-4.15-13-.85-1.48-2.78-1.45-4.26-1.65A12.7,12.7,0,0,1,.36,5.78c4-.12,7.93-.17,11.9-.3q3.95-.18,7.89-.23c4.38-.1,8.75,0,13.12,0,.09-.43.26-1.29.35-1.71.74,0,1.49,0,2.23-.06,0,.44,0,1.32,0,1.76q5.72,0,11.44.06c1.93-.08,3.13,1.68,4.6,2.65,1.46-1,2.79-2.21,4.51-2.67C60,5,63.57,5.89,67.17,5.7ZM3.47,9.39c-.11.45-.35,1.07.29,1.22a33.55,33.55,0,0,0,4,.07c0-.64,0-1.28,0-1.92C6.33,8.84,4.76,8.63,3.47,9.39Zm92-.11c-.07.6-.14,1.2-.2,1.81,1.62.2,5,.44,5-.74C100.24,8.8,97.07,9.17,95.49,9.28ZM35.42,19.52c-4.69.52-7.33,6.83-4.12,10.4,2.77,3.63,9.13,2.9,10.88-1.39C44.63,24.2,40.21,18.47,35.42,19.52Zm30,0c-4.89.7-7,7.53-3.35,10.86C65.36,34,72.09,32,73,27.27,74.12,23,69.75,18.51,65.43,19.53ZM51.93,21.1l1.49.08-.72-1.54C52.42,20.12,52.17,20.61,51.93,21.1ZM32.5,26.17c.19,3.38,5.66,4.77,7.18,1.58,1.87-2.95-1.65-7.14-4.85-5.35A3.5,3.5,0,0,0,32.5,26.17Zm31.16,2c1.62,2.2,5.67,1.63,6.55-1,1.28-2.86-2-6.13-4.88-4.87A3.85,3.85,0,0,0,63.66,28.21ZM19.58,40c.37-2.72,4.16-3.3,5.89-1.49-1,.05-2,.08-3,.12C23.82,44.3,28.44,48.45,33.42,51c9.46,4.94,20.91,5.24,31,2,7.34-2.46,14.46-7.27,17.35-14.74l-3.39.57c1.53-2.38,5.94-2.13,6.91.69-.88-.35-1.73-.73-2.59-1.11-3.37,9-12.39,14.18-21.16,16.78,0,.43,0,1.29,0,1.71-.06,2.43,0,4.86,0,7.28h-1a57.84,57.84,0,0,1-8.1-.67,59.73,59.73,0,0,1,0-7.08l-1,.23c0,2.33,0,4.66,0,7v.45c-3.18-.12-6.37,0-9.54-.28a68.3,68.3,0,0,1,.17-8.34c-6.4-1.93-13-4.74-17.11-10.26a20.78,20.78,0,0,1-3.25-6.46C20.9,39.18,20.24,39.62,19.58,40ZM53.33,56.32q-.15,3.12,0,6.24c2.4,0,4.79.17,7.18.32a70.63,70.63,0,0,1,0-7.7A65,65,0,0,1,53.33,56.32Zm-10.41-.75c-.12,2.34-.07,4.69-.07,7,2.49.06,5,.14,7.47.12.09-2.12,0-4.25,0-6.37A56.74,56.74,0,0,1,42.92,55.57Z"/><path class="cls-5" d="M51.93,21.1c-.25-.27.06-1.51.77-1.46s1.11,1.14.72,1.54A1.24,1.24,0,0,1,51.93,21.1ZM3.76,10.61a33.55,33.55,0,0,0,4,.07c0-.64,0-1.28,0-1.92-1.45.08-3-.13-4.31.63C3.36,9.84,3.12,10.46,3.76,10.61ZM95.49,9.28c1.58-.11,1.73.42,3.31.5,0,.66-.18.1-.2.76-1.63.12-1.69.75-3.31.55C95.35,10.48,95.42,9.88,95.49,9.28ZM25.07,11.4a179.78,179.78,0,0,1,18.42.27c1.32-.12,2.31.74,3.21,1.57a97.91,97.91,0,0,1-2.78,13c-.29-2.8-1.5-5.72-4.21-7-4.07-2.29-9.84.48-10.48,5.14-1.38,5,3.95,10,8.83,8.57,2.18-.43,3.77-2.09,5-3.82a44.84,44.84,0,0,0-1.51,4.64,38.68,38.68,0,0,1-9.48.87c-.57-1.94-1.54-4-3.45-4.92-3-1.56-6.43-.91-9.59-.48a25.62,25.62,0,0,1-.58-6A16.14,16.14,0,0,1,25.07,11.4Zm33,1.14c7.1-1.13,14.33-.28,21.42.47,4.26,4,5.53,10.47,4,16-5,0-10.63,1.57-13.15,6.3l-1,0a25.87,25.87,0,0,1-6.73-.91A25.66,25.66,0,0,1,61.17,31c3,2.56,7.79,3,10.64,0,3.3-2.84,2.86-8.4-.58-10.94-4.08-3.63-11.19-.66-11.88,4.66A27.7,27.7,0,0,1,58,12.54ZM53.33,56.32a65,65,0,0,0,7.16-1.14,70.63,70.63,0,0,0,0,7.7c-2.39-.15-4.78-.33-7.18-.32Q53.18,59.44,53.33,56.32Zm-10.41-.75a56.74,56.74,0,0,0,7.35.79c0,2.12.14,4.25,0,6.37-2.49,0-5-.06-7.47-.12C42.85,60.26,42.8,57.91,42.92,55.57Z"/><path class="cls-6" d="M35.33,64.19c2.78,2.33,6,4.42,9.67,4.87,3.18.21,6-2.16,9.2-1.53,2.77.21,5.64,1.51,8.38.42a13.61,13.61,0,0,0,4.66-3.09c0,.34,0,1,0,1.37-1.84,1.38-3.7,3-6,3.4-2.95.3-5.71-1.27-8.66-1.15C50.08,68.57,48,70,45.56,70.2A13.79,13.79,0,0,1,35.33,64.19Z"/><path class="cls-7" d="M14.46.36c1.35-.61,3.28-.51,4.17.83.65.93,1.62,1.75.56,3.21s-6.91,2.56-7.9.23S12.81,1.23,14.46.36Zm71.79,5.7c1,1.07,4,1.13,5.11.17a2.35,2.35,0,0,0,.22-3.41,2.34,2.34,0,0,0-3.49-.42C86.74,3.12,85.24,5,86.25,6.06Zm-73,11.53a2.23,2.23,0,0,0,2.67-1.83c.33-1.26-.43-3.36-2-3-1.85,0-1.63,1.93-1.57,2.85C12.35,16.32,12.35,17.37,13.22,17.59ZM77.8,64.21c4,2.39,9-2.25,9-6.39-.06-2.59-3-4-5.23-3C78,56,75,61,77.8,64.21Zm-56.41-.34c2.93-1.14,2.44-7.34,0-7s-2.81,1.67-2.84,3.36C18.16,61.91,19.25,64.46,21.39,63.87Zm3.16,8.63c3.47,1.48,6.6-2.85,6.05-6-.17-2.08-2.52-3.76-4.49-2.69C23.07,65.23,21.6,70.3,24.55,72.5ZM74,70.37c.52.95,1.93.73,2.67.15,1.08-.64,2-2.15,1.66-3.07s-1.73-.89-2.7-.87C74.46,67.31,73.09,68.93,74,70.37Z"/></g></g></svg>