<svg xmlns="http://www.w3.org/2000/svg" viewBox="0 0 116.12 102.68"><defs><style>.cls-1{fill:#161514;}.cls-2{fill:#161515;}.cls-3{fill:#3fbeee;}.cls-4{fill:#ca5928;}.cls-5{fill:#16110e;}.cls-6{fill:#fff;}.cls-7{fill:#eb9e9e;}.cls-8{fill:#9d9e36;}</style></defs><title>Asset 14</title><g id="Layer_2" data-name="Layer 2"><g id="Layer_1-2" data-name="Layer 1"><path class="cls-1" d="M64.65,35.25c13.15-.73,26.44-1.16,39.46,1.09l-.17.88c-4.51-.49-9-.74-13.58-1-.61,3.66-2.58,7.25-6.06,8.86a10.22,10.22,0,0,1-13-2.79,13.8,13.8,0,0,1-2.45-6.11c-1.3-.11-2.6-.24-3.89-.38Zm5.58.77c-.4,5.55,5.27,10,10.58,9.12,4.53-.4,8-4.57,8.23-9l-2.84-.43c-1.09,2.59-2.65,6-6,5.58-3.23.12-5.19-2.7-6.08-5.43C72.79,35.94,71.5,36,70.23,36Z"/><path class="cls-2" d="M17.34,35.66c10.38-.79,20.83-1.73,31.23-.78a21.07,21.07,0,0,1,2.41.88c-1.29,0-2.59,0-3.88,0-.72,2.49-1.54,5.1-3.46,6.94-3.2,3.05-8.38,4.22-12.32,1.92C28,43,26.27,39.47,25.43,36c-2.8,0-5.59.26-8.39.31Zm24.69,0c-.48,1.48-.72,3.15-1.85,4.31A5.8,5.8,0,0,1,34,41.23C31.84,40.32,31,38,30.17,36l-3.39.12A11.29,11.29,0,0,0,29,41.51c3.18,4.07,9.86,4.32,13.6.87,1.92-1.61,2.75-4.07,3.31-6.43A23.83,23.83,0,0,0,42,35.64Z"/><path class="cls-3" d="M42,35.64a23.83,23.83,0,0,1,3.86.31c-.56,2.36-1.39,4.82-3.31,6.43-3.74,3.45-10.42,3.2-13.6-.87a11.29,11.29,0,0,1-2.2-5.44L30.17,36c.79,2,1.67,4.37,3.84,5.28A5.8,5.8,0,0,0,40.18,40C41.31,38.79,41.55,37.12,42,35.64Zm38.78,9.5c4.53-.4,8-4.57,8.23-9l-2.84-.43c-1.09,2.59-2.65,6-6,5.58-3.23.12-5.19-2.7-6.08-5.43-1.29.06-2.58.09-3.85.14C69.83,41.57,75.5,46,80.81,45.14Z"/><path class="cls-4" d="M11.38,56.73c.65-.85,2.22.18,1.54,1.08S10.71,57.63,11.38,56.73Zm92.74,2c1.07,0,1.27-1.84.12-1.85S103,58.73,104.12,58.74Zm-80.39,2.7c.7-.92-.9-1.89-1.53-1S23.1,62.31,23.73,61.44Zm69.18.61c.78-1-.94-2.14-1.63-1.14S92.21,63,92.91,62.05Zm6.86,4c1-.67-.1-2.44-1.12-1.67S98.76,66.77,99.77,66Zm-83.33.73c1.13-.24.62-2.06-.46-1.71S15.37,67.05,16.44,66.73Z"/><path class="cls-5" d="M48.59,4.09c3.52.85,6.72,3.66,7.15,7.39.18,1.91.48,4.18-1,5.71-.18-2.76,0-5.71-1.58-8.13C52.22,6.91,49.77,6.06,48.59,4.09Zm-39.5,26c-1.73.77-4.08,1.7-3.82,4-.26,2.34,2.15,3.25,4,3.81A23.88,23.88,0,0,0,23.66,55.68c4.36,1.79,9.2,1.8,13.82,1.31,5.25-.77,9.62-4,13.43-7.5,1.13,2.22,1.36,5,3.25,6.76-1-5.75-3.82-11.54-2.09-17.44.65-3,3.46-5.72,6.69-5.13a9.22,9.22,0,0,1,5.83,8.6c.56,6-2.2,11.45-3.56,17.1,1.58-2.43,2.5-5.19,3.88-7.72,7.73,7.93,21.06,9,30.13,2.76,5.67-3.54,9.19-9.7,10.52-16.15,2.16-.23,5-.92,5.21-3.56s-3-3.6-5-4.34A25.5,25.5,0,0,0,100.79,19a24.11,24.11,0,0,0-22-8.71c-10.19,1.24-19,9.83-20.38,20-.1,1.59-1.77.31-1.81-.58-.84-3.62-1.9-7.25-4.14-10.28C45.2,8.5,28.25,6.36,18.22,14.59,13.24,18.29,10.34,24.1,9.09,30.06ZM30.36,11.25A22.25,22.25,0,0,1,51,20.13a23.18,23.18,0,0,1,3.9,9.48c-1.86.07-3.72.06-5.58.08l.46.65c2.15.55,4.39.52,6.54,1.09-1.63,1.24-3.37,2.33-4.89,3.72l-2.89-.27a21.07,21.07,0,0,1,2.41.88c-1.76,4-1.06,8.26-.58,12.38a23.91,23.91,0,0,1-13.34,7.92,23.15,23.15,0,0,1-19.39-5.32A22.59,22.59,0,0,1,10.2,37.48,22.39,22.39,0,0,1,17,36.34l.3-.68c-2.78.05-5.55.3-8.31.6-1.83,0-1.91-2-2-3.31,3.39-2,7.41-2.09,11.06-3.33l.41-.75a62.27,62.27,0,0,0-7.81,1.26C11.5,20.16,20.59,12.09,30.36,11.25Zm55.14.39c9.3,1.29,17.33,9.09,18.61,18.44-1.2.06-2.39.15-3.58.22l.52.71c2.38.4,5.06.2,7.08,1.77,1.16.73.5,2.15.54,3.25a7.41,7.41,0,0,1-4.56.31l-.17.88.66.09a24.43,24.43,0,0,1-11.19,17c-8.77,5.51-21.2,3.59-28.25-3.89,1.6-4.77,1.06-9.81-.16-14.59l-.35-.55c-1.91-.87-3.36-2.73-5.2-3.85,1.85-.68,4-.56,5.7-1.68-1.73-.12-3.46,0-5.19,0C61.77,18,74,9.61,85.5,11.64ZM37.17,28.91c-4-.17-8-.17-12-.13C28.79,31,33.42,30.32,37.17,28.91Zm39.32,2c3,.62,6,.27,9,0a4.12,4.12,0,0,0,2.31-1.18c-4,.63-8,.35-11.94.39ZM40.25,85.35c1.54-.25,3-.72,4.54-1.1,0,2-.09,4.07-.13,6.11,4.65-.15,9.31.17,14-.23.1-3.29.21-6.58.62-9.84l1.83-.22c.11,3.33-.25,6.64-.28,10,4.37,0,8.75.26,13.12.09.48-3.59.13-7.24.6-10.83,1.91-.17,3.84-.26,5.75-.44-11.51-2.36-23.52-.48-34.39,3.73A23.79,23.79,0,0,0,40.25,85.35ZM72.92,79c.16,3.19,0,6.38-.07,9.56-3.56-.15-7.13,0-10.68-.19.11-2.89.22-5.8.54-8.68C66.12,79.48,69.5,78.94,72.92,79ZM57.5,80.62c0,2.78,0,5.55,0,8.33-3.89-.14-7.79-.4-11.68-.31,0-1.73.18-3.45.3-5.17A96.93,96.93,0,0,1,57.5,80.62Z"/><path class="cls-6" d="M10.2,37.48A22.39,22.39,0,0,1,17,36.34c2.8-.05,5.59-.31,8.39-.31.84,3.44,2.56,7,5.89,8.61,3.94,2.3,9.12,1.13,12.32-1.92,1.92-1.84,2.74-4.45,3.46-6.94,1.29,0,2.59,0,3.88,0-1.76,4-1.06,8.26-.58,12.38a23.91,23.91,0,0,1-13.34,7.92,23.15,23.15,0,0,1-19.39-5.32A22.59,22.59,0,0,1,10.2,37.48Zm55,12.91c7,7.48,19.48,9.4,28.25,3.89a24.43,24.43,0,0,0,11.19-17l-.66-.09c-4.51-.49-9-.74-13.58-1-.61,3.66-2.58,7.25-6.06,8.86a10.22,10.22,0,0,1-13-2.79,13.8,13.8,0,0,1-2.45-6.11c-1.3-.11-2.6-.24-3.89-.38C66.22,40.58,66.76,45.62,65.16,50.39Zm-3,38c3.55.22,7.12,0,10.68.19.12-3.18.23-6.37.07-9.56-3.42,0-6.8.51-10.21.69C62.39,82.54,62.28,85.45,62.17,88.34Zm-16.34.3c3.89-.09,7.79.17,11.68.31,0-2.78,0-5.55,0-8.33a96.93,96.93,0,0,0-11.37,2.85C46,85.19,45.82,86.91,45.83,88.64Z"/><path class="cls-7" d="M71.9,97.1a19.28,19.28,0,0,0,6.76-2.76c-1.7,3.76-6,5.32-9.94,5.13-4.16-.25-8.28-2-12.47-1-3.77.86-7.58,2.16-11.5,1.7-2.59-.56-4.58-2.51-6.29-4.42,2.67,1,5.23,2.64,8.19,2.53,4.41.13,8.55-1.86,13-1.8C63.73,96.28,67.78,97.94,71.9,97.1Z"/><path class="cls-8" d="M8.59.2c1.5-.34,3.55-.4,4.52,1.05C15.84,6.16,9.66,13,4.51,10.57,1.08,7,4.41,1.26,8.59.2ZM91.72,86.8a5.57,5.57,0,0,0,3.2,6.47c5,2.18,11-.1,14.53-3.88,2-2.44,3.38-6.07,1.72-9s-5.76-3.51-8.9-2.91C97.46,78.31,92.87,81.94,91.72,86.8Zm-76,11.82c.95,2.66,3.9,4.87,6.78,3.78,5.73-2.2,7.82-9.92,5.24-15.18-1-2.35-3.92-3-6.21-2.35C16.36,87,14.13,93.48,15.71,98.62ZM108.17,8c.58,2.13,3.49,2.19,5,1C115,7.61,116.9,5,115.78,2.66c-.62-1.52-2.57-1.81-4-1.25C109.35,2.41,107.37,5.26,108.17,8ZM1,18.44c1.93.9,2.92-3.5,2.73-4.08s-.4-.85-1.94-.89C.16,13.79-.89,17.54,1,18.44ZM11.63,83.51C15,85.22,19,80.67,17,77.5a2.44,2.44,0,0,0-3-1.39C10.54,76.26,8.79,81.36,11.63,83.51ZM87.47,102c2.29,1.71,5.48-.89,4.89-3.51,0-1.61-1.7-2.29-3.06-1.89C87.05,97,85.35,100.45,87.47,102Z"/></g></g></svg>