<svg xmlns="http://www.w3.org/2000/svg" viewBox="0 0 98.35 120.67"><defs><style>.cls-1{fill:#181513;}.cls-2{fill:#9b9d37;}.cls-3{fill:#fff;}.cls-4{fill:#41bbe8;}.cls-5{fill:#ca5928;}.cls-6{fill:#602328;}.cls-7{fill:#f59d9f;}</style></defs><title>Asset 12</title><g id="Layer_2" data-name="Layer 2"><g id="Layer_1-2" data-name="Layer 1"><path class="cls-1" d="M30.08,0l2.64.14c.21,2.74.11,5.49.25,8.24,1.72.26,3.4,1.12,5.13,1.07A51.77,51.77,0,0,0,40,4.62c.84.19,1.67.4,2.5.61a26.36,26.36,0,0,0-1.85,6.06,20.67,20.67,0,0,1,8.62,14.39,22.72,22.72,0,0,1,8.44-14.23q-1-2.88-2.09-5.69c.78-.44,1.57-.87,2.36-1.3.64,1.86,1.26,3.72,1.91,5.57,1.73-.63,3.48-1.16,5.25-1.65.09-2.78.14-5.55.45-8.31H68.3c0,2.78-.24,5.56-.17,8.33A16.59,16.59,0,0,1,72.9,9.47c1-1.49,1.89-3,2.79-4.56L78,6.15c-.75,1.54-1.56,3-2.38,4.53a21.52,21.52,0,0,1,10,17.91H84.39c-.23-5.32-2.15-10.71-6-14.44-4.78-4.72-12.8-6.32-18.67-2.71-6.12,3.64-9.34,10.81-9.35,17.77,2.08.51,4.45,1.09,5.45,3.22,2.17,4.08.79,8.89-.61,13,3.23,3.63,7.65,6.71,12.73,6.46,5.62.54,10.66-3,13.69-7.43l2-.49.91.06c-.39.08-1.17.27-1.56.36a17.4,17.4,0,0,1-14.37,8.78,19.16,19.16,0,0,1-13.71-6.35c-.41,1.81-.88,3.72-2.32,5,1-5.38,3.58-10.66,2.65-16.25a6.1,6.1,0,0,0-4.47-4.75c-3.7.75-5.24,4.77-5,8.19-.28,4.25,2.56,8.13,1.65,12.42-.58-2-1.08-4-1.69-6-3.65,4.5-9.16,7.89-15.13,7.46-6.52-.29-12.07-4.84-15-10.47l.54.36,1.06.69c2.61,3.56,6,6.87,10.46,7.8C34.27,53.16,41.4,49.66,45.07,44c-.82-3.3-1.75-6.89-.37-10.17.58-1.86,2.19-3.06,3.48-4.42C49,20.79,43,11.35,34.12,9.82c-5.9-1.47-12,1.77-15.59,6.42a23.66,23.66,0,0,0-4.2,11.14l-.94-.09c.6-6.84,4.18-13.55,10.27-17a26.49,26.49,0,0,1-3-5.77c.87-.08,2.2-1.23,2.77,0C24.46,6,25.3,7.62,26.21,9.19c1.28-.31,2.56-.61,3.86-.86C30.32,5.55,30.05,2.78,30.08,0ZM66.42,41.38c3-.68,6.36-1.9,7.54-5a7.92,7.92,0,0,0-5.4-10.84c-4.84-1.66-10.05,2.74-9.9,7.69C58.45,37.53,62.46,40.72,66.42,41.38Zm7-8.18c.29,4.77-5.23,8.12-9.45,6.38-3-1.2-5.11-4.63-4.21-7.85a7.69,7.69,0,0,1,4-4.89C68.1,24.92,73.83,28.31,73.46,33.2ZM26.35,37.55c3.09,4.41,10.63,4.76,13.54,0,3.87-5.14-1.26-13.43-7.62-12C26.77,25.8,23.13,33,26.35,37.55Zm13.76-5c.51,4-3.36,8-7.41,7.47-3.13-.17-6.28-2.74-6.35-6a6.9,6.9,0,0,1,4.38-7.13C34.79,25.08,39.69,28.29,40.11,32.59Zm-10,3.29a4.37,4.37,0,0,0,6.31.4,5.93,5.93,0,0,0,.29-4.44c-.76-2-3.31-2.54-5.16-1.84A3.93,3.93,0,0,0,30.11,35.88ZM66.4,37.11a3.75,3.75,0,0,0,4.24-3.89c.22-3.09-3.76-4.78-6.21-3.31C61,31.46,62.76,37.36,66.4,37.11ZM8.94,35.43c.89-.34,1.79-.68,2.68-1,.29,3.68-.42,7.37,0,11.06,1,10.31,2.94,20.73,7.51,30.13,3.68,7.65,7.75,15.7,14.82,20.79-.12,1-.22,2-.32,3.1s-.22,2.19-.34,3.29c-.58,4.49.42,9.65,4.06,12.66a23.13,23.13,0,0,0,8.8,4.65c3.38.87,10.35.73,16.64,0s11.18-12,8.9-19.39c-.18-.92-.35-1.85-.46-2.78-.06-.55-.16-1.66-.21-2.21,5.83-6.58,9.85-14.59,12.86-22.8,4.5-11.27,5.69-23.66,5-35.71L90.69,37c-1.17-2.24-4.38-1.64-5.31.52.94-.22,1.89-.45,2.83-.7,0,5.11-3.48,9.31-6.75,12.9A41.1,41.1,0,0,1,51.38,63.23c-10.42.1-21.16-2.68-29.65-8.89-6.15-4.6-8.55-12.44-9.06-19.81l2.27.67a3.4,3.4,0,0,0-2.8-2c0-.41,0-1.23,0-1.65-.23.53-.47,1.06-.69,1.59C10.32,33.58,9.2,34.14,8.94,35.43Zm79,7.66c.42,7.35-1,14.7-2.82,21.79C82.52,73,79.39,81.22,74.36,88.24a23.89,23.89,0,0,0-21.68,2c-4.2-2.62-9.11-4.33-14.12-3.55-3.15.17-5.76,2.07-8.64,3.12A6.44,6.44,0,0,1,28.24,88c-6.06-8.64-10.92-18.28-13.12-28.66C14,54.23,12.7,49,13.05,43.72A29.37,29.37,0,0,0,27.18,59.59,58.51,58.51,0,0,0,38.79,64c0,2.77-.16,5.54,0,8.3a72.93,72.93,0,0,0,10.86.26c.23-2.57-.81-5.6,1.06-7.73,1.6,2.15.49,5,.91,7.49,3.31.09,6.85,1.23,10,0,.24-2.77-.9-5.48-.45-8.24a9,9,0,0,1,2.54-1.25A43.21,43.21,0,0,0,82.61,50.22C84.66,48,86.08,45.39,88,43.09ZM60.69,71.59c-2.8.06-5.56-.4-8.34-.55,0-2,0-3.89.12-5.83a35.4,35.4,0,0,0,7.31-1.34A71.29,71.29,0,0,1,60.69,71.59ZM48.9,65.14q.06,3.17,0,6.34c-3.2,0-6.37-.56-9.57-.29.2-2.27.38-4.53.47-6.8C42.85,64.51,45.84,65.25,48.9,65.14Zm4.19,26.69a4.76,4.76,0,0,1,2-1.77,21.71,21.71,0,0,1,18.39-.3l-2.82,3.48c-.12-.58-.38-1.75-.51-2.33-1.51,6,2.26,12.2.08,18.16a14,14,0,0,1-11.07,10.41c-5.05,1-10.25-.13-14.89-2.19a14.23,14.23,0,0,1-8.6-7.38c-2-4.25-1.13-9.1-.74-13.61,0-1.49.65-3.22-.36-4.52-.07.59-.2,1.77-.26,2.35L31.47,92C37,85.71,47,87.38,53.09,91.83Z"/><path class="cls-2" d="M4.37,7.23C5.87,5.15,8,7.84,8,9.58c0,2.43.37,7.57-1.94,7.19S3.47,10.45,4.37,7.23Zm85,.71c-1.38.51-.45,7.68,1.54,7.32s.7-8.48-1.54-7.32M4.67,18.17c-1.4-.08-1.82,5.71,0,5.71S6.08,18.25,4.67,18.17ZM87.26,67.72c0,1.15-.24,2.7.83,3.48,1.2.45,1.85-.89,2.3-1.73a23.77,23.77,0,0,0,2.08-11.81c.24-1.13-1.23-1.71-2-1.09C88.14,59.75,87.5,63.86,87.26,67.72Zm-75-.41c.31-.53-.79-4.77-2-4.51s-.58,4.08.28,4.78A1,1,0,0,0,12.27,67.31Zm2,16.94c.88,1.5,2.42-.3,2.23-1.43a23.93,23.93,0,0,0-1.93-8.36C13.64,72.56,12,69,10.4,69.79S11.15,80.26,14.22,84.25Zm71.5-2c2.65.56,4-5.79.94-5.79C84.87,77.6,84.67,80.53,85.72,82.3Z"/><path class="cls-3" d="M18.53,16.24c3.54-4.65,9.69-7.89,15.59-6.42C43,11.35,49,20.79,48.18,29.44c-1.29,1.36-2.9,2.56-3.48,4.42-1.38,3.28-.45,6.87.37,10.17-3.67,5.63-10.8,9.13-17.46,7.24-4.48-.93-7.85-4.24-10.46-7.8,2.14-1.06,4.36-2.33,5.56-4.49,1.54-2.58.73-6-1.13-8.2-1.91-2-4.65-2.8-7.25-3.4A23.66,23.66,0,0,1,18.53,16.24Zm13.74,9.24c-5.5.32-9.14,7.55-5.92,12.07s10.63,4.76,13.54,0C43.76,32.38,38.63,24.09,32.27,25.48Zm27.4-14c5.87-3.61,13.89-2,18.67,2.71,3.9,3.73,5.82,9.12,6,14.44-3.16.77-6.51,2.22-8,5.28C74.05,38,77.57,43,81.58,44.46c-3,4.46-8.07,8-13.69,7.43-5.08.25-9.5-2.83-12.73-6.46,1.4-4.1,2.78-8.91.61-13-1-2.13-3.37-2.71-5.45-3.22C50.33,22.26,53.55,15.09,59.67,11.45Zm-1,21.75c-.21,4.33,3.8,7.52,7.76,8.18,3-.68,6.36-1.9,7.54-5a7.92,7.92,0,0,0-5.4-10.84C63.72,23.85,58.51,28.25,58.66,33.2Zm-6.19,32c-.15,1.94-.14,3.88-.12,5.83,2.78.15,5.54.61,8.34.55a71.29,71.29,0,0,0-.91-7.72A35.4,35.4,0,0,1,52.47,65.21Zm-13.14,6c3.2-.27,6.37.32,9.57.29q.06-3.18,0-6.34c-3.06.11-6-.63-9.1-.75C39.71,66.66,39.53,68.92,39.33,71.19Z"/><path class="cls-4" d="M30.73,26.91c4.06-1.83,9,1.38,9.38,5.68.51,4-3.36,8-7.41,7.47-3.13-.17-6.28-2.74-6.35-6A6.9,6.9,0,0,1,30.73,26.91ZM31.55,30a3.93,3.93,0,0,0-1.44,5.88,4.37,4.37,0,0,0,6.31.4,5.93,5.93,0,0,0,.29-4.44C36,29.81,33.4,29.3,31.55,30Zm32.24-3.16c4.31-1.92,10,1.47,9.67,6.36.29,4.77-5.23,8.12-9.45,6.38-3-1.2-5.11-4.63-4.21-7.85A7.69,7.69,0,0,1,63.79,26.84Zm.64,3.07c-3.42,1.55-1.67,7.45,2,7.2a3.75,3.75,0,0,0,4.24-3.89C70.86,30.13,66.88,28.44,64.43,29.91Z"/><path class="cls-5" d="M1.64,31c3-3.17,7.62-3.8,11.75-3.66l.94.09c2.6.6,5.34,1.42,7.25,3.4C23.44,33,24.25,36.4,22.71,39c-1.2,2.16-3.42,3.43-5.56,4.49l-1.06-.69c2.09-1.52,4.45-3.1,5.21-5.73,1-2.39-.48-5-2.62-6.21-4.5-2.63-10.76-2.65-14.84.84a4.59,4.59,0,0,0-1.43,5.14c.93,2.66,3.63,3.93,5.4,5.94A12.3,12.3,0,0,1,2,39.63C-.34,37.42-.83,33.22,1.64,31ZM81.58,44.46l2-.49c-3.29-1.38-6.65-4.56-5.75-8.44,2.35-5.49,9.86-6.34,14.65-3.74a6.37,6.37,0,0,1,4.07,6.4c-.61,2.22-2.74,3.42-4.25,5,2-.56,4.21-1.32,5.29-3.27,1.69-2.45.47-5.73-1.48-7.64a15.85,15.85,0,0,0-10.51-3.69H84.39c-3.16.77-6.51,2.22-8,5.28C74.05,38,77.57,43,81.58,44.46ZM16.33,31.67c.38-1.16,0-1.56-1.18-1.21C14.76,31.63,15.15,32,16.33,31.67ZM8,32q.63-1.73-1.17-1.11Q6.21,32.65,8,32Zm76.32,1c.36-1.15-.06-1.5-1.27-1.07C82.7,33.12,83.12,33.48,84.33,33.05Zm8.11-1.26c-1.16-.09-1.58.44-1.26,1.56C92.33,33.48,92.74,33,92.44,31.79Z"/><path class="cls-6" d="M82.61,50.22c2-2.18,3.47-4.83,5.37-7.13.42,7.35-1,14.7-2.82,21.79C82.52,73,79.39,81.22,74.36,88.24a23.89,23.89,0,0,0-21.68,2c-4.2-2.62-9.11-4.33-14.12-3.55-3.15.17-5.76,2.07-8.64,3.12A6.44,6.44,0,0,1,28.24,88c-6.06-8.64-10.92-18.28-13.12-28.66C14,54.23,12.7,49,13.05,43.72A29.37,29.37,0,0,0,27.18,59.59,58.51,58.51,0,0,0,38.79,64c0,2.77-.16,5.54,0,8.3a72.93,72.93,0,0,0,10.86.26c.23-2.57-.81-5.6,1.06-7.73,1.6,2.15.49,5,.91,7.49,3.31.09,6.85,1.23,10,0,.24-2.77-.9-5.48-.45-8.24a9,9,0,0,1,2.54-1.25A43.21,43.21,0,0,0,82.61,50.22Z"/><path class="cls-7" d="M16.48,75.66C19.53,82.22,22.61,89,27.56,94.33c1.83,1.94,3.38,4.42,6.11,5.14-.11,1.09-.22,2.19-.34,3.29a44,44,0,0,0-4.27-4.15C23.06,92.19,18.11,84.39,16.48,75.66ZM71.27,97.9c.11.93.28,1.86.46,2.78,6-4.91,9.25-12.54,11-20-2.32,4.1-3.71,8.7-6.54,12.51C74.82,95,73.69,97.39,71.27,97.9ZM34.36,94.13c.06-.58.19-1.76.26-2.35,1,1.3.36,3,.36,4.52-.39,4.51-1.3,9.36.74,13.61a14.23,14.23,0,0,0,8.6,7.38c4.64,2.06,9.84,3.18,14.89,2.19a14,14,0,0,0,11.07-10.41c2.18-6-1.59-12.15-.08-18.16.13.58.39,1.75.51,2.33l2.82-3.48a21.71,21.71,0,0,0-18.39.3,4.76,4.76,0,0,0-2,1.77C47,87.38,37,85.71,31.47,92Z"/></g></g></svg>