<svg xmlns="http://www.w3.org/2000/svg" viewBox="0 0 83.53 79.48"><defs><style>.cls-1{fill:#3cbdee;}.cls-2{fill:#ca5928;}.cls-3{fill:#602328;}.cls-4{fill:#110b14;}.cls-5{fill:#fff;}.cls-6{fill:#9d9d36;}.cls-7{fill:#f69d98;}</style></defs><title>Asset 5</title><g id="Layer_2" data-name="Layer 2"><g id="Layer_1-2" data-name="Layer 1"><path class="cls-1" d="M25.27,21.8c1.43-1.6,3.67-1.59,5.64-1.43l1.34.51A5.93,5.93,0,0,1,35,26.55h-2.2C32.4,25.31,32.39,23.66,31,23c-2.37-1.45-5.57.93-5.29,3.6l-2,.18C23.58,25,23.74,23,25.27,21.8Zm27.14,4.94,2-.58c-.08-2.12,2-4.2,4.15-3.39,1.72.38,2.54,2.08,2.73,3.69l1.95.2c.44-2-.8-3.6-1.28-5.42l-.25.55c-2.51-2.77-7.9-2-9.28,1.55A4.28,4.28,0,0,0,52.41,26.74Z"/><path class="cls-2" d="M9.27,26.47a1.64,1.64,0,0,1,.11-1.54c0,.31.16,1,.22,1.28A19.3,19.3,0,0,1,19,27.65c.27.19.53.37.78.57A11.26,11.26,0,0,1,24,34.36c.6,2.43-.3,4.84-1,7.14l-.88.17c.17.16.53.46.71.62l-.6-.07c-.77.64-1.49,1.35-2.26,2a17.77,17.77,0,0,1-5.38,2.47l-1.09.17c-2.44.26-5.27.36-7.13-1.52,3.44.93,7.28,1.32,10.54-.43A9.61,9.61,0,0,0,22.8,36.5c.24-3.3-1.93-6.37-4.74-7.91A12.69,12.69,0,0,0,8,27.88,29.6,29.6,0,0,0,3,30.6c1.11-2.19,3.49-3.1,5.64-3.9ZM68.39,28.3a11.18,11.18,0,0,0-4.77,6.25,9.74,9.74,0,0,0,.95,6.93c.16.24.47.73.64,1,.31.41.65.81,1,1.21a12.88,12.88,0,0,0,4.48,2.72,13,13,0,0,0,9.56,0,2.27,2.27,0,0,0,1.38-1.28,24.35,24.35,0,0,1-4.89,1.17,11.46,11.46,0,0,1-10.06-4.47,7.81,7.81,0,0,1-1.32-7.61c1.67-4.77,7.07-7.36,11.92-6.91,1.91,0,3.57,1,5.4,1.35-1.27-1.68-3.42-2.11-5.4-2.25l-1-.09a15.61,15.61,0,0,0-6.77,1.44ZM10.93,29.89c.42.51,1.1.57,1.37.18s-.82-1.53-1.3-1.3S10.51,29.37,10.93,29.89ZM69.63,32c.2-.89-1.17-.89-1.64-.43C67.41,32.4,69.22,32.65,69.63,32Zm9.78-1.85c.61-.82-.84-1.54-1.37-.86S78.88,30.8,79.41,30.12Zm-58.75,3.6c.42-.44-.63-1.17-.91-.81S20.23,34.16,20.66,33.72Zm-5.89,1c.42-.42-.51-1.2-.86-.9S14.35,35.11,14.77,34.7Zm59.62.47c.81-.7-.49-1.9-1.17-1.12S73.7,35.9,74.39,35.17Z"/><path class="cls-3" d="M65.45,44.68c.25-.34.5-.69.76-1a12.88,12.88,0,0,0,4.48,2.72c-1.37,1.23-1,3.31-1.57,4.92A32.34,32.34,0,0,1,57.86,68.84c-.92.94-2.15.26-3.18,0a18.88,18.88,0,0,0-12.2.1c-1.23.5-2.51,0-3.73-.28A18.77,18.77,0,0,0,28.07,69c-1.41.67-2.56-.64-3.54-1.46A33.31,33.31,0,0,1,14.61,46.7,17.77,17.77,0,0,0,20,44.23l.4.38c3.28,3.73,8.49,4.58,13,6.14,0,2.32-.06,4.62-.1,6.94a25.09,25.09,0,0,0,9-.21c1.1-1.72.33-4,.5-5.94l1.18.31c.28,2-.59,4.44.63,6.14A32.6,32.6,0,0,0,53,57.63a52.75,52.75,0,0,0,.09-6.77c3.62-1,7.32-2,10.52-4A4.71,4.71,0,0,0,65.45,44.68Z"/><path class="cls-4" d="M51.52,3.29C55.47.37,60.7-.37,65.49.16c2,.45,4.08.92,5.51,2.44C64.72.12,57.68.83,51.52,3.29ZM32.44,30.41a6.16,6.16,0,0,0-8.25,0A24.06,24.06,0,0,1,32.44,30.41Zm21.83-.3c2.14-.56,4.68-1.33,6.63.18a44.14,44.14,0,0,0-6.89.64C54.07,30.72,54.2,30.31,54.27,30.11ZM15.24,3.8C19.88.81,25.7-.86,31.16.62c1.43.49,3.27.66,4.08,2.11a21.49,21.49,0,0,0-13.7-.54C19,2.88,16.76,4.18,14.3,5A2,2,0,0,1,15.24,3.8Zm8.44,4.66A22.85,22.85,0,0,0,16.46,11C15.74,9.76,15,8.47,14.25,7.23L12.39,8.29c.68,1.41,1.5,2.75,2.27,4.12a16.71,16.71,0,0,0-6,14.29l.6-.23a1.64,1.64,0,0,1,.11-1.54,16.51,16.51,0,0,1,5.5-11.39c6-5.56,16.33-5.52,22.18.29,3.39,3,4.9,7.62,5,12.07-1.92,1.49-4.25,1-6.45.67a6.57,6.57,0,0,0-6.87-6.85c-3.62,0-6.34,3.77-5.8,7.25a27.23,27.23,0,0,0-3.92.68c.27.19.53.37.78.57a73.33,73.33,0,0,1,19.35-.44,9.45,9.45,0,0,0-1.74,8.82A16.92,16.92,0,0,1,23,41.5l-.88.17c.17.16.53.46.71.62,5.38,1.15,10.93-.95,15-4.5a47.49,47.49,0,0,0,3.39,7.44C40.93,42.68,39.65,40.4,39,38c-.83-2.81-.93-6.06.64-8.65,1-1.7,3.14-3,5.15-2.27a4.26,4.26,0,0,1,3.37,3.62c1.1,5.38-1.59,10.46-3.21,15.43a27.42,27.42,0,0,0,3.74-7.18,17.67,17.67,0,0,0,16.53,3.55c-.17-.24-.48-.73-.64-1A16.46,16.46,0,0,1,49,38.06c1-3.32,1.36-7-.4-10.18a47,47,0,0,1,9.41-.55c3.45.1,7.07-.32,10.34,1l1.14-.6a19,19,0,0,0-5.65-1.06A6,6,0,0,0,62,21.24c.48,1.82,1.72,3.44,1.28,5.42l-1.95-.2c-.19-1.61-1-3.31-2.73-3.69C56.4,22,54.32,24,54.4,26.16l-2,.58a4.28,4.28,0,0,1,0-3.4c1.38-3.58,6.77-4.32,9.28-1.55l.25-.55c-1.71-1.81-4.46-2-6.73-1.34a6.4,6.4,0,0,0-4,6.76c-1,.18-2,.39-3.06.58a9.69,9.69,0,0,0-4.62-1.81c.47-2.56.87-5.22,2.28-7.46A16.22,16.22,0,0,1,55.3,10.6c6.06-1.8,13.27.05,17.19,5.14C75,18.65,76,22.49,76.3,26.26l1,.09a18,18,0,0,0-7.4-14.51,30.81,30.81,0,0,0,2-3.48c-.2-.87-1.25-.91-1.94-1.16a29,29,0,0,1-2.11,3.5c-2-1.2-4.45-1.42-6.74-1.84,0-1.4-.09-2.79-.16-4.19H58.75c0,1.38.06,2.75.11,4.13a20.94,20.94,0,0,0-7.39,2.34,28.34,28.34,0,0,1-1.58-3.4,6.14,6.14,0,0,0-2.22.82c.58,1.29,1.19,2.57,1.85,3.83A17.42,17.42,0,0,0,43,22.86,18.06,18.06,0,0,0,36.2,11.75c.51-1.37,1.06-2.73,1.61-4.09-.79-.36-1.58-.71-2.37-1-.5,1.22-1,2.45-1.53,3.66a23.43,23.43,0,0,0-7.92-2c0-1.39.05-2.77.06-4.17l-1.95,0C23.93,5.54,23.79,7,23.68,8.46Zm7.23,11.91,1.34.51A5.93,5.93,0,0,1,35,26.55h-2.2C32.4,25.31,32.39,23.66,31,23c-2.37-1.45-5.57.93-5.29,3.6l-2,.18c-.12-1.79,0-3.82,1.57-5C26.7,20.2,28.94,20.21,30.91,20.37Zm2.45,30.38c0,2.32-.06,4.62-.1,6.94a25.09,25.09,0,0,0,9-.21c1.1-1.72.33-4,.5-5.94l1.18.31c.28,2-.59,4.44.63,6.14A32.6,32.6,0,0,0,53,57.63a52.75,52.75,0,0,0,.09-6.77c3.62-1,7.32-2,10.52-4a4.71,4.71,0,0,0,1.83-2.14c-7.11,5.3-16.45,5.91-25,5.5-6.92-.54-14.14-1.69-20.06-5.57C23.67,48.34,28.88,49.19,33.36,50.75Zm1.08,0c2.38.64,4.86.52,7.28.88.08,1.64.15,3.27.13,4.92-2.52.11-5,.35-7.57.41C33.69,54.94,34.37,52.83,34.44,50.76Zm17.81.34a34.87,34.87,0,0,0,.51,5.58c-2.6.32-5.22.19-7.82.37,0-1.79-.08-3.58-.12-5.36C47.3,51.51,49.77,51.2,52.25,51.1ZM18.56,61.56C21.82,67,26.34,72,32.42,74.29c3,1.38,6.39,1.49,9.67,1.7a30.68,30.68,0,0,0,6.69-1c12.35-3.66,21.35-15.92,21.91-28.65-1.37,1.23-1,3.31-1.57,4.92A32.34,32.34,0,0,1,57.86,68.84c-.92.94-2.15.26-3.18,0a18.88,18.88,0,0,0-12.2.1c-1.23.5-2.51,0-3.73-.28A18.77,18.77,0,0,0,28.07,69c-1.41.67-2.56-.64-3.54-1.46A33.31,33.31,0,0,1,14.61,46.7l-1.09.17A38.8,38.8,0,0,0,18.56,61.56Zm19.32,7.72c2.46.29,4.64,1.51,6.9,2.42a18.8,18.8,0,0,0-2.65-2.14,22.3,22.3,0,0,1,13.45.57c-.89,1.26-2.46,1.69-3.78,2.33a24.33,24.33,0,0,1-18.12.71c-2-.77-4.12-1.43-5.57-3A21.17,21.17,0,0,1,37.88,69.28Z"/><path class="cls-5" d="M14.88,13.54c6-5.56,16.33-5.52,22.18.29,3.39,3,4.9,7.62,5,12.07-1.92,1.49-4.25,1-6.45.67a6.57,6.57,0,0,0-6.87-6.85c-3.62,0-6.34,3.77-5.8,7.25a27.23,27.23,0,0,0-3.92.68A19.3,19.3,0,0,0,9.6,26.21c-.06-.32-.17-1-.22-1.28A16.51,16.51,0,0,1,14.88,13.54ZM45.79,18c-1.41,2.24-1.81,4.9-2.28,7.46a9.69,9.69,0,0,1,4.62,1.81c1-.19,2-.4,3.06-.58a6.4,6.4,0,0,1,4-6.76c2.27-.63,5-.47,6.73,1.34a6,6,0,0,1,1.93,5.4,19,19,0,0,1,5.65,1.06,15.61,15.61,0,0,1,6.77-1.44C76,22.49,75,18.65,72.49,15.74,68.57,10.65,61.36,8.8,55.3,10.6A16.22,16.22,0,0,0,45.79,18ZM41.85,56.56c0-1.65-.05-3.28-.13-4.92-2.42-.36-4.9-.24-7.28-.88-.07,2.07-.75,4.18-.16,6.21C36.81,56.91,39.33,56.67,41.85,56.56Zm3.09.49c2.6-.18,5.22,0,7.82-.37a34.87,34.87,0,0,1-.51-5.58c-2.48.1-5,.41-7.43.59C44.86,53.47,44.91,55.26,44.94,57.05Z"/><path class="cls-6" d="M79,6.22c-.5-2.13,2.32-4.43,3.79-3.55s.55,3.69-.93,4.84A1.71,1.71,0,0,1,79,6.22ZM2.15,11.83c3.39.84,4.91-3.53,4.23-6.16C5.94,4,3.89,2.39,2.29,3.67-.38,5.41-1.07,10.32,2.15,11.83Zm-.49,2.9c-2,.36-1.28,5,.51,5S3.68,14.37,1.66,14.73ZM71,63.17a4.14,4.14,0,0,0,1.15,3.56c1.43,1.45,3.71.72,5.2-.25a7.56,7.56,0,0,0,2.74-8.28c-.54-1.73-2.69-2.26-4.26-1.74A7.23,7.23,0,0,0,71,63.17ZM11.3,70c-.27,2.76,1.29,6,4.13,6.63,3.39-.09,4.61-4.38,3.57-7.1-.5-2.35-3.05-4.76-5.52-3.51C11.91,66.68,11.35,68.48,11.3,70Zm-.68-5c2.48-.41,1.87-5.78-1-4.59C8,61.5,8.63,64.87,10.62,65.08Zm59.63,4.09c-1.71-.9-4.7,1.92-1.27,3.92S72,70.07,70.25,69.17Z"/><path class="cls-7" d="M28.11,70.12a21.17,21.17,0,0,1,9.77-.84c2.46.29,4.64,1.51,6.9,2.42a18.8,18.8,0,0,0-2.65-2.14,22.3,22.3,0,0,1,13.45.57c-.89,1.26-2.46,1.69-3.78,2.33a24.33,24.33,0,0,1-18.12.71C31.71,72.4,29.56,71.74,28.11,70.12ZM32,79c3.2,1.21,6.44-.36,9.62-.79,2.92-.54,5.62,1.09,8.51,1.16,3.36.15,7.26-.86,9.08-4C57.08,76,55.5,77.77,53.3,78c-3.62.58-7.08-1.14-10.7-1-3.14,0-6.19,1.39-9.34.76-2.68-.36-4.89-2-7.23-3.24A12,12,0,0,0,32,79Z"/></g></g></svg>