<svg xmlns="http://www.w3.org/2000/svg" viewBox="0 0 84.92 90.77"><defs><style>.cls-1{fill:#cc5b28;}.cls-2{fill:#fff;}.cls-3{fill:#5f2327;}.cls-4{fill:#3bb0d9;}.cls-5{fill:#010101;}.cls-6{fill:#acb036;}</style></defs><title>Asset 4</title><g id="Layer_2" data-name="Layer 2"><g id="Layer_1-2" data-name="Layer 1"><path class="cls-1" d="M13.11,24.35c.83,0,1.1,1.67-.08,1.58a.58.58,0,0,1-.71,0,.82.82,0,0,1,.39-1.41A.75.75,0,0,1,13.11,24.35ZM7.94,27.66c1.49.06.85-2.66-.4-1.43C6.85,26.52,7,28,7.94,27.66Zm71.71,1c.74-.88-.92-1.73-1.45-.9S79.07,29.4,79.65,28.69Zm-60.17-1.6c0,2-2.3,2.85-2.73,4.68l.56-.36.75-.49a26.3,26.3,0,0,1,2.51-1.63c0-.21.11-.63.14-.85a6.54,6.54,0,0,0,0-3.23,6.34,6.34,0,0,0-3.48-2.44l-.76-.22A15.83,15.83,0,0,0,3.18,25.29,7.79,7.79,0,0,0,0,30.54,6.24,6.24,0,0,0,4.67,35.3c1.44.37,3.33.58,4.37-.73-1.66-.09-3.48.22-5-.7A3.64,3.64,0,0,1,2.29,29c1.36-2.54,4.14-4,6.8-4.76a14.87,14.87,0,0,1,4-.57,9.9,9.9,0,0,1,6.15,1.86Zm53.94.64c1-.8-.38-1.66-1.18-1.06S72.87,28.94,73.42,27.73Zm3.13,2.08c.69-.87-.92-1.5-1.43-.79C74.26,30,76,30.66,76.55,29.81Zm-7-5.22c-2.5.5-3.67,2.86-4.09,5.13-.06.13-.18.4-.23.53a9.62,9.62,0,0,0,3.06,3L69.32,33l.88-.18c-.29-.18-.62-.34-1-.51-1-.53-2-1.14-2.07-2.32a3.52,3.52,0,0,1,2.34-3.83,13.88,13.88,0,0,1,9,.32c2.32.81,4.59,2.6,4.83,5.21,0,1.75-1.85,2.5-3,3.52a3.82,3.82,0,0,0,4.45-4.16c-.22-3-2.82-5.15-5.49-6.11a16.69,16.69,0,0,0-9.3-.71ZM10.72,27.25c-.61.71.27,1.3.94,1.14a.71.71,0,0,0,.52-.37c.48-.62-.15-1.08-.75-1.08A.88.88,0,0,0,10.72,27.25Z"/><path class="cls-2" d="M54.6,13.42c6.95-1.77,14.9,3.91,14.9,11.17-2.5.5-3.67,2.86-4.09,5.13-1.45-.45-2.92-.83-4.4-1.19-.59-2.58-2.43-5.16-5.2-5.6A5.88,5.88,0,0,0,49.4,29c-1,.38-1.93.74-2.9,1.11a10.79,10.79,0,0,0-2.66-2C43,21.44,47.84,14.51,54.6,13.42ZM42.69,27.79c.71-5-1-10.55-5.14-13.67-4.72-3.68-12-2.91-16.23,1.13a14,14,0,0,0-4.11,7.52,6.34,6.34,0,0,1,3.48,2.44,6.54,6.54,0,0,1,0,3.23c1.66-.41,3.35-.7,5-1,.28-2.91,2.63-5.8,5.68-5.9A5.32,5.32,0,0,1,37.1,27a4.91,4.91,0,0,0,.52,2.72A6.1,6.1,0,0,1,42.69,27.79Zm-27.27,27a63.46,63.46,0,0,0,4.07,12.74l.18.64c.88-3,3-10.8,3-11.39A27.39,27.39,0,0,0,15.42,54.77Zm7.76,2.46C22.67,59.31,20.45,67,20,68.47a12.42,12.42,0,0,0,1.85,3.78c1.84,2.68,3.81,5.37,6.74,6.9,0-2.75,3.14-19.61,3.18-20.55C29.08,57.61,26.08,56.22,23.18,57.23Zm16,26.09c-.19-2.4,1.45-21.64,1.31-24.25-2.71-.47-5.64-1.09-8.29,0,0,1-2.56,16.46-3.36,20.38A22.33,22.33,0,0,0,39.16,83.32ZM60.93,58c.15,1.9,1.08,13.18,1.15,13.86a49.65,49.65,0,0,0,6.86-14.6C66.27,57.48,63.45,56.82,60.93,58ZM50.67,59.49c-.21,7.19,0,14.39-.1,21.59,4.41-1.67,8-5,11-8.56-.15-1.26-1-12.69-1.1-14.15C57.27,59.45,53.86,58.55,50.67,59.49ZM41,59.15c-.12,6.05-1.35,22.09-1.35,24.14a23.56,23.56,0,0,0,10.6-1.64c-.15-7.31.08-14.62-.12-21.93C47.18,58.62,44,58.79,41,59.15ZM55.55,45c-3.17.53-6.31,1.36-9.54,1.4-.58,3.73-.83,7.49-1,11.34,1.83.52,3.76.63,5.49,1.45a29.08,29.08,0,0,1,4-.77,23.7,23.7,0,0,0,2.62-.05C56.84,56.21,55.57,45.43,55.55,45ZM26.61,55.4c.85,1.38,2.56,1.3,3.87,2,2.26,1.33,5.33-.06,7.79.44.17-.33.81-9.94.86-11.38a29.75,29.75,0,0,1-9.08-2.21A82.76,82.76,0,0,0,26.61,55.4Z"/><path class="cls-3" d="M74.61,32.44a167.08,167.08,0,0,1-5.29,24.62c-3-.09-6-.28-8.93.67a15.93,15.93,0,0,1-3,.64c.54-2.25-1.33-13.13-1.22-13.58,4.35-1.48,8.66-3.3,12.21-6.29,0-.2.05-.6.07-.8l.48-.39C71.66,37,72.48,33.8,74.61,32.44Zm-34.85,14c-.13,2-.48,9.48-.93,11.29,1.65,1.16,3.89.77,5.62,0,.09-2.51.37-10.23.45-11.43C43.19,46.36,41.47,46.39,39.76,46.47ZM14.85,33.37c-.62-.73-1.1-1.67-2-2-.47,2.4,0,4.82,0,7.25a128.14,128.14,0,0,0,2.4,15.57A19.4,19.4,0,0,1,22.32,56c1.23.63,2.11.18,3.42.16.56-2.19,2.87-10,3.31-11.88-.5-.74-1.43-.89-2.16-1.28A32.64,32.64,0,0,1,14.85,33.37Z"/><path class="cls-4" d="M54.43,25.56c-2.33.17-2,3.81-4.6,3.47a4.29,4.29,0,0,1,.29-2.49c1-1.5,2.34-3.08,4.3-3.24,3.09-.47,5.69,2.36,6.28,5.17l-2.3-.08C57.87,26.71,56.36,25,54.43,25.56Zm-20,.29c.75,1.31.28,3.75,2.5,3.28.18-2-.19-5.51-3.2-7a6.42,6.42,0,0,0-4,0A7.61,7.61,0,0,0,26,27.47c1.41,0,2.38.24,2.71-1.32C29.54,23.79,33.4,23.52,34.42,25.85Z"/><path class="cls-5" d="M60.93,58c.15,1.9,1.08,13.18,1.15,13.86a49.65,49.65,0,0,0,6.86-14.6C66.27,57.48,63.45,56.82,60.93,58Zm-.49.36c-3.17,1.08-6.58.18-9.77,1.12-.21,7.19,0,14.39-.1,21.59,4.41-1.67,8-5,11-8.56C61.39,71.26,60.53,59.83,60.44,58.37Zm-16-.57c.09-2.51.37-10.23.45-11.43-1.71,0-3.43,0-5.14.1-.13,2-.48,9.48-.93,11.29C40.48,58.92,42.72,58.53,44.45,57.8Zm5.65,1.92c-2.92-1.1-6.09-.93-9.13-.57-.12,6.05-1.35,22.09-1.35,24.14a23.56,23.56,0,0,0,10.6-1.64C50.07,74.34,50.3,67,50.1,59.72Zm-9.63-.65c-2.71-.47-5.64-1.09-8.29,0,0,1-2.56,16.46-3.36,20.38a22.33,22.33,0,0,0,10.34,3.9C39,80.92,40.61,61.68,40.47,59.07Zm-20.8,9.08c.88-3,3-10.8,3-11.39a27.39,27.39,0,0,0-7.28-2,63.46,63.46,0,0,0,4.07,12.74ZM26.61,55.4c.85,1.38,2.56,1.3,3.87,2,2.26,1.33,5.33-.06,7.79.44.17-.33.81-9.94.86-11.38a29.75,29.75,0,0,1-9.08-2.21A82.76,82.76,0,0,0,26.61,55.4Zm5.18,3.2c-2.71-1-5.71-2.38-8.61-1.37C22.67,59.31,20.45,67,20,68.47a12.42,12.42,0,0,0,1.85,3.78c1.84,2.68,3.81,5.37,6.74,6.9C28.6,76.4,31.75,59.54,31.79,58.6ZM16.37,61.86a115.46,115.46,0,0,1-4.73-32,9.37,9.37,0,0,0-4.06,2.46c.74-1.28,1.56-2.64,3-3.17a8.44,8.44,0,0,1,1.1-.19,8.13,8.13,0,0,1,4.4.7c-1,0-2,0-3,0A33.51,33.51,0,0,0,34.86,45.13c4.59,1.09,9.34.81,14,.54,7.05-1,14-3.41,19.58-8,0,.2,0,.6-.07.8-3.55,3-7.86,4.81-12.21,6.29-.11.45,1.76,11.33,1.22,13.58a2.53,2.53,0,0,0-.3,0c-.25-2.19-1.52-13-1.54-13.37-3.17.53-6.31,1.36-9.54,1.4-.58,3.73-.83,7.49-1,11.34,1.83.52,3.76.63,5.49,1.45a29.08,29.08,0,0,1,4-.77,23.7,23.7,0,0,0,2.62-.05c0,.2,0,.33,0,.37s.2-.16.26-.4a15.93,15.93,0,0,0,3-.64c2.89-.95,5.94-.76,8.93-.67a167.08,167.08,0,0,0,5.29-24.62c-2.13,1.36-3,4.57-5.68,4.87l-.11-.13a22,22,0,0,0,5.24-5.64c-1.2-.11-2.42-.2-3.35.69.38-.43.74-.85,1.11-1.29,2.49-.55,5.6-.18,6.82,2.4a6.44,6.44,0,0,0-3.14-1.43,22,22,0,0,1-.33,3.24c-1.78,10.33-4,20.72-8.25,30.34-3.51,8-10,14.92-18.33,17.72a23.34,23.34,0,0,1-22-4.27C21.26,74.69,18.34,68.25,16.37,61.86Zm-1.12-7.69A19.4,19.4,0,0,1,22.32,56c1.23.63,2.11.18,3.42.16.56-2.19,2.87-10,3.31-11.88-.5-.74-1.43-.89-2.16-1.28a32.64,32.64,0,0,1-12-9.58c-.62-.73-1.1-1.67-2-2-.47,2.4,0,4.82,0,7.25A128.14,128.14,0,0,0,15.25,54.17Zm42.14,4.2c-.06.24-.14.38-.26.4s0-.17,0-.37A2.53,2.53,0,0,1,57.39,58.37ZM53.32,31a21.28,21.28,0,0,1,7.74.8c-4,.24-8.18-.39-12,1.18C50.07,31.64,51.82,31.47,53.32,31Zm2.73,54.17c-1.73,2.15-4.47,3.14-6.93,4.18a21.7,21.7,0,0,1-22.91-4.94C35,90,47.05,90.82,56.05,85.19ZM34.51,31.38a34.14,34.14,0,0,0-12,.05C26.16,29.17,30.8,29.56,34.51,31.38Zm-.79-9.21a6.42,6.42,0,0,0-4,0A7.61,7.61,0,0,0,26,27.47c1.41,0,2.38.24,2.71-1.32.83-2.36,4.69-2.63,5.71-.3.75,1.31.28,3.75,2.5,3.28C37.1,27.14,36.73,23.62,33.72,22.17Zm3.82,7.75a33.67,33.67,0,0,0-17-.63c0-.21.11-.63.14-.85,1.66-.41,3.35-.7,5-1,.28-2.91,2.63-5.8,5.68-5.9A5.32,5.32,0,0,1,37.1,27a4.91,4.91,0,0,0,.52,2.72ZM58.4,28.39l2.3.08c-.59-2.81-3.19-5.64-6.28-5.17-2,.16-3.31,1.74-4.3,3.24A4.29,4.29,0,0,0,49.83,29c2.56.34,2.27-3.3,4.6-3.47C56.36,25,57.87,26.71,58.4,28.39ZM37.55,14.12c-4.72-3.68-12-2.91-16.23,1.13a14,14,0,0,0-4.11,7.52l-.76-.22a14.53,14.53,0,0,1,7.87-10.31c-.61-1.38-1.19-2.76-1.83-4.12l1.61-.67c.44,1.46.83,3,1.34,4.4a20.26,20.26,0,0,1,5.37-1c-.11-1.79-.12-3.58-.21-5.37l1.91.15c-.22,1.78-.35,3.56-.44,5.35a15.59,15.59,0,0,1,4.64,1.56c.68-1.64,1.31-3.31,2.1-4.92.3.3.92.91,1.23,1.2-.63,1.5-1.6,2.83-2.18,4.35a15.11,15.11,0,0,1,5.57,9.64,14.7,14.7,0,0,1,7.52-9,28.68,28.68,0,0,0-2-4.52,5.36,5.36,0,0,1,2-.79c.25,1.56.77,3.07,1.12,4.61a36.38,36.38,0,0,1,5-.76c0-1.91-.07-3.82-.14-5.73l2,.07c-.2,1.91-.52,3.8-.73,5.71.74.07,1.47.15,2.2.24a16,16,0,0,0,2.15.63c.63-1.52,1.18-3.08,1.79-4.61.5-.67,1.35.16,1.71.6-.87,1.52-1.65,3.09-2.57,4.58a14.39,14.39,0,0,1,7.21,10.09l-.48.34-.59.33c0-7.26-8-12.94-14.9-11.17-6.76,1.09-11.56,8-10.76,14.73a10.79,10.79,0,0,1,2.66,2c1-.37,1.94-.73,2.9-1.11a5.88,5.88,0,0,1,6.41-6.06c2.77.44,4.61,3,5.2,5.6,1.48.36,3,.74,4.4,1.19-.06.13-.18.4-.23.53a31.65,31.65,0,0,0-18.39.25,8,8,0,0,1,.47,5.65,13.2,13.2,0,0,0,9.44,3.91,13.05,13.05,0,0,0,11.54-6.78L69.32,33c-2.14,3.88-5.88,7.09-10.37,7.7a14.23,14.23,0,0,1-12-3.79,12.83,12.83,0,0,1-2.54,2.23c1.05-1.76,2.37-3.65,2.08-5.82a5,5,0,0,0-5.37-4.23c-3.77,1.11-4.83,6.07-3.22,9.28,1.24,2.34,4.1,2.82,6.49,3-3,1.07-7-.15-7.92-3.41a14.65,14.65,0,0,1-10.26,1,14.53,14.53,0,0,1-8.9-7.6l.75-.49a12.93,12.93,0,0,0,8.87,7.46,13.14,13.14,0,0,0,9.32-1.25,7.93,7.93,0,0,1,1.29-7.21l.08-.2a6.1,6.1,0,0,1,5.07-1.93C43.4,22.76,41.73,17.24,37.55,14.12Z"/><path class="cls-6" d="M13.81.38A3.87,3.87,0,0,1,19,2.19c1.87,4.6-2.29,11.06-7.48,10.26C9.22,11.83,8.44,9.09,8.83,7,9.39,4.19,11.07,1.42,13.81.38ZM78.59,10.44c.59-1.9-.66-4.68-3-4.19-3.06,1-2.85,6.55.62,6.8C77.25,12.43,78.47,11.76,78.59,10.44ZM5.83,18.76c1.72.91,3.64-.74,3.56-2.53.4-1.59-1.68-3.5-3-2.13A3.18,3.18,0,0,0,5.83,18.76Zm0,50c.59,1.45,2.57,1.46,3.61.52C11,68.06,12.35,65.51,11,63.61a2.16,2.16,0,0,0-2.88-.07A5.13,5.13,0,0,0,5.79,68.8Zm62.39,6a5,5,0,0,0,6.29,2.74c4.42-1.46,7.29-7,5.26-11.38-1.08-2.55-4.46-3.28-6.8-2.08A9,9,0,0,0,68.18,74.75ZM7.76,82.25c.23,2.11,1.78,4.39,4.12,4.32,3.9-.37,5.8-4.89,5.4-8.37-.14-2.33-2.09-4.92-4.65-4.43C9,74.6,7.35,78.86,7.76,82.25Zm56.71,2.31c.36,1,1.32,2.13,2.51,1.72a4.21,4.21,0,0,0,2.8-5.69c-.57-1.2-2.27-1.19-3.27-.62A4.87,4.87,0,0,0,64.47,84.56Z"/></g></g></svg>