<svg xmlns="http://www.w3.org/2000/svg" viewBox="0 0 123.96 112.39"><defs><style>.cls-1{fill:#9d9e36;}.cls-2{fill:#9b9e37;}.cls-3{fill:#120f0c;}.cls-4{fill:#fff;}.cls-5{fill:#9a9c37;}.cls-6{fill:#100e12;}.cls-7{fill:#44bced;}.cls-8{fill:#43bded;}.cls-9{fill:#171515;}.cls-10{fill:#181515;}.cls-11{fill:#602328;}.cls-12{fill:#fdfeff;}.cls-13{fill:#9c9c36;}.cls-14{fill:#f69fa1;}.cls-15{fill:#9b9d37;}.cls-16{fill:#9c9835;}.cls-17{fill:#f5949d;}</style></defs><title>Asset 10</title><g id="Layer_2" data-name="Layer 2"><g id="Layer_1-2" data-name="Layer 1"><path class="cls-1" d="M8.36.56C10.75-.65,14.48.08,15.09,3,16.41,8.63,8.26,13.41,4,9.63,1.56,6.15,5,1.85,8.36.56Z"/><path class="cls-1" d="M111.43,91.83c2.55-1.4,6.37-.67,7.33,2.34,1.63,5.47-3.37,11.94-9,11.92-3.24,0-4.67-3.72-4.06-6.45A10.9,10.9,0,0,1,111.43,91.83Z"/><path class="cls-2" d="M119.53,1.35a4.26,4.26,0,0,1,4,.78c2.23,4.05-4.49,8.17-7.24,4.69C115.11,4.43,117.25,1.93,119.53,1.35Z"/><path class="cls-3" d="M34.71,11.4C37.31,9.25,39,6.28,41.48,4a12.51,12.51,0,0,1-2.24,5.54,24.69,24.69,0,0,1,15.69,6.17c4.28,3.76,6.93,9,8.5,14.37,1.69-5.65,4.64-11,9.42-14.65A25.48,25.48,0,0,1,88.78,10a31.26,31.26,0,0,1-1.56-3.44c2.24,1.64,3.77,4,5.92,5.77a68.24,68.24,0,0,0,14.31,9.48c3.76,1.78,7.93,2.28,11.9,3.37-2.39.07-4.79,0-7.18-.12,5.53,12.57-1.34,28.55-14,33.52-9.27,4.27-20.48,1.26-27.72-5.53a95.25,95.25,0,0,1-4.5,10.48c0-3.33,1.82-6.21,2.73-9.33,1.26-4.24,2.51-8.7,1.78-13.15-.61-3-2.23-6.42-5.37-7.51a6,6,0,0,0-6.81,4.27c-2.43,7.58,2.26,15,1.56,22.69-1-2.84-1.54-5.82-2.64-8.64A26.83,26.83,0,0,1,41.26,60c-12.07,1.76-24.92-6.65-27.63-18.64a25.87,25.87,0,0,1,2-17.85,31.19,31.19,0,0,1-5.38.09c1.51-1.06,3.35-1.38,5.07-1.92A55.46,55.46,0,0,0,34.71,11.4Zm1.43.71a49.21,49.21,0,0,1-18.5,10.45c-5.38,7.78-4.26,18.82,1.16,26.31,4.13,6.24,11.61,9.56,18.91,10.06,7.33.24,14.07-3.48,19.11-8.57-.47-4.38-2.46-8.89-.69-13.21.84-2.71,3.28-4.3,5.45-5.86.38-2.53-1.11-5.16-2.13-7.47A22.79,22.79,0,0,0,43,11.53C40.73,11.36,37.91,10.08,36.14,12.11Zm36.42,5.28c-4.15,3.37-6.42,8.39-7.77,13.45,2.31,1.35,4.9,2.63,6.13,5.16,2.58,4.78,1.15,10.44-.14,15.39,8.1,9.3,23.49,10.09,32.86,2.27C112.21,47,115.16,34.07,110,24.5c-5.72-2.32-11.32-5.13-15.88-9.36-1.56-1.21-2.69-3-4.5-3.85A25.63,25.63,0,0,0,72.56,17.39Z"/><path class="cls-3" d="M17.14,14.31c4.06-1.17,7.27-4,10.53-6.5-2,3.72-6,5.52-9.73,6.93Z"/><path class="cls-3" d="M101.2,8.4a60.47,60.47,0,0,0,9.87,6.49C107.11,14.38,102.87,12.17,101.2,8.4Z"/><path class="cls-4" d="M36.14,12.11c1.77-2,4.59-.75,6.84-.58A22.79,22.79,0,0,1,59.45,23.82c1,2.31,2.51,4.94,2.13,7.47-2.17,1.56-4.61,3.15-5.45,5.86-1.77,4.32.22,8.83.69,13.21-5,5.09-11.78,8.81-19.11,8.57-7.3-.5-14.78-3.82-18.91-10.06-5.42-7.49-6.54-18.53-1.16-26.31A49.21,49.21,0,0,0,36.14,12.11Zm1.08,13.65A11.66,11.66,0,0,0,30,32.59c-2.43,6.76,3.24,15.49,10.7,14.88,5.05.08,10.07-3.57,11-8.63C53.63,31,45,22.61,37.22,25.76Z"/><path class="cls-4" d="M66.93,73.77c3.79-.34,7.58-.82,11.38-1-.09,2.91-.29,5.81-.18,8.7-3.9,0-7.8,0-11.69-.19C66.45,78.78,66.75,76.28,66.93,73.77Z"/><path class="cls-4" d="M72.56,17.39a25.63,25.63,0,0,1,17-6.1c1.81.82,2.94,2.64,4.5,3.85,4.56,4.23,10.16,7,15.88,9.36,5.21,9.57,2.26,22.5-6.31,29.16-9.37,7.82-24.76,7-32.86-2.27,1.29-5,2.72-10.61.14-15.39-1.23-2.53-3.82-3.81-6.13-5.16C66.14,25.78,68.41,20.76,72.56,17.39Zm10.66,8.49c-4.38,1.51-8,6-7.57,10.77-.26,6.13,5.75,11.25,11.7,10.89,6.36-.08,12-6.76,10.21-13.08C96.52,28.08,89.39,23.59,83.22,25.88Z"/><path class="cls-5" d="M.65,18.83c.69-1.22,2-2,3.39-1.17S1.86,23.31.83,22.58-.28,20,.65,18.83Z"/><path class="cls-6" d="M37.22,25.76C45,22.61,53.63,31,51.68,38.84c-.92,5.06-5.94,8.71-11,8.63-7.46.61-13.13-8.12-10.7-14.88A11.66,11.66,0,0,1,37.22,25.76Zm1.56.86a9.86,9.86,0,0,0-7.51,6.58c-1.57,4.37.42,9.9,4.74,11.87A11.1,11.1,0,0,0,47.3,44a9.84,9.84,0,0,0,3-10.22A10.34,10.34,0,0,0,38.78,26.62Z"/><path class="cls-6" d="M83.22,25.88c6.17-2.29,13.3,2.2,14.34,8.58,1.79,6.32-3.85,13-10.21,13.08-5.95.36-12-4.76-11.7-10.89C75.26,31.88,78.84,27.39,83.22,25.88Zm1.51.8a10.4,10.4,0,0,0-7.33,6.69c-2.32,5.9,2.9,13.2,9.26,12.85a9.8,9.8,0,0,0,10.1-9.57C97,30.55,90.74,25.12,84.73,26.68Z"/><path class="cls-6" d="M111.33,55.37c4.21-1.62,9,1.26,10.52,5.29,3,7,.1,15.15-4.41,20.86-7.7,9.58-18.7,15.79-29.84,20.56-8.87,4-18.8,4.9-28.43,4.65-10.14-.29-19.88-4.25-28.11-10C23.11,90.64,15.71,83.6,10.56,75,8.8,71.86,7.14,68.48,7.42,64.81c-.15-3.43,1.24-7.41,4.73-8.66,4.75-1.7,9.66.57,13.92,2.59,10.07,5,20.23,10.43,31.48,12.07,13.06,1.93,27.07.57,38.7-6C101.31,61.7,105.7,57.44,111.33,55.37ZM11.64,57.93a9,9,0,0,0-2.75,8.3c.69,4.07,3,7.65,5.2,11.06,5.22,8,12.74,14.13,20.43,19.63A16.22,16.22,0,0,0,40,99.75c3.58-.25,7-1.69,10.53-2,3.81-.49,7.61.2,11.35.87,3,.63,5.76-1.08,8.64-1.57,4.86-.86,10-1.09,14.73.43,1.63.43,3.21,1.19,4.93,1.19,2.4-.46,4.49-1.84,6.6-3A101.32,101.32,0,0,0,112.54,84.8a28.64,28.64,0,0,0,8.76-15.68c1-4.48-.85-9.54-4.91-11.85-2-1.24-4.51-.53-6.51.37-6,2.8-10.81,7.72-16.85,10.53-4.24,2.11-9,2.91-13.35,4.62-.59,3.32.16,6.76-.41,10-1.59.76-3.51.35-5.23.48-2.77-.14-5.69.33-8.38-.54-.66-3-.13-6.15-.36-9.2L63,73.72a73.91,73.91,0,0,1-1,8.55l-.71.65c-3.9-.09-7.75-.83-11.63-1.14-.07-3.43.12-6.87.21-10.31-3.66-2-7.69-3.27-11.41-5.17-6.53-3.27-12.94-6.93-20-9C16.21,56.74,13.57,56.45,11.64,57.93ZM51.36,71.59c-.21,3-.57,6-.69,9.09,3.49,0,7,.38,10.45.56.05-2.6.15-5.2.23-7.8A43.47,43.47,0,0,1,51.36,71.59Zm15.57,2.18c-.18,2.51-.48,5-.49,7.53,3.89.19,7.79.2,11.69.19-.11-2.89.09-5.79.18-8.7C74.51,73,70.72,73.43,66.93,73.77Zm-1.16,25.8c.75.78,1.51,1.55,2.25,2.35a30,30,0,0,0-24.22-.69c3.82,2,8.21,2.57,12.45,3.1,10.4.41,21.37.65,30.92-4.15C80.54,96.93,72.64,97.21,65.77,99.57Z"/><path class="cls-7" d="M38.78,26.62a10.34,10.34,0,0,1,11.54,7.17A9.84,9.84,0,0,1,47.3,44,11.1,11.1,0,0,1,36,45.07c-4.32-2-6.31-7.5-4.74-11.87A9.86,9.86,0,0,1,38.78,26.62Zm-.11,4.15c-4.33.95-5.8,6.58-3.66,10.09,3,4.23,10.94,2.56,11.65-2.79C48,33.49,43,29.32,38.67,30.77Z"/><path class="cls-8" d="M84.73,26.68c6-1.56,12.29,3.87,12,10a9.8,9.8,0,0,1-10.1,9.57c-6.36.35-11.58-6.95-9.26-12.85A10.4,10.4,0,0,1,84.73,26.68Zm-1.42,4.4c-3.94,2.3-4.14,8.89.2,10.85,4.14,2.74,10.15-1.09,9.53-6C92.76,31.44,87.1,28.68,83.31,31.08Z"/><path class="cls-9" d="M38.67,30.77c4.34-1.45,9.33,2.72,8,7.3-.71,5.35-8.61,7-11.65,2.79C32.87,37.35,34.34,31.72,38.67,30.77Z"/><path class="cls-10" d="M83.31,31.08c3.79-2.4,9.45.36,9.73,4.89.62,4.87-5.39,8.7-9.53,6C79.17,40,79.37,33.38,83.31,31.08Z"/><path class="cls-11" d="M11.64,57.93c1.93-1.48,4.57-1.19,6.78-.59,7,2,13.46,5.69,20,9,3.72,1.9,7.75,3.13,11.41,5.17-.09,3.44-.28,6.88-.21,10.31,3.88.31,7.73,1,11.63,1.14l.71-.65a73.91,73.91,0,0,0,1-8.55l2.31-.14c.23,3-.3,6.19.36,9.2,2.69.87,5.61.4,8.38.54,1.72-.13,3.64.28,5.23-.48.57-3.29-.18-6.73.41-10,4.4-1.71,9.11-2.51,13.35-4.62,6-2.81,10.8-7.73,16.85-10.53,2-.9,4.47-1.61,6.51-.37,4.06,2.31,5.89,7.37,4.91,11.85a28.64,28.64,0,0,1-8.76,15.68A101.32,101.32,0,0,1,96.75,95.68c-2.11,1.17-4.2,2.55-6.6,3-1.72,0-3.3-.76-4.93-1.19-4.76-1.52-9.87-1.29-14.73-.43-2.88.49-5.64,2.2-8.64,1.57-3.74-.67-7.54-1.36-11.35-.87-3.58.29-7,1.73-10.53,2a16.22,16.22,0,0,1-5.45-2.83c-7.69-5.5-15.21-11.62-20.43-19.63-2.23-3.41-4.51-7-5.2-11.06A9,9,0,0,1,11.64,57.93Z"/><path class="cls-12" d="M51.36,71.59a43.47,43.47,0,0,0,10,1.85c-.08,2.6-.18,5.2-.23,7.8-3.48-.18-7-.57-10.45-.56C50.79,77.64,51.15,74.62,51.36,71.59Z"/><path class="cls-13" d="M12,89.27c1.64-.77,5.36,4.49,2.77,6.72-1.48,1.2-3.32-.1-3.74-1.68C10.29,92.56,10.37,90,12,89.27Z"/><path class="cls-14" d="M65.77,99.57c6.87-2.36,14.77-2.64,21.4.61-9.55,4.8-20.52,4.56-30.92,4.15-4.24-.53-8.63-1.06-12.45-3.1a30,30,0,0,1,24.22.69C67.28,101.12,66.52,100.35,65.77,99.57Z"/><path class="cls-15" d="M19.55,99.14c5.45-2.47,10.55,7.7,5.12,10.47C19.44,111,15.12,102.29,19.55,99.14Z"/><path class="cls-16" d="M100.75,104.14c6.53-.5-.21,8.18,0,0"/><path class="cls-17" d="M39.86,106.49c4.71.75,9.23,2.4,14,3a70,70,0,0,0,23.73-.32c3.62-.68,7.08-1.94,10.67-2.72C83.83,109.8,78.33,111,73,111.83c-9.49,1.41-19.23,0-28.3-2.93A20,20,0,0,1,39.86,106.49Z"/></g></g></svg>