<svg xmlns="http://www.w3.org/2000/svg" viewBox="0 0 126.61 118.62"><defs><style>.cls-1{fill:#9d9e36;}.cls-2{fill:#171516;}.cls-3{fill:#fff;}.cls-4{fill:#3ebaeb;}.cls-5{fill:#ca5928;}.cls-6{fill:#602328;}.cls-7{fill:#eb9e9e;}</style></defs><title>Asset 15</title><g id="Layer_2" data-name="Layer 2"><g id="Layer_1-2" data-name="Layer 1"><path class="cls-1" d="M120.12.49c2-.9,4.87-.64,6,1.41,2.19,5.4-4.31,12-9.67,9.6C112.68,8.09,116,2,120.12.49ZM.16,14.13C1,17.69,5.5,18.26,8.28,16.74c4.14-2.11,7.3-7.42,5.19-12C12.41,2.34,9.24,2,7,2.78,2.66,4.5-.78,9.39.16,14.13ZM2.46,26.8c1.79-.11,1.35-2.19,1.37-3s-1.53-2.06-2.16-2.2-1.08.6-1,1.63S.67,26.91,2.46,26.8ZM103.69,96.51c1.25,3.55,6,4.07,8.88,2.36,4.77-2.59,8.6-8.5,6.56-14-.95-2.79-4.28-3.89-6.94-3.05C106.16,83.38,101.5,90.41,103.69,96.51ZM14.51,93c4.11,1.85,7.55-6.36,5.7-7.47s-3-.24-4.28.64C13.8,87.54,12.21,91,14.51,93Zm.63,14.1c-.42,2.8,1.13,6.09,4.2,6.43,6.08.27,11-6.79,9.07-12.49A5,5,0,0,0,22,98.52,10.34,10.34,0,0,0,15.14,107.09ZM107,110.28a2.88,2.88,0,0,0,2.49-3.37c-.13-1.63-2-1.86-3-1.74s-1.94.45-2.37,2.38S105.21,110.54,107,110.28Z"/><path class="cls-2" d="M35,4.55l3.17,0c.14,1.9.33,3.81.54,5.72a32.94,32.94,0,0,1,10.91,2.88c.9-1.27,1.8-2.52,2.7-3.78,1.07.62,2.16,1.23,3.25,1.82-.88,1.25-1.78,2.5-2.68,3.74,4.87,3.82,8.27,9.14,10.68,14.79a30.68,30.68,0,0,1,10-14.08c-.71-1.41-1.4-2.82-2-4.24l2.82-1.65c.79,1.31,1.58,2.63,2.38,3.94a29.39,29.39,0,0,1,11.07-3.18c.11-1.77.23-3.53.37-5.3,1.34,0,2.69.06,4,.11-.19,1.68-.41,3.35-.58,5A49.08,49.08,0,0,1,102.4,13.6c1-1.37,2.07-2.7,3.15-4l2.73,1.7c-.85,1.4-1.68,2.8-2.51,4.19a31.34,31.34,0,0,1,9.74,14.31,26.72,26.72,0,0,1-8.12,27.55c-5.74,5.26-13.92,7.44-21.57,6.57-4.9-.51-9.36-2.73-13.5-5.27-.21-.36-.64-1.08-.85-1.45-.18.41-.53,1.22-.71,1.62-1.25,2.77-2.32,5.69-4.29,8,1-4.48,3.4-8.54,4.25-13.08,1-5.07,2.27-10.58,0-15.53-1.18-3.92-7.22-5.26-9.83-2-2.46,2.5-2.89,6.24-2.58,9.58.31,6.68,3.11,13.12,2.28,19.87-1.18-3.54-1.93-7.21-2.91-10.82-5.36,5.67-13,9.41-20.88,9.18-6.67-.5-13.56-2.61-18.36-7.48-7.83-7.56-10.6-20-6-30a28.71,28.71,0,0,1,7.79-10.31c-.78-1.52-2.62-2.88-2-4.76q1.26-.81,2.58-1.5L23.4,14A34.92,34.92,0,0,1,35,10.14C34.94,8.28,34.92,6.42,35,4.55Zm-4.33,7.82c-12.32,3-21,16.36-18.68,28.88C13.7,53.09,24.83,62.68,36.83,62.42a25.32,25.32,0,0,0,20.39-9.68c-1.16-4.54-1.82-9.51,0-14,1-2.77,3.35-4.71,5.55-6.55-1.35-4.37-3-8.81-6.15-12.23A26,26,0,0,0,30.62,12.37ZM79.1,14c-7.43,3.28-12.76,10.24-15,18,3.72,0,7.88,1.79,9,5.62,1.66,6,.24,12.36-1.56,18.2a24.19,24.19,0,0,0,14.33,7,26.34,26.34,0,0,0,25.89-13c4-7.38,4.54-16.93.38-24.37A24.7,24.7,0,0,0,95.67,12.64C90.2,11.52,84.22,11.45,79.1,14ZM34,25.26c6.62-2.76,15.17,2.4,15.27,9.69.76,6.52-5.11,12.79-11.64,12.53A11.41,11.41,0,0,1,34,25.26Zm0,1.4a9.74,9.74,0,0,0-6.31,9.93C27.71,43.06,35,48,41,45.75c6.32-1.74,9.08-10.29,5.28-15.52A10.41,10.41,0,0,0,34,26.66ZM85.42,26c6.87-1.9,14.34,4.23,13.78,11.35.24,6-5.06,11.15-10.91,11.28-6.72.44-13.32-6-12.12-12.83A11.74,11.74,0,0,1,85.42,26Zm0,1.41c-3.83,1.08-7.51,4.12-7.73,8.37a10.19,10.19,0,0,0,7.77,11.47C91.79,48.6,98.55,43.2,97.8,36.53,97.72,30.44,91.19,25.76,85.39,27.45ZM39.12,41.85c3-.35,4.52-3.24,5.27-5.85-1-2.28-2-5-4.64-5.81-3.39-1.28-7,1.36-7.84,4.63C31.23,38.77,35.12,42.74,39.12,41.85Zm43.69-1.34c2.67,4.77,11.46,2.55,10.91-3.12a5.71,5.71,0,0,0-7.4-5.8C82.66,32.57,80.31,37.28,82.81,40.51ZM95.65,68.17c-4.79-1-9.72-1.47-14.32-3.2-3.15-1-5.83-3-8.64-4.66C77.47,67.64,87.49,70.13,95.65,68.17Zm-69.53-.08A15.48,15.48,0,0,0,32.9,70c7.75.35,15.91-2.58,20.73-8.84-3.83,1.79-7.36,4.22-11.46,5.4A37.59,37.59,0,0,1,26.12,68.09ZM49.46,88.76c6-7,15.62-9.68,24.58-9.72,5.17-.07,10.79,2.14,13.17,7a46.78,46.78,0,0,1,4,21.49,53.09,53.09,0,0,0-18-.38c-11.6.85-22.75,4.4-33.81,7.74-1.24-2.74-.58-5.8.15-8.59C41.41,99.77,45.18,94,49.46,88.76ZM67,81.32c0,3.85-.09,7.69.16,11.53,3.6.21,7.21.25,10.81.21-.26-4.14-.91-8.24-1.29-12.36A24.9,24.9,0,0,0,67,81.32Zm-4,13.6q-6.21.78-12.4,1.52c-.3-1.86-.54-3.73-.76-5.6a63,63,0,0,0-6.55,11.73c1.78.3,3.57.62,5.38.83,4.11.56,7.84-2.46,12-1.56,4,.36,6.85,4.32,11,3.71a76.52,76.52,0,0,1,18,.17c0-6.73-.83-13.69-4-19.7-1.46-2.86-4.39-4.38-7.33-5.29.32,4.53,1.47,9,1.06,13.57-4.38,1.23-9.16.17-13.67-.17-.17-4.37,0-8.76-.55-13.12C62.74,85.27,64,90.33,63,94.92ZM51.86,88.7c-.13,1.86-.29,3.72-.42,5.59,3.54-.19,7.06-.56,10.57-1-.07-3.7.22-7.39.47-11.08A31.25,31.25,0,0,0,51.86,88.7Zm.19,15.93c1.24.74,2.5,1.45,3.74,2.2a27.82,27.82,0,0,0-12.78-2,14.65,14.65,0,0,0-1.83,8.34,109.3,109.3,0,0,1,24.55-6.94C62.06,102.65,56.5,102.63,52.05,104.63Z"/><path class="cls-3" d="M30.62,12.37a26,26,0,0,1,26,7.61c3.16,3.42,4.8,7.86,6.15,12.23-2.2,1.84-4.53,3.78-5.55,6.55-1.83,4.47-1.17,9.44,0,14a25.32,25.32,0,0,1-20.39,9.68c-12,.26-23.13-9.33-24.89-21.17C9.57,28.73,18.3,15.4,30.62,12.37ZM34,25.26a11.41,11.41,0,0,0,3.63,22.22c6.53.26,12.4-6,11.64-12.53C49.17,27.66,40.62,22.5,34,25.26ZM79.1,14c5.12-2.52,11.1-2.45,16.57-1.33a24.7,24.7,0,0,1,16.51,12.81c4.16,7.44,3.67,17-.38,24.37a26.34,26.34,0,0,1-25.89,13,24.19,24.19,0,0,1-14.33-7c1.8-5.84,3.22-12.16,1.56-18.2-1.13-3.83-5.29-5.63-9-5.62C66.34,24.21,71.67,17.25,79.1,14ZM85.42,26a11.74,11.74,0,0,0-9.25,9.8c-1.2,6.83,5.4,13.27,12.12,12.83,5.85-.13,11.15-5.33,10.91-11.28C99.76,30.27,92.29,24.14,85.42,26ZM72.32,58.63c-.21-.36-.64-1.08-.85-1.45-.18.41-.53,1.22-.71,1.62C71.15,58.77,71.93,58.68,72.32,58.63ZM67.13,92.85c3.6.21,7.21.25,10.81.21-.26-4.14-.91-8.24-1.29-12.36a24.9,24.9,0,0,0-9.68.62C67,85.17,66.88,89,67.13,92.85ZM51.44,94.29c3.54-.19,7.06-.56,10.57-1-.07-3.7.22-7.39.47-11.08A31.25,31.25,0,0,0,51.86,88.7C51.73,90.56,51.57,92.42,51.44,94.29Z"/><path class="cls-4" d="M34,26.66a10.41,10.41,0,0,1,12.27,3.57c3.8,5.23,1,13.78-5.28,15.52-6,2.22-13.3-2.69-13.3-9.16A9.74,9.74,0,0,1,34,26.66Zm-2.11,8.16c-.68,4,3.21,7.92,7.21,7,3-.35,4.52-3.24,5.27-5.85-1-2.28-2-5-4.64-5.81C36.36,28.91,32.77,31.55,31.91,34.82Zm53.48-7.37c5.8-1.69,12.33,3,12.41,9.08.75,6.67-6,12.07-12.37,10.76a10.19,10.19,0,0,1-7.77-11.47C77.88,31.57,81.56,28.53,85.39,27.45Zm.93,4.14c-3.66,1-6,5.69-3.51,8.92,2.67,4.77,11.46,2.55,10.91-3.12A5.71,5.71,0,0,0,86.32,31.59Z"/><path class="cls-5" d="M115.27,62.16c1.28-.44,1.72,0,1.34,1.28C115.32,63.88,114.87,63.45,115.27,62.16Zm-9.1,4.23c.91-1.11-1-2.62-1.76-1.36C103.5,66.13,105.36,67.66,106.17,66.39Zm-83,5.09c.91-1.12-1-2.6-1.78-1.34C20.5,71.25,22.39,72.73,23.2,71.48Zm87.18,1.89c1.2-.8-.21-2.74-1.35-1.83S109.25,74.27,110.38,73.37ZM15.86,76.16C16.77,75,14.75,73.7,14,74.92,13.07,76.09,15.1,77.37,15.86,76.16Zm-1.77-10.3c-.49-1.24-2.76-.65-2.24.72S14.61,67.2,14.09,65.86Z"/><path class="cls-6" d="M63,94.92c1-4.59-.22-9.65,2.09-13.91.54,4.36.38,8.75.55,13.12,4.51.34,9.29,1.4,13.67.17.41-4.55-.74-9-1.06-13.57,2.94.91,5.87,2.43,7.33,5.29,3.19,6,4,13,4,19.7a76.52,76.52,0,0,0-18-.17c-4.14.61-7-3.35-11-3.71-4.14-.9-7.87,2.12-12,1.56-1.81-.21-3.6-.53-5.38-.83A63,63,0,0,1,49.8,90.84c.22,1.87.46,3.74.76,5.6Q56.76,95.69,63,94.92Z"/><path class="cls-7" d="M52.05,104.63c4.45-2,10-2,13.68,1.58a109.3,109.3,0,0,0-24.55,6.94A14.65,14.65,0,0,1,43,104.81a27.82,27.82,0,0,1,12.78,2C54.55,106.08,53.29,105.37,52.05,104.63Zm8.55,11.93a84.62,84.62,0,0,1-9,0c3.68,1.16,7.5,2.36,11.41,2,2.64-.7,4.7-2.69,7.32-3.47,6-1.77,12.28,2.16,18.14-.57.35-1.09.71-2.17,1.07-3.25-5.28,3.92-12,.45-17.87.85C67.4,111.93,64.57,115.78,60.6,116.56Z"/></g></g></svg>