<svg xmlns="http://www.w3.org/2000/svg" viewBox="0 0 89.02 86.9"><defs><style>.cls-1{fill:#0d0c0c;}.cls-2{fill:#42bced;}.cls-3{fill:#acae36;}.cls-4{fill:#ca5928;}.cls-5{fill:#602328;}.cls-6{fill:#fff;}.cls-7{fill:#f69fa1;}</style></defs><title>Asset 6</title><g id="Layer_2" data-name="Layer 2"><g id="Layer_1-2" data-name="Layer 1"><path class="cls-1" d="M51.9,3.92a6.45,6.45,0,0,1,6-3.9c2.19-.18,4.15,1,5.76,2.34-2.12-.68-4.3-1.5-6.56-1.13C55.07,1.36,53.55,2.87,51.9,3.92Zm8.45,38.93a81.17,81.17,0,0,1-22.69,2.69C30.51,45.35,23,44.27,17.08,40l-.46.18A43.66,43.66,0,0,0,21,43.54c1.37,1,1.66,2.79,2.43,4.21.73,1.74,2.36,2.81,3.81,3.9q-.9,5.76-2,11.47c-2.18,1.06-4.34,2.33-6.79,2.66-2.18.34-4.37.6-6.55,1A44.54,44.54,0,0,1,10.7,41.67l-1.6,0c-1,7.13-1.5,14.48.24,21.53A25.71,25.71,0,0,0,21.13,79.52c4.79,2.37,10.22,2.9,15.47,3.37,10.25.45,20.62.35,30.72-1.65,3-.71,6.29-1.33,8.54-3.62,3.68-3.53,5.21-8.63,6.22-13.47a100.12,100.12,0,0,0,1.07-26.5l-.84.43c-.25,8.56.58,17.25-1.45,25.66-3.65-.83-6.88-3.09-10.74-3.06-.76-3.25-1.76-6.43-2.44-9.69-.59-1.88,1.2-3.21,2-4.69,1.49-2,1.38-4.72,2.34-7a12.09,12.09,0,0,1,2.38-2.08l-.81-.46C69.73,39.79,65,41.53,60.35,42.85Zm10.51-3a10.84,10.84,0,0,1-3.59,8.23c-3.22-2.63-7.69-2.23-11.53-1.56-2.83.47-5.66,2-6.7,4.82-1.35,0-3.17.83-4.11-.56-2.75-3.4-7.64-3.59-11.66-3.28-2.31.11-4.22,1.38-6,2.74-2.5-.81-3.57-3.44-4-5.82,7.19,2.33,14.81,2.18,22.27,1.89C54.27,45.58,63,43.77,70.86,39.88Zm-5.8,7.79c.84.32,1,1.28,1.29,2q1.47,4.83,2.75,9.72c.08.54.46,1.6-.41,1.69-5.79,1.82-12.12,1.32-17.91-.24-.18-3.4-.6-6.84-.21-10.24.9-1.7,2.91-2.34,4.64-2.86C58.41,47,61.91,46.43,65.06,47.67Zm-23.17,1.8c1.16.48,2.55,1.26,2.62,2.68.19,3.42,0,6.85.1,10.28a26.69,26.69,0,0,1-18,.63c.77-4,1.09-8,1.91-12,.23-1.66,2.15-2.08,3.51-2.4A19.59,19.59,0,0,1,41.89,49.47Zm7.32,3c.29,2.74.95,5.51.52,8.26-1.13,1.1-2.8,0-4.14-.09q-.24-4.05-.18-8.12Zm-1,9.7c.45,4.7,1.08,9.37,1.73,14-2.36,1.88-5.54,2.21-8.45,1.76a4,4,0,0,1-3.06-2A67.05,67.05,0,0,1,34.1,65.4c3.56-.18,7.26-.48,10.52-2.07.8-.3.93-1.21,1.27-1.89C46.67,61.64,47.44,61.88,48.21,62.12Zm15,1.19c0,4.08.13,8.24-.85,12.24-.21,1.06-1.4,1.34-2.27,1.69a13.49,13.49,0,0,1-7.37.25,2.46,2.46,0,0,1-1.95-1.88c-.57-3-.72-6.15-1.13-9.22a16.59,16.59,0,0,1-.09-5.12C53.75,63.37,58.55,63.63,63.18,63.31Zm12.34-.88c1.23.13.83,1.52.67,2.35a38.3,38.3,0,0,1-4.27,10c-2,2.64-5.85,2.27-8.66,1.39a56.78,56.78,0,0,0,.9-13C67.88,62.42,71.74,61.23,75.52,62.43ZM25.23,64.3c2.65.12,5.25,1.09,7.94,1.1A58.33,58.33,0,0,0,37.7,76.58a16.65,16.65,0,0,1-8.25,1.9c-1.72-.26-2.63-1.89-3.57-3.15a46.67,46.67,0,0,1-4.36-7.69C20.59,65.44,23.7,64.76,25.23,64.3Zm52.42.17a24.33,24.33,0,0,1,3.08-.1c-1.19,4.82-3,9.75-6.82,13.11l-2-.92a56.88,56.88,0,0,0,4.78-10.14A4.58,4.58,0,0,1,77.65,64.47ZM20,66.94A45.62,45.62,0,0,0,27.52,78.7c-2.21,1.44-4.67.07-6.63-1.12a23.19,23.19,0,0,1-8.2-9.52A13.82,13.82,0,0,1,20,66.94ZM69.68,77.38a5.26,5.26,0,0,1,3.34.53,14.73,14.73,0,0,1-3.61,1.36c-10.35,2.33-21,2.46-31.54,2.16a53.73,53.73,0,0,1-10.94-1.55c1.29-1.32,3.14-.44,4.72-.59a12.94,12.94,0,0,0,6.54-1.89c3.52,2.45,8.57,2,12-.4,2.4,2,5.7,2,8.65,1.6a9.9,9.9,0,0,0,4.07-1.74A12.58,12.58,0,0,0,69.68,77.38ZM23.63,4c2.16-.82,4.44-.23,6.61.16C26.21.66,18.81,2.9,17.8,8.27,19.45,6.5,21.2,4.67,23.63,4ZM57.91,8c-1.44.36-2.87.75-4.28,1.19C53.09,8,52.56,6.89,52,5.75l-1.71.86,2.16,3.1a16.53,16.53,0,0,0-7.77,9.69A18.61,18.61,0,0,0,33.9,9.24c.33-.91.67-1.81,1-2.73L33,6c-.12,1-.22,1.93-.32,2.9-1.6-.09-3.19-.13-4.79-.14C27.93,7.53,28,6.27,28,5L26,5.08c.15,1.28.31,2.56.45,3.85-1.33.56-2.66,1.15-4,1.8C22,9.88,21.59,9,21.15,8.18c-.61.32-1.21.64-1.81,1l2.17,2.25A19.72,19.72,0,0,0,14.71,24l.88.2c.68-5.75,4-11.58,9.52-13.85,4.28-1.81,9.18-.52,13,1.9.47.36.91.75,1.36,1.14a14.25,14.25,0,0,1,4.17,6.18c.34.75.38,1.75,1.1,2.25,1.36-2.54,1.7-5.62,3.78-7.78a15.59,15.59,0,0,1,15.59-4.8c2.08.55,3.69,2,5.45,3.18,2,.13-2.3-2.49-3.6-3.52.76-1.21,1.49-2.44,2.23-3.67-.61-.29-1.23-.56-1.85-.84-.49,1.37-1,2.76-1.39,4.15a19.9,19.9,0,0,0-5.75-.67c.12-1.41.21-2.81.31-4.22h-2.1C57.52,5.12,57.71,6.56,57.91,8Zm5.28,22.39a9.75,9.75,0,0,0-9.13,1.77A67.51,67.51,0,0,1,63.19,30.38ZM30.31,17.24c-2.11,3.16-1.49,7.24.24,10.41a36.2,36.2,0,0,0-8.17,1.83l.68.79a36.73,36.73,0,0,1,16.7-1.14,12.37,12.37,0,0,0-1.28,9.38,19.05,19.05,0,0,1-17.9-1.23l-.65.52a11.74,11.74,0,0,0,5.39,2.87c4.47.93,9.45.92,13.43-1.57a9.4,9.4,0,0,0,5.11,3.82c-1.5-1.54-3.45-2.87-4-5.06-.84-2.88-.28-6.42,2.1-8.42a4,4,0,0,1,5.81.46C49.54,32.56,49,36,48.36,39c.44-.52.86-1,1.3-1.54a13.11,13.11,0,0,0,7.73,2.36c5,0,10.3-1.19,14.08-4.64l-.57-.55a17.33,17.33,0,0,1-6.14,2.93c-4.85,1.33-10.34,1.62-14.85-.94a58.61,58.61,0,0,0-.17-6.49c5.94-2.54,12.58-2.8,18.93-2.14,1.79-2.14,3-4.94,5.66-6.16A16.62,16.62,0,0,0,70,12.11l-.45.33-.43.31c-2.06-.64-4.46-.57-6,1.1-3.23,3.36-3.46,8.77-1.39,12.79-4.25.23-8.59.8-12.42,2.77a13.18,13.18,0,0,0-4-3,8.57,8.57,0,0,0-1.74-5.62,9.34,9.34,0,0,0-2.84-1.91,4,4,0,0,0-4.84,3c-.36,1.93.36,3.83.76,5.7-1.82-.09-3.65-.14-5.48-.18-1.22-2.9-2.16-6.35-.5-9.29a8.86,8.86,0,0,1,8.8-4.74c-.45-.39-.89-.78-1.36-1.14C35,13,31.92,14.4,30.31,17.24Zm39-3.46c2,1.05,2.87,3.23,3.57,5.23-1.6-1.06-3.78-2.2-5.55-.84-2.73,2-2.3,5.93-.82,8.58-1.37-.09-2.75-.14-4.13-.18A11,11,0,0,1,63,15,4.85,4.85,0,0,1,69.34,13.78ZM33.49,32.39a8.68,8.68,0,0,0-8.77.89A63.11,63.11,0,0,1,33.49,32.39Z"/><path class="cls-2" d="M63,15a4.85,4.85,0,0,1,6.3-1.18c2,1.05,2.87,3.23,3.57,5.23-1.6-1.06-3.78-2.2-5.55-.84-2.73,2-2.3,5.93-.82,8.58-1.37-.09-2.75-.14-4.13-.18A11,11,0,0,1,63,15ZM31.12,27.44c1.83,0,3.66.09,5.48.18-.4-1.87-1.12-3.77-.76-5.7a4,4,0,0,1,4.84-3,9.34,9.34,0,0,1,2.84,1.91c0-.31,0-.93.07-1.24a14.25,14.25,0,0,0-4.17-6.18,8.86,8.86,0,0,0-8.8,4.74C29,21.09,29.9,24.54,31.12,27.44Z"/><path class="cls-3" d="M86.15,5.71c2.41-1,3.52,2.42,2.48,4.13a2.37,2.37,0,0,1-4,.71A3.92,3.92,0,0,1,86.15,5.71ZM1.62,16.85a3.42,3.42,0,0,0,5.09.91A8.51,8.51,0,0,0,9,8.91,3.73,3.73,0,0,0,4.46,6.75C.13,7.7-.51,13.64,1.62,16.85Zm-1.14,6C1.38,24.15,3.91,24,4,22.2c.52-1.61-1-4-2.81-2.9A2.5,2.5,0,0,0,.48,22.9Z"/><path class="cls-4" d="M74.33,21.81A14.56,14.56,0,0,1,87.58,23.4C83.2,22.12,78.09,21,74,23.66a7.16,7.16,0,0,0-.72,11.42c3.41,3,8.24,2.09,12.25,1.15a23.42,23.42,0,0,1-2.36,1.42l-.84.43a13.87,13.87,0,0,1-7.88-.85l-.81-.46c-.74-.51-1.47-1-2.15-1.61l-.57-.55A36,36,0,0,1,68.67,28C70.46,25.83,71.64,23,74.33,21.81Zm-64.1,3.5c3.71-.35,8.28.49,10.22,4,1.59,2.95-.47,6.31-2.92,8-3.34,2.71-7.72,3.33-11.89,3.37a13.86,13.86,0,0,0,3.46.94l1.6,0a22.9,22.9,0,0,0,5.92-1.51l.46-.18c1-.69,1.91-1.44,2.85-2.18l.65-.52a20.54,20.54,0,0,0,2.48-7l-.68-.79a12.9,12.9,0,0,0-6.79-5.26l-.88-.2A13.16,13.16,0,0,0,2,28.48C4.66,27.21,7.19,25.39,10.23,25.31Zm68.53,5.92c.88-.22,3.31-1.44,2.94-2.2s-2.33.18-3.41.56C78.44,30.13,77.87,31.44,78.76,31.23Zm1.43-5c.35.69,2.45.05,3.1-.9.86-.61.18-1.15-.61-1.08C81.57,24.41,79.84,25.58,80.19,26.27Zm-2.38-.76c-.9-.83-4.46,2.16-3.68,3S78.71,26.34,77.81,25.51ZM16.1,27.22c-.79-.6-2.9-.21-3.26.75S16.89,27.81,16.1,27.22ZM7.6,31.15c1.47.12,3.43-1.56,3-2.24s-2.67-.31-3.68.6C6.15,29.93,6.72,31.37,7.6,31.15Zm6.67,1.09c-.25-.75-4.07.65-3.71,1.84S14.53,33,14.27,32.24Z"/><path class="cls-5" d="M74.43,37.23a13.87,13.87,0,0,0,7.88.85c-.25,8.56.58,17.25-1.45,25.66-3.65-.83-6.88-3.09-10.74-3.06-.76-3.25-1.76-6.43-2.44-9.69-.59-1.88,1.2-3.21,2-4.69,1.49-2,1.38-4.72,2.34-7A12.09,12.09,0,0,1,74.43,37.23ZM11.94,66.75c2.18-.37,4.37-.63,6.55-1,2.45-.33,4.61-1.6,6.79-2.66q1.08-5.71,2-11.47c-1.45-1.09-3.08-2.16-3.81-3.9-.77-1.42-1.06-3.21-2.43-4.21a43.66,43.66,0,0,1-4.41-3.38,22.9,22.9,0,0,1-5.92,1.51A44.54,44.54,0,0,0,11.94,66.75Zm33.65-6.16c1.34.1,3,1.19,4.14.09.43-2.75-.23-5.52-.52-8.26l-3.8,0Q45.35,56.54,45.59,60.59Z"/><path class="cls-6" d="M48.47,14.06a15.59,15.59,0,0,1,15.59-4.8c2.08.55,3.69,2,5.45,3.18l-.43.31c-2.06-.64-4.46-.57-6,1.1-3.23,3.36-3.46,8.77-1.39,12.79-4.25.23-8.59.8-12.42,2.77a13.18,13.18,0,0,0-4-3,8.57,8.57,0,0,0-1.74-5.62c0-.31,0-.93.07-1.24.34.75.38,1.75,1.1,2.25C46.05,19.3,46.39,16.22,48.47,14.06Zm2.1,36.56c-.39,3.4,0,6.84.21,10.24,5.79,1.56,12.12,2.06,17.91.24.87-.09.49-1.15.41-1.69q-1.27-4.89-2.75-9.72c-.28-.74-.45-1.7-1.29-2-3.15-1.24-6.65-.66-9.85.09C53.48,48.28,51.47,48.92,50.57,50.62Zm-6,12.71c-3.26,1.59-7,1.89-10.52,2.07a67.05,67.05,0,0,0,4.33,10.52,4,4,0,0,0,3.06,2c2.91.45,6.09.12,8.45-1.76-.65-4.67-1.28-9.34-1.73-14-.77-.24-1.54-.48-2.32-.68C45.55,62.12,45.42,63,44.62,63.33Zm5,3.06c.41,3.07.56,6.17,1.13,9.22a2.46,2.46,0,0,0,1.95,1.88,13.49,13.49,0,0,0,7.37-.25c.87-.35,2.06-.63,2.27-1.69,1-4,.85-8.16.85-12.24-4.63.32-9.43.06-13.66-2A16.59,16.59,0,0,0,49.61,66.39Zm13.65,9.76c2.81.88,6.67,1.25,8.66-1.39a38.3,38.3,0,0,0,4.27-10c.16-.83.56-2.22-.67-2.35-3.78-1.2-7.64,0-11.36.77A56.78,56.78,0,0,1,63.26,76.15Zm-37.38-.82c.94,1.26,1.85,2.89,3.57,3.15a16.65,16.65,0,0,0,8.25-1.9A58.33,58.33,0,0,1,33.17,65.4c-2.69,0-5.29-1-7.94-1.1-1.53.46-4.64,1.14-3.71,3.34A46.67,46.67,0,0,0,25.88,75.33ZM15.59,24.22a12.9,12.9,0,0,1,6.79,5.26,36.2,36.2,0,0,1,8.17-1.83c-1.73-3.17-2.35-7.25-.24-10.41,1.61-2.84,4.7-4.24,7.75-5-3.77-2.42-8.67-3.71-13-1.9C19.57,12.64,16.27,18.47,15.59,24.22ZM28.48,51.05c-.82,4-1.14,8-1.91,12a26.69,26.69,0,0,0,18-.63c-.07-3.43.09-6.86-.1-10.28-.07-1.42-1.46-2.2-2.62-2.68a19.59,19.59,0,0,0-9.9-.82C30.63,49,28.71,49.39,28.48,51.05Zm43.4,25.51,2,.92c3.83-3.36,5.63-8.29,6.82-13.11a24.33,24.33,0,0,0-3.08.1,4.58,4.58,0,0,0-1,2A56.88,56.88,0,0,1,71.88,76.56Zm-51,1c2,1.19,4.42,2.56,6.63,1.12A45.62,45.62,0,0,1,20,66.94a13.82,13.82,0,0,0-7.34,1.12A23.19,23.19,0,0,0,20.89,77.58Z"/><path class="cls-7" d="M45.58,46.34c8.69-.76,17.41-2.57,25.28-6.46a10.84,10.84,0,0,1-3.59,8.23c-3.22-2.63-7.69-2.23-11.53-1.56-2.83.47-5.66,2-6.7,4.82-1.35,0-3.17.83-4.11-.56-2.75-3.4-7.64-3.59-11.66-3.28-2.31.11-4.22,1.38-6,2.74-2.5-.81-3.57-3.44-4-5.82C30.5,46.78,38.12,46.63,45.58,46.34ZM58.84,78.6c-3,.36-6.25.45-8.65-1.6-3.43,2.44-8.48,2.85-12,.4a12.94,12.94,0,0,1-6.54,1.89c-1.58.15-3.43-.73-4.72.59a53.73,53.73,0,0,0,10.94,1.55c10.54.3,21.19.17,31.54-2.16A14.73,14.73,0,0,0,73,77.91a5.26,5.26,0,0,0-3.34-.53,12.58,12.58,0,0,1-6.77-.52A9.9,9.9,0,0,1,58.84,78.6Zm9.47,5.68c-6.72.68-13.47.92-20.23,1.09-5.47.34-10.95.31-16.43.31a25.49,25.49,0,0,1-10.35-2A55.8,55.8,0,0,1,15.16,80a10.43,10.43,0,0,0,3.25,3.87c4.2,2.89,9.53,3.24,14.46,3,6.9-.15,13.81,0,20.7-.39,7.11-.29,14.4-.09,21.27-2.23,3.09-1.09,6.53-2.94,7.3-6.42-2,1.47-3.84,3.28-6.11,4.38A24.1,24.1,0,0,1,68.31,84.28Z"/></g></g></svg>