<svg xmlns="http://www.w3.org/2000/svg" viewBox="0 0 100.3 81.37"><defs><style>.cls-1{fill:#2a2312;}.cls-2{fill:#ca5928;}.cls-3{fill:#9b9d37;}.cls-4{fill:#fff;}</style></defs><title>Asset 2</title><g id="Layer_2" data-name="Layer 2"><g id="Layer_1-2" data-name="Layer 1"><path class="cls-1" d="M59.72,4.26C61,1.39,64.38-.69,67.51.23c2.49,1.07,3.08,4,3.85,6.3s2.31,4.37,3.29,6.65c-3.41-2.47-4.18-6.84-6.24-10.26-1.54-2.34-5-1.38-6.56.46-2.38,2.53-1.58,6.32-3,9.28A16.24,16.24,0,0,1,59.72,4.26ZM33.07,6.66c-1,1.63-2.39,3-3.4,4.69,4.42-2,5.41-7.89,10-9.67a2.85,2.85,0,0,1,3.67,1.5c1.67,3-.61,6.37,0,9.56A13.12,13.12,0,0,0,44.89,2.65C44-.16,40.26-.66,38,.79S34.5,4.54,33.07,6.66ZM18.32,23.78C27.59,23,36.69,17.2,40,8.29c-4,5.45-9,10.31-15.35,12.93C22.57,22.16,20.25,22.54,18.32,23.78ZM83.07,24a3.54,3.54,0,0,0,2.54-.8,26.8,26.8,0,0,1-17.74-8.31c-1.32-1.41-2.26-3.12-3.68-4.44C66.86,18.31,75,23.56,83.07,24ZM36.77,35.16c-1.13,1.36-3.25,2.77-4.89,1.35-3.3-2.58-3.15-7.12-4.25-10.81-.31,4.1.32,8.58,3.32,11.62a4.18,4.18,0,0,0,6.21-.51c2.59-3.26,3.23-7.68,2.65-11.72C39,28.48,39.12,32.34,36.77,35.16ZM64,37.54c1.36,1.92,4.41,2.61,6.18.86,3.5-2.8,3.76-7.6,4.07-11.7l-.59-.11c-.45,3.37-.75,7.08-3,9.76-1.05,1.15-2.75,2.42-4.31,1.46-2.52-1.46-3.49-4.52-3.86-7.25-.3-1.42,0-3.06-.89-4.29C61.37,30.12,61.73,34.31,64,37.54ZM45.08,42c.53,2.45.92,5.19,2.83,7-1.38-4.83-3-10-1.48-15,.7-2.32,3.34-4.59,5.81-3.38,3.3,1.6,3.85,5.78,3.46,9.05-.33,4.13-2.54,7.72-3.71,11.6,1.12-.63,1.5-1.92,2-3,1.82-4.17,3.36-8.67,2.87-13.29a7.94,7.94,0,0,0-3-5.44c-2.11-1.84-5.89-1.53-7.37,1C44.47,33.88,44.5,38.16,45.08,42ZM41.26,61c-.14,3.39-.5,6.75-.68,10.13a52.27,52.27,0,0,0,9.76.55c.39-2.56,0-5.14.32-7.69l1.28-.46c.1,2.52.05,5,0,7.55v.48a65.81,65.81,0,0,0,9.62.45c.47-3.62-.18-7.25-.13-10.88.87-.71,1.72-1.45,2.56-2.2-.2-.6-.39-1.22-.55-1.83a8.08,8.08,0,0,1-3,3c-5.08,2.29-11.22,3-16.37.55-2.64-1.19-4.64-3.33-6.68-5.31,0,.55,0,1.11,0,1.66A31.44,31.44,0,0,1,41.26,61Zm8,2.53a61.25,61.25,0,0,1,.06,6.91c-2.47-.16-4.94-.24-7.4-.48a60.71,60.71,0,0,1,.5-8.42A25.21,25.21,0,0,0,49.27,63.51Zm10.95-1.9c.28,3,.28,6,.43,9-2.55,0-5.1-.2-7.64-.23a44.33,44.33,0,0,1,.46-6.91A22.3,22.3,0,0,0,60.22,61.61Z"/><path class="cls-2" d="M8.47,44.54C7.26,45,7,43,8.14,42.8,9.36,42.36,9.62,44.33,8.47,44.54ZM46.9,75c-1,.38-1.4,1.51-2,2.3,3.61-1.57,7.5-1.86,11.37-2.14l.39-.85A20.8,20.8,0,0,0,46.9,75ZM23.28,41c-.69.88.84,1.89,1.44,1S23.89,40.13,23.28,41ZM16,46.49c-.73.85.69,1.48,1,1S16.68,45.64,16,46.49Zm17.3-3.58c-6.24-8-19.42-9.43-27-2.48A16.7,16.7,0,0,0,0,53c.08,2.27-.47,5,1.16,6.87.46-3.74-.39-7.7,1.19-11.24,2.75-6.69,10-11,17.12-10.81a17.54,17.54,0,0,1,15,9.9c1.58,3.33,1.48,7.13,1.28,10.72-.27,3.8-3,6.67-4.86,9.79,3.81-2.43,5.58-7,6.47-11.25,0-.55,0-1.11,0-1.66C37.1,50.94,36.24,46.32,33.26,42.91Zm58.92-.65c-1.22.21-.66,2.14.47,1.79S93.29,41.94,92.18,42.26ZM74.11,41c-.51.57.38,1.61,1,1S74.61,40.48,74.11,41Zm10.26,3c-.44.56.3,1.8,1,1S84.8,43.48,84.37,44Zm12.85-.62-.07,0c-3.18-5.31-9.58-8.28-15.68-8.17a19,19,0,0,0-17.13,12.4c-1.1,3-1.87,6.29-.91,9.42.16.61.35,1.23.55,1.83,1.52,4.7,4.57,9.44,9.4,11.2-2-2.29-4.66-4-6.12-6.71A16.57,16.57,0,0,1,64.88,53c.64-8.25,7.88-15.78,16.33-15.77A16.67,16.67,0,0,1,96,43.82l.1,0c1.29,2.16,2.71,4.33,3.07,6.87.66,3-.1,6.11.11,9.17C101.4,54.45,100,48.3,97.22,43.41Z"/><path class="cls-3" d="M14.35,6.11a2.44,2.44,0,0,1,2.83.81c1.49,2.95.12,8.54-3.65,7.88S11,7.44,14.35,6.11Zm70.7,7.51c2.25,1.59,4.06-.84,4.8-2.83,1-1.62-.93-4.3-2.73-3.27C84.77,8.5,82.8,12,85.05,13.62ZM12.36,19.16c-.25-1.6-.67-1.52-1.37-1.18S8.88,19.63,9.76,20.4,12.61,20.75,12.36,19.16ZM75.87,67.65c-.43,1.86,1.72,2.47,3.09,2.75,3.41.55,7.27-.14,9.86-2.54,1.38-1.34-.17-3.42-1.69-3.75a19.71,19.71,0,0,0-6.85.12C78.41,64.65,76.3,65.79,75.87,67.65ZM18.4,70.05c.32-1.16-1.93-1.91-3.17-2.47-1.58-.72-5.09-1.74-5-.1S18.09,71.22,18.4,70.05ZM17,77.81c-1.14,1.44.67,3.16,2.06,3.48a11.44,11.44,0,0,0,8.34-2.18,2.56,2.56,0,0,0,1-3.4c-.67-1.43-3.28-1.45-5-1.19C21.05,74.93,18.53,75.83,17,77.81Zm57.35.84c.54.39,5.76.16,5.74-1.43s-5.48-1.89-6.19-.42S73.82,78.25,74.37,78.65Z"/><path class="cls-4" d="M42.43,61.52a25.21,25.21,0,0,0,6.84,2,61.25,61.25,0,0,1,.06,6.91c-2.47-.16-4.94-.24-7.4-.48A60.71,60.71,0,0,1,42.43,61.52ZM53,70.43c2.54,0,5.09.23,7.64.23-.15-3-.15-6-.43-9a22.3,22.3,0,0,1-6.75,1.91A44.33,44.33,0,0,0,53,70.43Z"/></g></g></svg>