<svg xmlns="http://www.w3.org/2000/svg" viewBox="0 0 118.29 96.85"><defs><style>.cls-1{fill:#151416;}.cls-2{fill:#3ebfef;}.cls-3{fill:#ca5928;}.cls-4{fill:#151211;}.cls-5{fill:#fff;}.cls-6{fill:#9d9e36;}</style></defs><title>Asset 11</title><g id="Layer_2" data-name="Layer 2"><g id="Layer_1-2" data-name="Layer 1"><path class="cls-1" d="M72.18,25.81C76.05,22,83,22.68,86.3,27c1.44,1.62,1.56,3.95,2.77,5.67,2,.1,4-.05,5.94-.1,1.28.32,2.55.73,3.83,1.06-10.28.48-20.57.26-30.85.67-.73-.23-1.45-.48-2.17-.73,1-.05,1.93-.09,2.89-.12C69.21,30.65,70,27.71,72.18,25.81Zm-.26,1.82a10.14,10.14,0,0,0-1.7,5.46l2.59-.16c.64-2.56,2.17-5.69,5.27-5.56s4.37,3.06,5.36,5.42c1.22-.09,2.43-.18,3.64-.29-.38-1.94-.77-4-2.24-5.46C81.47,23.39,75,23.78,71.92,27.63Z"/><path class="cls-2" d="M33.38,27.35c3.25-3.39,9.5-3.27,12.53.35A12.11,12.11,0,0,1,48,33c-1,0-2,0-3-.14-1.15-1.58-1.48-3.93-3.5-4.73-1.7-.55-3.87-.66-5.27.64A11.51,11.51,0,0,0,34,32.2l-3.06-.12A10.93,10.93,0,0,1,33.38,27.35Zm36.84,5.74,2.59-.16c.64-2.56,2.17-5.69,5.27-5.56s4.37,3.06,5.36,5.42c1.22-.09,2.43-.18,3.64-.29-.38-1.94-.77-4-2.24-5.46-3.37-3.65-9.87-3.26-12.92.59A10.14,10.14,0,0,0,70.22,33.09Z"/><path class="cls-3" d="M101.59,34c2,.31,4,.8,6,1.24,3.37.87,7,2,9.08,5.06a7.06,7.06,0,0,1,.68,8.1c-2,3.43-6.09,5.13-10,5.21,3.21-1.92,7.36-3.38,8.63-7.28,1-3.85-2.34-7.3-5.68-8.61-6.24-2.16-13.43-2.46-19.42.65A7.8,7.8,0,0,0,88,48.52c1.25,2.36,4.27,2.55,6.09,4.29a11.24,11.24,0,0,1-5.38-1.5c-.52-.34-1-.7-1.51-1.08-2.42-3.08-3.58-7.7-.83-11C90,34.86,96.39,35.11,101.59,34ZM0,44.77c-.15,5.44,5.4,9.35,10.54,8.83-2.38-1.51-5.19-2.49-7-4.73a4.93,4.93,0,0,1-.39-6,12.18,12.18,0,0,1,6.48-4.49,30.3,30.3,0,0,1,14.74-1.34c3.3.78,7,2.8,7.74,6.38-.08,4.11-4.34,6-7.07,8.32a23.51,23.51,0,0,0,3.46,0L30,50.87c1.62-1.65,3.42-3.35,4.11-5.63C34.78,42.07,32.6,39,30,37.48,25.47,34.74,20,35,15,34.73c-1.06.39-2.12.79-3.18,1.16C7.14,37.45,1.36,39.44,0,44.77Zm23.27-5.69c.81-1-.95-2.12-1.62-1.1S22.6,40.07,23.27,39.08Zm71.87.09c.35-1.11,0-1.48-1.14-1.12C93.63,39.17,94,39.54,95.14,39.17Zm15.66,1.34c1.12-.25.6-2-.48-1.7S109.73,40.86,110.8,40.51Zm-100.54.71c.37-1.11,0-1.48-1.13-1.13C8.76,41.2,9.14,41.57,10.26,41.22Zm93.41.34c.64-.82-.8-1.71-1.35-.9S103.11,42.37,103.67,41.56Zm-87.26,1c.81-1-1-2.1-1.63-1.1S15.74,43.52,16.41,42.53Z"/><path class="cls-4" d="M33.9,2.21l3-.07c.2,1.95-.51,4.2.35,6a44.5,44.5,0,0,1,8.08,2C46.46,8.55,47.53,7,48.68,5.5l2.78,1.41c-.89,1.68-1.91,3.29-2.92,4.9,4.94,3.2,8.13,8.36,9.78,13.93A24.67,24.67,0,0,1,67,12.09a50.52,50.52,0,0,1-1.76-4.92c.93-.45,1.86-.92,2.8-1.36.6,1.49,1.2,3,1.79,4.48a33.29,33.29,0,0,1,10-2.62c0-1.88.11-3.76.18-5.64l3.22.13c0,1.85-.05,3.71-.18,5.56a44.8,44.8,0,0,1,9.2,3.07c1.15-1.23,2.06-2.8,3.55-3.64.83.44,1.61,1,2.42,1.47a43.58,43.58,0,0,1-3.18,4.1,24.74,24.74,0,0,1,7,10.06c1.16,2.9,1.14,6.07,1.17,9.15,1.67.77,3.63,1.44,4.34,3.33-2-.44-4-.93-6-1.24l-2.75-.43c-1.28-.33-2.55-.74-3.83-1.06,2.29-.23,4.58-.35,6.89-.39.22-5.28-1.09-10.79-4.5-14.92a22.59,22.59,0,0,0-15.28-8.1c-7.63-.46-15.62,3.13-19.68,9.73-1.92,2.9-2.59,6.37-3.28,9.72,2.85.64,5.51,2.14,6.66,5,.72.25,1.44.5,2.17.73L66,34.34a61.65,61.65,0,0,1-.89,10.24c5.38,6.12,14.35,8.08,22,5.65.49.38,1,.74,1.51,1.08-8,2.75-17.66,1.18-23.8-4.81-1.29,2.78-2.44,5.71-4.51,8,1.44-6.17,4.33-12.21,3.67-18.7.09-2.66-2.67-5.41-5.36-4.45-3.11,1.2-4,4.88-4.44,7.84-1,4.8.35,9.56,1.66,14.14-2-1.82-2.5-4.57-3.22-7.05-4.3,3.42-9.31,6.25-14.87,6.83a34.62,34.62,0,0,1-9.31-1.38L30,50.87c7.67,1.88,16.89.1,21.84-6.45.69-3.05.63-6.24,1.34-9.29a73.13,73.13,0,0,0-13.37-1.19c-6.39,0-12.76-.81-19.16-.46A17.08,17.08,0,0,0,15,34.73c-1.06.39-2.12.79-3.18,1.16.72-1.56,2-3,1.74-4.82-.37-7.43,3.68-14.4,9.23-19.06a15.69,15.69,0,0,1-2.14-4.12,2.72,2.72,0,0,1,2.64-1.42,17.8,17.8,0,0,1,2.5,4,57.51,57.51,0,0,1,7.62-2.16C33.5,6.25,33.7,4.23,33.9,2.21ZM21.31,15.28A21.27,21.27,0,0,0,14.69,32.7C19.75,31.77,24.9,32,30,32c.51-1.93.94-4,2.5-5.45,3.64-4,10.76-3.8,14.17.37,1.63,1.7,2.22,4,2.6,6.28l4,.77C54.36,32,56,30.52,57.41,28.83A20.81,20.81,0,0,0,50,14.74C42,7.92,29,8,21.31,15.28ZM33.38,27.35a10.93,10.93,0,0,0-2.44,4.73L34,32.2a11.51,11.51,0,0,1,2.14-3.43c1.4-1.3,3.57-1.19,5.27-.64,2,.8,2.35,3.15,3.5,4.73,1,.11,2,.11,3,.14a12.11,12.11,0,0,0-2-5.3C42.88,24.08,36.63,24,33.38,27.35Zm7.77,9.82a38.42,38.42,0,0,0,6.34.29,23.93,23.93,0,0,0-16.77-.59C34.19,37.22,37.69,36.8,41.15,37.17ZM76.73,38c2.6-.08,5.21.22,7.81.22a7.9,7.9,0,0,0-4-1.25,25.87,25.87,0,0,0-10.29.73C72.34,38.38,74.56,38,76.73,38Zm-65.8,9c2.44-3.54,8-4.69,11.42-1.91a27.3,27.3,0,0,0-6.7.18A15.92,15.92,0,0,0,21,52.69,52,52,0,0,0,50,63.56c12.18,1.37,25,1.19,36.4-3.75,7-2.67,14.13-7.57,15.78-15.34-2,.12-4,.51-6,.78,2.84-2.76,8.33-3.34,11-.06-1.15-.1-2.28-.26-3.42-.44-.91,7.26-7.36,11.8-13.33,15-5.14,3.1-11,4.54-16.8,5.85.31,2.78.66,5.56.76,8.36a18,18,0,0,1,6.12-1.06c-1.91,1.09-4,1.69-6,2.6,0,.5.17,1.51.23,2a14.93,14.93,0,0,0-14.44.44l.81-2c-1.07,0-2.13,0-3.19.09.46,1,.94,1.93,1.38,2.91-3.4-2.89-8.1-3.58-12.41-3-2.17.34-4.22,1.22-6.37,1.67,1.21-1,2.53-1.84,3.8-2.75-2,0-4,.37-6,.5,1.82-1.62,4.29-1.71,6.6-1.68.27-3,.32-6,.34-9a63.36,63.36,0,0,1-20.22-7.08c-4.61-2.72-9.2-6.45-10.35-12A22.47,22.47,0,0,1,10.93,47ZM46.76,74.64c3.39-.71,6.69.45,10,.74.62-3.14.19-6.41.47-9.61a79.66,79.66,0,0,1-10.23-1C46.93,68,46.85,71.34,46.76,74.64Zm12-9c-.09,3,0,6,0,9.07l1.56-.45a27.22,27.22,0,0,0,0-8.06C59.94,66,59.17,65.75,58.79,65.61Zm3.33.39c0,3.27,0,6.54.16,9.8a16.53,16.53,0,0,1,10.53-.73,55.42,55.42,0,0,1-.63-9.54C68.82,65.63,65.49,66.14,62.12,66Z"/><path class="cls-5" d="M62.44,18.85c4.06-6.6,12-10.19,19.68-9.73a22.59,22.59,0,0,1,15.28,8.1c3.41,4.13,4.72,9.64,4.5,14.92-2.31,0-4.6.16-6.89.39-2,0-4,.2-5.94.1-1.21-1.72-1.33-4.05-2.77-5.67C83,22.68,76.05,22,72.18,25.81c-2.23,1.9-3,4.84-3.47,7.6-1,0-1.93.07-2.89.12-1.15-2.82-3.81-4.32-6.66-5C59.85,25.22,60.52,21.75,62.44,18.85ZM14.69,32.7C19.75,31.77,24.9,32,30,32c.51-1.93.94-4,2.5-5.45,3.64-4,10.76-3.8,14.17.37,1.63,1.7,2.22,4,2.6,6.28l4,.77C54.36,32,56,30.52,57.41,28.83A20.81,20.81,0,0,0,50,14.74C42,7.92,29,8,21.31,15.28A21.27,21.27,0,0,0,14.69,32.7ZM62.28,75.8a16.53,16.53,0,0,1,10.53-.73,55.42,55.42,0,0,1-.63-9.54c-3.36.1-6.69.61-10.06.47C62.13,69.27,62.16,72.54,62.28,75.8Zm-5.49-.42c.62-3.14.19-6.41.47-9.61a79.66,79.66,0,0,1-10.23-1c-.1,3.3-.18,6.6-.27,9.9C50.15,73.93,53.45,75.09,56.79,75.38Z"/><path class="cls-6" d="M10,.5C12-.26,15.23-.41,16.27,2c1.95,5-2.71,11-7.89,10.92-2.59,0-4.26-2.59-4-5A8.79,8.79,0,0,1,10,.5Zm94,7.47c3.71,1.43,8-3.1,6.19-6.8a4.17,4.17,0,0,0-3.75-.61C103.67,1.58,101,5.77,103.94,8ZM4.11,20.37c1.46,1.43,3.11.19,4.1-1.08s2.47-3.19.54-4.48S5.86,14.82,5,16C3.74,17.13,2.64,18.94,4.11,20.37ZM18.34,82.05c-.3-2.24,3.17-4.13,1.95-6.22-3.78-1.59-7.17,4.47-5.1,6.55S18.65,84.28,18.34,82.05Zm70.6.88c.87,2.7,4.06,3.81,6.65,3.19a11.64,11.64,0,0,0,8.35-8c.68-2.27-.19-5.37-2.69-6.09a9.87,9.87,0,0,0-5.84.26C91.25,73.8,87.87,78.37,88.94,82.93ZM16.79,94.38c1.1,2.47,4.5,2.79,6.67,1.64,3.54-1.81,6-6.23,4.71-10.15-.86-2.37-3.82-2.66-5.88-1.89C18.25,85.4,15.22,90.17,16.79,94.38Zm71.93,2c2.82,1.9,7.13-1.78,5.68-4.88-.6-1.51-2.52-1.15-3.71-.68C88.66,91.51,86.72,94.6,88.72,96.33Z"/></g></g></svg>